# MagicaVoxel @ Ephtracy

# material
mtllib Character Model Crag.mtl
usemtl palette

# normals
vn -1 0 0
vn 1 0 0
vn 0 0 1
vn 0 0 -1
vn 0 -1 0
vn 0 1 0

# texcoords
vt 0.0292969 0.5
vt 0.662109 0.5
vt 0.732422 0.5
vt 0.794922 0.5
vt 0.939453 0.5
vt 0.970703 0.5
vt 0.978516 0.5

# verts
v -7 10 1
v -7 10 -1
v -7 11 1
v -7 11 -1
v -6 8 2
v -6 8 -1
v -6 9 2
v -6 9 1
v -6 10 1
v -6 10 -1
v -3 0 2
v -3 0 -1
v -3 1 2
v -3 1 1
v -3 1 -1
v -3 4 1
v -3 4 -1
v -2 4 1
v -2 4 -1
v -2 8 1
v -2 8 -1
v -2 10 2
v -2 10 -1
v -2 10 -2
v -2 12 2
v -2 12 1
v -2 12 -0
v -2 12 -1
v -2 13 2
v -2 13 1
v -2 13 -0
v -2 14 2
v -2 14 -2
v -1 9 1
v -1 9 -1
v -1 10 1
v -1 10 -1
v -1 13 -2
v -1 13 -3
v -1 14 -1
v -1 14 -2
v -1 14 -3
v -1 15 -1
v -1 15 -2
v 1 0 2
v 1 0 -1
v 1 1 2
v 1 1 1
v 1 1 -1
v 1 3 1
v 1 3 -1
v 5 8 2
v 5 8 1
v 5 9 2
v 5 9 1
v 5 9 -1
v 5 11 1
v 5 11 -1
v -5 8 2
v -5 8 1
v -5 9 2
v -5 9 1
v -5 9 -1
v -5 11 1
v -5 11 -1
v -1 0 2
v -1 0 -1
v -1 1 2
v -1 1 1
v -1 1 -1
v -1 3 1
v -1 3 -1
v 1 9 1
v 1 9 -1
v 1 10 1
v 1 10 -1
v 1 13 -2
v 1 13 -3
v 1 14 -1
v 1 14 -2
v 1 14 -3
v 1 15 -1
v 1 15 -2
v 2 4 1
v 2 4 -1
v 2 8 1
v 2 8 -1
v 2 10 2
v 2 10 -1
v 2 10 -2
v 2 12 2
v 2 12 1
v 2 12 -0
v 2 12 -1
v 2 13 2
v 2 13 1
v 2 13 -0
v 2 14 2
v 2 14 -2
v 3 0 2
v 3 0 -1
v 3 1 2
v 3 1 1
v 3 1 -1
v 3 4 1
v 3 4 -1
v 6 8 2
v 6 8 -1
v 6 9 2
v 6 9 1
v 6 10 1
v 6 10 -1
v 7 10 1
v 7 10 -1
v 7 11 1
v 7 11 -1
v -6 8 2
v -6 9 2
v -5 8 2
v -5 9 2
v -3 0 2
v -3 1 2
v -2 10 2
v -2 12 2
v -2 13 2
v -2 14 2
v -1 0 2
v -1 1 2
v -1 10 2
v -1 11 2
v -1 12 2
v -1 13 2
v 1 0 2
v 1 1 2
v 1 10 2
v 1 11 2
v 1 12 2
v 1 13 2
v 2 10 2
v 2 12 2
v 2 13 2
v 2 14 2
v 3 0 2
v 3 1 2
v 5 8 2
v 5 9 2
v 6 8 2
v 6 9 2
v -7 10 1
v -7 11 1
v -6 9 1
v -6 10 1
v -5 8 1
v -5 9 1
v -5 11 1
v -4 8 1
v -4 9 1
v -3 1 1
v -3 4 1
v -2 4 1
v -2 8 1
v -1 1 1
v -1 3 1
v -1 9 1
v -1 10 1
v 1 1 1
v 1 3 1
v 1 9 1
v 1 10 1
v 2 4 1
v 2 8 1
v 3 1 1
v 3 4 1
v 4 8 1
v 4 9 1
v 5 8 1
v 5 9 1
v 5 11 1
v 6 9 1
v 6 10 1
v 7 10 1
v 7 11 1
v -1 14 -1
v -1 15 -1
v 1 14 -1
v 1 15 -1
v -7 10 -1
v -7 11 -1
v -6 8 -1
v -6 10 -1
v -5 9 -1
v -5 11 -1
v -4 8 -1
v -4 9 -1
v -3 0 -1
v -3 1 -1
v -3 4 -1
v -2 4 -1
v -2 8 -1
v -1 0 -1
v -1 1 -1
v -1 3 -1
v -1 9 -1
v -1 10 -1
v 1 0 -1
v 1 1 -1
v 1 3 -1
v 1 9 -1
v 1 10 -1
v 2 4 -1
v 2 8 -1
v 3 0 -1
v 3 1 -1
v 3 4 -1
v 4 8 -1
v 4 9 -1
v 5 9 -1
v 5 11 -1
v 6 8 -1
v 6 10 -1
v 7 10 -1
v 7 11 -1
v -2 10 -2
v -2 14 -2
v -1 13 -2
v -1 14 -2
v -1 15 -2
v 1 13 -2
v 1 14 -2
v 1 15 -2
v 2 10 -2
v 2 14 -2
v -1 13 -3
v -1 14 -3
v 1 13 -3
v 1 14 -3
v -3 0 2
v -1 0 2
v 1 0 2
v 3 0 2
v -3 0 -1
v -1 0 -1
v 1 0 -1
v 3 0 -1
v -1 3 1
v 1 3 1
v -1 3 -1
v 1 3 -1
v -6 8 2
v -5 8 2
v 5 8 2
v 6 8 2
v -5 8 1
v -4 8 1
v -2 8 1
v 2 8 1
v 4 8 1
v 5 8 1
v -6 8 -1
v -4 8 -1
v -2 8 -1
v 2 8 -1
v 4 8 -1
v 6 8 -1
v -2 10 2
v -1 10 2
v 1 10 2
v 2 10 2
v -7 10 1
v -6 10 1
v -1 10 1
v 1 10 1
v 6 10 1
v 7 10 1
v -7 10 -1
v -6 10 -1
v -2 10 -1
v -1 10 -1
v 1 10 -1
v 2 10 -1
v 6 10 -1
v 7 10 -1
v -2 10 -2
v 2 10 -2
v -1 13 -2
v 1 13 -2
v -1 13 -3
v 1 13 -3
v -3 1 2
v -1 1 2
v 1 1 2
v 3 1 2
v -3 1 1
v -1 1 1
v 1 1 1
v 3 1 1
v -3 4 1
v -2 4 1
v 2 4 1
v 3 4 1
v -3 4 -1
v -2 4 -1
v 2 4 -1
v 3 4 -1
v -6 9 2
v -5 9 2
v 5 9 2
v 6 9 2
v -6 9 1
v -5 9 1
v -4 9 1
v -1 9 1
v 1 9 1
v 4 9 1
v 5 9 1
v 6 9 1
v -5 9 -1
v -4 9 -1
v -1 9 -1
v 1 9 -1
v 4 9 -1
v 5 9 -1
v -7 11 1
v -5 11 1
v 5 11 1
v 7 11 1
v -7 11 -1
v -5 11 -1
v 5 11 -1
v 7 11 -1
v -2 14 2
v 2 14 2
v -1 14 -1
v 1 14 -1
v -2 14 -2
v -1 14 -2
v 1 14 -2
v 2 14 -2
v -1 14 -3
v 1 14 -3
v -1 15 -1
v 1 15 -1
v -1 15 -2
v 1 15 -2

# faces
f 3/6/1 2/6/1 1/6/1
f 4/6/1 2/6/1 3/6/1
f 7/6/1 6/6/1 5/6/1
f 8/6/1 6/6/1 7/6/1
f 9/6/1 6/6/1 8/6/1
f 10/6/1 6/6/1 9/6/1
f 13/4/1 12/4/1 11/4/1
f 14/4/1 12/4/1 13/4/1
f 15/4/1 12/4/1 14/4/1
f 16/3/1 15/3/1 14/3/1
f 17/3/1 15/3/1 16/3/1
f 20/2/1 19/2/1 18/2/1
f 21/2/1 19/2/1 20/2/1
f 25/6/1 23/6/1 22/6/1
f 26/6/1 23/6/1 25/6/1
f 27/6/1 23/6/1 26/6/1
f 28/3/1 24/3/1 23/3/1
f 28/6/1 23/6/1 27/6/1
f 29/7/1 26/7/1 25/7/1
f 30/6/1 27/6/1 26/6/1
f 30/7/1 26/7/1 29/7/1
f 31/3/1 28/3/1 27/3/1
f 31/6/1 27/6/1 30/6/1
f 32/3/1 30/3/1 29/3/1
f 32/3/1 31/3/1 30/3/1
f 33/3/1 24/3/1 28/3/1
f 33/3/1 31/3/1 32/3/1
f 33/3/1 28/3/1 31/3/1
f 36/6/1 35/6/1 34/6/1
f 37/6/1 35/6/1 36/6/1
f 41/3/1 39/3/1 38/3/1
f 42/3/1 39/3/1 41/3/1
f 43/3/1 41/3/1 40/3/1
f 44/3/1 41/3/1 43/3/1
f 47/4/1 46/4/1 45/4/1
f 48/4/1 46/4/1 47/4/1
f 49/4/1 46/4/1 48/4/1
f 50/3/1 49/3/1 48/3/1
f 51/3/1 49/3/1 50/3/1
f 54/6/1 53/6/1 52/6/1
f 55/6/1 53/6/1 54/6/1
f 57/6/1 56/6/1 55/6/1
f 58/6/1 56/6/1 57/6/1
f 59/6/2 60/6/2 61/6/2
f 61/6/2 60/6/2 62/6/2
f 62/6/2 63/6/2 64/6/2
f 64/6/2 63/6/2 65/6/2
f 66/4/2 67/4/2 68/4/2
f 68/4/2 67/4/2 69/4/2
f 69/4/2 67/4/2 70/4/2
f 69/3/2 70/3/2 71/3/2
f 71/3/2 70/3/2 72/3/2
f 73/6/2 74/6/2 75/6/2
f 75/6/2 74/6/2 76/6/2
f 77/3/2 78/3/2 80/3/2
f 80/3/2 78/3/2 81/3/2
f 79/3/2 80/3/2 82/3/2
f 82/3/2 80/3/2 83/3/2
f 84/2/2 85/2/2 86/2/2
f 86/2/2 85/2/2 87/2/2
f 88/6/2 89/6/2 91/6/2
f 91/6/2 89/6/2 92/6/2
f 92/6/2 89/6/2 93/6/2
f 89/3/2 90/3/2 94/3/2
f 93/6/2 89/6/2 94/6/2
f 91/7/2 92/7/2 95/7/2
f 92/6/2 93/6/2 96/6/2
f 95/7/2 92/7/2 96/7/2
f 93/3/2 94/3/2 97/3/2
f 96/6/2 93/6/2 97/6/2
f 95/3/2 96/3/2 98/3/2
f 96/3/2 97/3/2 98/3/2
f 94/3/2 90/3/2 99/3/2
f 98/3/2 97/3/2 99/3/2
f 97/3/2 94/3/2 99/3/2
f 100/4/2 101/4/2 102/4/2
f 102/4/2 101/4/2 103/4/2
f 103/4/2 101/4/2 104/4/2
f 103/3/2 104/3/2 105/3/2
f 105/3/2 104/3/2 106/3/2
f 107/6/2 108/6/2 109/6/2
f 109/6/2 108/6/2 110/6/2
f 110/6/2 108/6/2 111/6/2
f 111/6/2 108/6/2 112/6/2
f 113/6/2 114/6/2 115/6/2
f 115/6/2 114/6/2 116/6/2
f 119/6/3 118/6/3 117/6/3
f 120/6/3 118/6/3 119/6/3
f 127/4/3 122/4/3 121/4/3
f 128/4/3 122/4/3 127/4/3
f 129/6/3 124/6/3 123/6/3
f 130/6/3 124/6/3 129/6/3
f 131/7/3 125/7/3 124/7/3
f 131/6/3 124/6/3 130/6/3
f 132/3/3 126/3/3 125/3/3
f 132/7/3 125/7/3 131/7/3
f 135/5/3 130/5/3 129/5/3
f 136/6/3 131/6/3 130/6/3
f 136/5/3 130/5/3 135/5/3
f 136/6/3 132/6/3 131/6/3
f 137/6/3 132/6/3 136/6/3
f 138/3/3 126/3/3 132/3/3
f 138/6/3 132/6/3 137/6/3
f 139/6/3 137/6/3 136/6/3
f 139/6/3 136/6/3 135/6/3
f 140/7/3 138/7/3 137/7/3
f 140/6/3 137/6/3 139/6/3
f 141/3/3 126/3/3 138/3/3
f 141/7/3 138/7/3 140/7/3
f 142/3/3 126/3/3 141/3/3
f 143/4/3 134/4/3 133/4/3
f 144/4/3 134/4/3 143/4/3
f 147/6/3 146/6/3 145/6/3
f 148/6/3 146/6/3 147/6/3
f 152/6/3 150/6/3 149/6/3
f 154/6/3 152/6/3 151/6/3
f 155/6/3 150/6/3 152/6/3
f 155/6/3 152/6/3 154/6/3
f 156/6/3 154/6/3 153/6/3
f 157/6/3 154/6/3 156/6/3
f 160/3/3 159/3/3 158/3/3
f 161/2/3 157/2/3 156/2/3
f 162/3/3 160/3/3 158/3/3
f 163/3/3 160/3/3 162/3/3
f 164/2/3 161/2/3 160/2/3
f 164/2/3 157/2/3 161/2/3
f 167/3/3 160/3/3 163/3/3
f 168/2/3 164/2/3 160/2/3
f 168/6/3 165/6/3 164/6/3
f 169/6/3 165/6/3 168/6/3
f 170/3/3 167/3/3 166/3/3
f 170/3/3 160/3/3 167/3/3
f 170/2/3 168/2/3 160/2/3
f 171/2/3 168/2/3 170/2/3
f 172/3/3 170/3/3 166/3/3
f 173/3/3 170/3/3 172/3/3
f 174/2/3 168/2/3 171/2/3
f 175/2/3 168/2/3 174/2/3
f 176/6/3 175/6/3 174/6/3
f 177/6/3 175/6/3 176/6/3
f 179/6/3 178/6/3 177/6/3
f 180/6/3 178/6/3 179/6/3
f 181/6/3 178/6/3 180/6/3
f 182/6/3 178/6/3 181/6/3
f 185/3/3 184/3/3 183/3/3
f 186/3/3 184/3/3 185/3/3
f 187/6/4 188/6/4 190/6/4
f 189/6/4 190/6/4 191/6/4
f 190/6/4 188/6/4 192/6/4
f 191/6/4 190/6/4 192/6/4
f 189/6/4 191/6/4 193/6/4
f 193/6/4 191/6/4 194/6/4
f 196/3/4 197/3/4 198/3/4
f 193/2/4 194/2/4 199/2/4
f 195/4/4 196/4/4 200/4/4
f 196/3/4 198/3/4 201/3/4
f 200/4/4 196/4/4 201/4/4
f 201/3/4 198/3/4 202/3/4
f 198/2/4 199/2/4 203/2/4
f 199/2/4 194/2/4 203/2/4
f 202/3/4 198/3/4 207/3/4
f 198/2/4 203/2/4 208/2/4
f 203/6/4 204/6/4 208/6/4
f 208/6/4 204/6/4 209/6/4
f 206/3/4 207/3/4 210/3/4
f 207/3/4 198/3/4 210/3/4
f 198/2/4 208/2/4 210/2/4
f 210/2/4 208/2/4 211/2/4
f 205/4/4 206/4/4 212/4/4
f 206/3/4 210/3/4 213/3/4
f 212/4/4 206/4/4 213/4/4
f 213/3/4 210/3/4 214/3/4
f 211/2/4 208/2/4 215/2/4
f 215/2/4 208/2/4 216/2/4
f 215/6/4 216/6/4 217/6/4
f 215/6/4 217/6/4 219/6/4
f 217/6/4 218/6/4 219/6/4
f 219/6/4 218/6/4 220/6/4
f 220/6/4 218/6/4 221/6/4
f 221/6/4 218/6/4 222/6/4
f 223/3/4 224/3/4 225/3/4
f 225/3/4 224/3/4 226/3/4
f 223/3/4 225/3/4 228/3/4
f 226/3/4 227/3/4 229/3/4
f 229/3/4 227/3/4 230/3/4
f 223/3/4 228/3/4 231/3/4
f 228/3/4 229/3/4 231/3/4
f 231/3/4 229/3/4 232/3/4
f 233/3/4 234/3/4 235/3/4
f 235/3/4 234/3/4 236/3/4
f 241/4/5 238/4/5 237/4/5
f 242/4/5 238/4/5 241/4/5
f 243/4/5 240/4/5 239/4/5
f 244/4/5 240/4/5 243/4/5
f 247/3/5 246/3/5 245/3/5
f 248/3/5 246/3/5 247/3/5
f 253/6/5 250/6/5 249/6/5
f 258/6/5 252/6/5 251/6/5
f 259/6/5 253/6/5 249/6/5
f 259/6/5 254/6/5 253/6/5
f 260/2/5 255/2/5 254/2/5
f 260/6/5 254/6/5 259/6/5
f 261/2/5 255/2/5 260/2/5
f 262/2/5 257/2/5 256/2/5
f 263/6/5 258/6/5 257/6/5
f 263/2/5 257/2/5 262/2/5
f 264/6/5 252/6/5 258/6/5
f 264/6/5 258/6/5 263/6/5
f 271/6/5 266/6/5 265/6/5
f 271/5/5 267/5/5 266/5/5
f 272/6/5 268/6/5 267/6/5
f 272/5/5 267/5/5 271/5/5
f 275/6/5 270/6/5 269/6/5
f 276/6/5 270/6/5 275/6/5
f 277/6/5 271/6/5 265/6/5
f 278/6/5 271/6/5 277/6/5
f 279/6/5 268/6/5 272/6/5
f 280/6/5 268/6/5 279/6/5
f 281/6/5 274/6/5 273/6/5
f 282/6/5 274/6/5 281/6/5
f 283/3/5 280/3/5 279/3/5
f 283/3/5 278/3/5 277/3/5
f 283/3/5 279/3/5 278/3/5
f 284/3/5 280/3/5 283/3/5
f 287/3/5 286/3/5 285/3/5
f 288/3/5 286/3/5 287/3/5
f 289/4/6 290/4/6 293/4/6
f 293/4/6 290/4/6 294/4/6
f 291/4/6 292/4/6 295/4/6
f 295/4/6 292/4/6 296/4/6
f 297/3/6 298/3/6 301/3/6
f 301/3/6 298/3/6 302/3/6
f 299/3/6 300/3/6 303/3/6
f 303/3/6 300/3/6 304/3/6
f 305/6/6 306/6/6 309/6/6
f 309/6/6 306/6/6 310/6/6
f 307/6/6 308/6/6 315/6/6
f 315/6/6 308/6/6 316/6/6
f 310/6/6 311/6/6 317/6/6
f 311/2/6 312/2/6 318/2/6
f 317/6/6 311/6/6 318/6/6
f 318/2/6 312/2/6 319/2/6
f 313/2/6 314/2/6 320/2/6
f 314/6/6 315/6/6 321/6/6
f 320/2/6 314/2/6 321/2/6
f 321/6/6 315/6/6 322/6/6
f 323/6/6 324/6/6 327/6/6
f 327/6/6 324/6/6 328/6/6
f 325/6/6 326/6/6 329/6/6
f 329/6/6 326/6/6 330/6/6
f 331/3/6 332/3/6 333/3/6
f 333/3/6 332/3/6 334/3/6
f 331/3/6 333/3/6 335/3/6
f 335/3/6 333/3/6 336/3/6
f 334/3/6 332/3/6 337/3/6
f 337/3/6 332/3/6 338/3/6
f 336/3/6 337/3/6 339/3/6
f 339/3/6 337/3/6 340/3/6
f 341/3/6 342/3/6 343/3/6
f 343/3/6 342/3/6 344/3/6
