# MagicaVoxel @ Ephtracy

# material
mtllib Character Model Ariel.mtl
usemtl palette

# normals
vn -1 0 0
vn 1 0 0
vn 0 0 1
vn 0 0 -1
vn 0 -1 0
vn 0 1 0

# texcoords
vt 0.0292969 0.5
vt 0.826172 0.5
vt 0.837891 0.5
vt 0.939453 0.5
vt 0.947266 0.5
vt 0.970703 0.5
vt 0.978516 0.5
vt 0.986328 0.5

# verts
v -7 10 1
v -7 10 -1
v -7 11 1
v -7 11 -1
v -6 8 2
v -6 8 -1
v -6 9 2
v -6 9 1
v -6 10 1
v -6 10 -1
v -3 0 2
v -3 0 -1
v -3 1 2
v -3 1 1
v -3 1 -1
v -3 4 1
v -3 4 -1
v -3 8 -1
v -3 8 -2
v -3 9 -0
v -3 9 -1
v -3 11 1
v -3 11 -0
v -3 13 2
v -3 13 1
v -3 14 2
v -3 14 -2
v -2 4 1
v -2 4 -1
v -2 6 -2
v -2 6 -3
v -2 7 -1
v -2 7 -2
v -2 8 1
v -2 8 -1
v -2 8 -2
v -2 10 2
v -2 10 -0
v -2 11 1
v -2 11 -0
v -2 12 2
v -2 12 1
v -2 13 3
v -2 13 2
v -2 13 1
v -2 14 3
v -2 14 2
v -2 14 -2
v -2 14 -3
v -2 15 2
v -2 15 -2
v -1 5 -2
v -1 5 -3
v -1 6 -1
v -1 6 -2
v -1 6 -3
v -1 7 -1
v -1 7 -2
v -1 9 1
v -1 9 -0
v -1 10 1
v -1 10 -0
v 1 0 2
v 1 0 -1
v 1 1 2
v 1 1 1
v 1 1 -1
v 1 3 1
v 1 3 -1
v 1 8 -1
v 1 8 -2
v 1 9 -1
v 1 9 -2
v 2 9 -1
v 2 9 -2
v 2 10 -1
v 2 10 -2
v 5 8 2
v 5 8 1
v 5 9 2
v 5 9 1
v 5 9 -1
v 5 11 1
v 5 11 -1
v -5 8 2
v -5 8 1
v -5 9 2
v -5 9 1
v -5 9 -1
v -5 11 1
v -5 11 -1
v -2 9 -1
v -2 9 -2
v -2 10 -1
v -2 10 -2
v -1 0 2
v -1 0 -1
v -1 1 2
v -1 1 1
v -1 1 -1
v -1 3 1
v -1 3 -1
v -1 8 -1
v -1 8 -2
v -1 9 -1
v -1 9 -2
v 1 5 -2
v 1 5 -3
v 1 6 -1
v 1 6 -2
v 1 6 -3
v 1 7 -1
v 1 7 -2
v 1 9 1
v 1 9 -0
v 1 10 1
v 1 10 -0
v 2 4 1
v 2 4 -1
v 2 6 -2
v 2 6 -3
v 2 7 -1
v 2 7 -2
v 2 8 1
v 2 8 -1
v 2 8 -2
v 2 10 2
v 2 10 -0
v 2 11 1
v 2 11 -0
v 2 12 2
v 2 12 1
v 2 13 3
v 2 13 2
v 2 13 1
v 2 14 3
v 2 14 2
v 2 14 -2
v 2 14 -3
v 2 15 2
v 2 15 -2
v 3 0 2
v 3 0 -1
v 3 1 2
v 3 1 1
v 3 1 -1
v 3 4 1
v 3 4 -1
v 3 8 -1
v 3 8 -2
v 3 9 -0
v 3 9 -1
v 3 11 1
v 3 11 -0
v 3 13 2
v 3 13 1
v 3 14 2
v 3 14 -2
v 6 8 2
v 6 8 -1
v 6 9 2
v 6 9 1
v 6 10 1
v 6 10 -1
v 7 10 1
v 7 10 -1
v 7 11 1
v 7 11 -1
v -2 13 3
v -2 14 3
v 2 13 3
v 2 14 3
v -6 8 2
v -6 9 2
v -5 8 2
v -5 9 2
v -3 0 2
v -3 1 2
v -3 13 2
v -3 14 2
v -2 10 2
v -2 12 2
v -2 13 2
v -2 14 2
v -2 15 2
v -1 0 2
v -1 1 2
v -1 10 2
v -1 11 2
v -1 12 2
v -1 13 2
v 1 0 2
v 1 1 2
v 1 10 2
v 1 11 2
v 1 12 2
v 1 13 2
v 2 10 2
v 2 12 2
v 2 13 2
v 2 14 2
v 2 15 2
v 3 0 2
v 3 1 2
v 3 13 2
v 3 14 2
v 5 8 2
v 5 9 2
v 6 8 2
v 6 9 2
v -7 10 1
v -7 11 1
v -6 9 1
v -6 10 1
v -5 8 1
v -5 9 1
v -5 11 1
v -4 8 1
v -4 9 1
v -3 1 1
v -3 4 1
v -3 11 1
v -3 13 1
v -2 4 1
v -2 8 1
v -2 11 1
v -2 12 1
v -2 13 1
v -1 1 1
v -1 3 1
v -1 8 1
v -1 9 1
v -1 10 1
v 1 1 1
v 1 3 1
v 1 8 1
v 1 9 1
v 1 10 1
v 2 4 1
v 2 8 1
v 2 11 1
v 2 12 1
v 2 13 1
v 3 1 1
v 3 4 1
v 3 11 1
v 3 13 1
v 4 8 1
v 4 9 1
v 5 8 1
v 5 9 1
v 5 11 1
v 6 9 1
v 6 10 1
v 7 10 1
v 7 11 1
v -3 9 -0
v -3 11 -0
v -2 9 -0
v -2 10 -0
v -2 11 -0
v -1 9 -0
v -1 10 -0
v 1 9 -0
v 1 10 -0
v 2 9 -0
v 2 10 -0
v 2 11 -0
v 3 9 -0
v 3 11 -0
v -2 6 -2
v -2 7 -2
v -2 9 -2
v -2 10 -2
v -1 5 -2
v -1 6 -2
v -1 7 -2
v -1 8 -2
v -1 9 -2
v 1 5 -2
v 1 6 -2
v 1 7 -2
v 1 8 -2
v 1 9 -2
v 2 6 -2
v 2 7 -2
v 2 9 -2
v 2 10 -2
v -7 10 -1
v -7 11 -1
v -6 8 -1
v -6 10 -1
v -5 9 -1
v -5 11 -1
v -4 8 -1
v -4 9 -1
v -3 0 -1
v -3 1 -1
v -3 4 -1
v -3 8 -1
v -3 9 -1
v -2 4 -1
v -2 7 -1
v -2 9 -1
v -2 10 -1
v -1 0 -1
v -1 1 -1
v -1 3 -1
v -1 6 -1
v -1 7 -1
v -1 8 -1
v -1 9 -1
v -1 10 -1
v 1 0 -1
v 1 1 -1
v 1 3 -1
v 1 6 -1
v 1 7 -1
v 1 8 -1
v 1 9 -1
v 1 10 -1
v 2 4 -1
v 2 7 -1
v 2 9 -1
v 2 10 -1
v 3 0 -1
v 3 1 -1
v 3 4 -1
v 3 8 -1
v 3 9 -1
v 4 8 -1
v 4 9 -1
v 5 9 -1
v 5 11 -1
v 6 8 -1
v 6 10 -1
v 7 10 -1
v 7 11 -1
v -3 8 -2
v -3 14 -2
v -2 8 -2
v -2 14 -2
v -2 15 -2
v 2 8 -2
v 2 14 -2
v 2 15 -2
v 3 8 -2
v 3 14 -2
v -2 6 -3
v -2 14 -3
v -1 5 -3
v -1 6 -3
v 1 5 -3
v 1 6 -3
v 2 6 -3
v 2 14 -3
v -3 0 2
v -1 0 2
v 1 0 2
v 3 0 2
v -3 0 -1
v -1 0 -1
v 1 0 -1
v 3 0 -1
v -1 3 1
v 1 3 1
v -1 3 -1
v 1 3 -1
v -1 5 -2
v 1 5 -2
v -1 5 -3
v 1 5 -3
v -1 6 -1
v 1 6 -1
v -2 6 -2
v -1 6 -2
v 1 6 -2
v 2 6 -2
v -2 6 -3
v -1 6 -3
v 1 6 -3
v 2 6 -3
v -2 7 -1
v -1 7 -1
v 1 7 -1
v 2 7 -1
v -2 7 -2
v -1 7 -2
v 1 7 -2
v 2 7 -2
v -6 8 2
v -5 8 2
v 5 8 2
v 6 8 2
v -5 8 1
v -4 8 1
v -2 8 1
v 2 8 1
v 4 8 1
v 5 8 1
v -6 8 -1
v -4 8 -1
v -3 8 -1
v -2 8 -1
v 2 8 -1
v 3 8 -1
v 4 8 -1
v 6 8 -1
v -3 8 -2
v -2 8 -2
v 2 8 -2
v 3 8 -2
v -2 10 2
v -1 10 2
v 1 10 2
v 2 10 2
v -7 10 1
v -6 10 1
v -1 10 1
v 1 10 1
v 6 10 1
v 7 10 1
v -2 10 -0
v -1 10 -0
v 1 10 -0
v 2 10 -0
v -7 10 -1
v -6 10 -1
v -2 10 -1
v -1 10 -1
v 1 10 -1
v 2 10 -1
v 6 10 -1
v 7 10 -1
v -2 10 -2
v 2 10 -2
v -3 11 1
v -2 11 1
v 2 11 1
v 3 11 1
v -3 11 -0
v -2 11 -0
v 2 11 -0
v 3 11 -0
v -2 13 3
v 2 13 3
v -3 13 2
v -2 13 2
v -1 13 2
v 1 13 2
v 2 13 2
v 3 13 2
v -3 13 1
v -2 13 1
v 2 13 1
v 3 13 1
v -3 1 2
v -1 1 2
v 1 1 2
v 3 1 2
v -3 1 1
v -1 1 1
v 1 1 1
v 3 1 1
v -3 4 1
v -2 4 1
v 2 4 1
v 3 4 1
v -3 4 -1
v -2 4 -1
v 2 4 -1
v 3 4 -1
v -1 8 -1
v 1 8 -1
v -1 8 -2
v 1 8 -2
v -6 9 2
v -5 9 2
v 5 9 2
v 6 9 2
v -6 9 1
v -5 9 1
v -4 9 1
v -1 9 1
v 1 9 1
v 4 9 1
v 5 9 1
v 6 9 1
v -3 9 -0
v -2 9 -0
v -1 9 -0
v 1 9 -0
v 2 9 -0
v 3 9 -0
v -5 9 -1
v -4 9 -1
v -3 9 -1
v -2 9 -1
v -1 9 -1
v 1 9 -1
v 2 9 -1
v 3 9 -1
v 4 9 -1
v 5 9 -1
v -2 9 -2
v -1 9 -2
v 1 9 -2
v 2 9 -2
v -7 11 1
v -5 11 1
v 5 11 1
v 7 11 1
v -7 11 -1
v -5 11 -1
v 5 11 -1
v 7 11 -1
v -2 14 3
v 2 14 3
v -3 14 2
v -2 14 2
v 2 14 2
v 3 14 2
v -3 14 -2
v -2 14 -2
v 2 14 -2
v 3 14 -2
v -2 14 -3
v 2 14 -3
v -2 15 2
v 2 15 2
v -2 15 -2
v 2 15 -2

# faces
f 3/6/1 2/6/1 1/6/1
f 4/6/1 2/6/1 3/6/1
f 7/6/1 6/6/1 5/6/1
f 8/6/1 6/6/1 7/6/1
f 9/6/1 6/6/1 8/6/1
f 10/6/1 6/6/1 9/6/1
f 13/2/1 12/2/1 11/2/1
f 14/2/1 12/2/1 13/2/1
f 15/2/1 12/2/1 14/2/1
f 16/5/1 15/5/1 14/5/1
f 17/5/1 15/5/1 16/5/1
f 21/2/1 19/2/1 18/2/1
f 23/2/1 21/2/1 20/2/1
f 25/2/1 23/2/1 22/2/1
f 26/2/1 25/2/1 24/2/1
f 27/2/1 19/2/1 21/2/1
f 27/2/1 25/2/1 26/2/1
f 27/2/1 21/2/1 23/2/1
f 27/2/1 23/2/1 25/2/1
f 32/3/1 29/3/1 28/3/1
f 33/2/1 31/2/1 30/2/1
f 34/3/1 32/3/1 28/3/1
f 34/3/1 33/3/1 32/3/1
f 35/3/1 33/3/1 34/3/1
f 36/2/1 31/2/1 33/2/1
f 36/3/1 33/3/1 35/3/1
f 39/6/1 38/6/1 37/6/1
f 40/6/1 38/6/1 39/6/1
f 41/6/1 39/6/1 37/6/1
f 42/6/1 39/6/1 41/6/1
f 44/7/1 42/7/1 41/7/1
f 45/7/1 42/7/1 44/7/1
f 46/2/1 44/2/1 43/2/1
f 47/2/1 44/2/1 46/2/1
f 48/2/1 31/2/1 36/2/1
f 49/2/1 31/2/1 48/2/1
f 50/2/1 48/2/1 47/2/1
f 51/2/1 48/2/1 50/2/1
f 55/2/1 53/2/1 52/2/1
f 56/2/1 53/2/1 55/2/1
f 57/3/1 55/3/1 54/3/1
f 58/3/1 55/3/1 57/3/1
f 61/6/1 60/6/1 59/6/1
f 62/6/1 60/6/1 61/6/1
f 65/2/1 64/2/1 63/2/1
f 66/2/1 64/2/1 65/2/1
f 67/2/1 64/2/1 66/2/1
f 68/5/1 67/5/1 66/5/1
f 69/5/1 67/5/1 68/5/1
f 72/3/1 71/3/1 70/3/1
f 73/3/1 71/3/1 72/3/1
f 76/2/1 75/2/1 74/2/1
f 77/2/1 75/2/1 76/2/1
f 80/6/1 79/6/1 78/6/1
f 81/6/1 79/6/1 80/6/1
f 83/6/1 82/6/1 81/6/1
f 84/6/1 82/6/1 83/6/1
f 85/6/2 86/6/2 87/6/2
f 87/6/2 86/6/2 88/6/2
f 88/6/2 89/6/2 90/6/2
f 90/6/2 89/6/2 91/6/2
f 92/2/2 93/2/2 94/2/2
f 94/2/2 93/2/2 95/2/2
f 96/2/2 97/2/2 98/2/2
f 98/2/2 97/2/2 99/2/2
f 99/2/2 97/2/2 100/2/2
f 99/5/2 100/5/2 101/5/2
f 101/5/2 100/5/2 102/5/2
f 103/3/2 104/3/2 105/3/2
f 105/3/2 104/3/2 106/3/2
f 107/2/2 108/2/2 110/2/2
f 110/2/2 108/2/2 111/2/2
f 109/3/2 110/3/2 112/3/2
f 112/3/2 110/3/2 113/3/2
f 114/6/2 115/6/2 116/6/2
f 116/6/2 115/6/2 117/6/2
f 118/3/2 119/3/2 122/3/2
f 120/2/2 121/2/2 123/2/2
f 118/3/2 122/3/2 124/3/2
f 122/3/2 123/3/2 124/3/2
f 124/3/2 123/3/2 125/3/2
f 123/2/2 121/2/2 126/2/2
f 125/3/2 123/3/2 126/3/2
f 127/6/2 128/6/2 129/6/2
f 129/6/2 128/6/2 130/6/2
f 127/6/2 129/6/2 131/6/2
f 131/6/2 129/6/2 132/6/2
f 131/7/2 132/7/2 134/7/2
f 134/7/2 132/7/2 135/7/2
f 133/2/2 134/2/2 136/2/2
f 136/2/2 134/2/2 137/2/2
f 126/2/2 121/2/2 138/2/2
f 138/2/2 121/2/2 139/2/2
f 137/2/2 138/2/2 140/2/2
f 140/2/2 138/2/2 141/2/2
f 142/2/2 143/2/2 144/2/2
f 144/2/2 143/2/2 145/2/2
f 145/2/2 143/2/2 146/2/2
f 145/5/2 146/5/2 147/5/2
f 147/5/2 146/5/2 148/5/2
f 149/2/2 150/2/2 152/2/2
f 151/2/2 152/2/2 154/2/2
f 153/2/2 154/2/2 156/2/2
f 155/2/2 156/2/2 157/2/2
f 152/2/2 150/2/2 158/2/2
f 157/2/2 156/2/2 158/2/2
f 154/2/2 152/2/2 158/2/2
f 156/2/2 154/2/2 158/2/2
f 159/6/2 160/6/2 161/6/2
f 161/6/2 160/6/2 162/6/2
f 162/6/2 160/6/2 163/6/2
f 163/6/2 160/6/2 164/6/2
f 165/6/2 166/6/2 167/6/2
f 167/6/2 166/6/2 168/6/2
f 171/2/3 170/2/3 169/2/3
f 172/2/3 170/2/3 171/2/3
f 175/6/3 174/6/3 173/6/3
f 176/6/3 174/6/3 175/6/3
f 183/2/3 180/2/3 179/2/3
f 184/2/3 180/2/3 183/2/3
f 186/2/3 178/2/3 177/2/3
f 187/2/3 178/2/3 186/2/3
f 188/6/3 182/6/3 181/6/3
f 189/6/3 182/6/3 188/6/3
f 190/7/3 183/7/3 182/7/3
f 190/6/3 182/6/3 189/6/3
f 191/7/3 183/7/3 190/7/3
f 194/4/3 189/4/3 188/4/3
f 195/6/3 190/6/3 189/6/3
f 195/4/3 189/4/3 194/4/3
f 195/6/3 191/6/3 190/6/3
f 196/6/3 191/6/3 195/6/3
f 197/6/3 191/6/3 196/6/3
f 198/6/3 195/6/3 194/6/3
f 198/6/3 196/6/3 195/6/3
f 199/7/3 197/7/3 196/7/3
f 199/6/3 196/6/3 198/6/3
f 200/7/3 197/7/3 199/7/3
f 201/2/3 185/2/3 184/2/3
f 202/2/3 185/2/3 201/2/3
f 203/2/3 193/2/3 192/2/3
f 204/2/3 193/2/3 203/2/3
f 205/2/3 201/2/3 200/2/3
f 206/2/3 201/2/3 205/2/3
f 209/6/3 208/6/3 207/6/3
f 210/6/3 208/6/3 209/6/3
f 214/6/3 212/6/3 211/6/3
f 216/6/3 214/6/3 213/6/3
f 217/6/3 212/6/3 214/6/3
f 217/6/3 214/6/3 216/6/3
f 218/6/3 216/6/3 215/6/3
f 219/6/3 216/6/3 218/6/3
f 224/5/3 221/5/3 220/5/3
f 225/3/3 219/3/3 218/3/3
f 226/2/3 223/2/3 222/2/3
f 227/2/3 223/2/3 226/2/3
f 228/2/3 223/2/3 227/2/3
f 229/5/3 224/5/3 220/5/3
f 230/5/3 224/5/3 229/5/3
f 231/3/3 225/3/3 224/3/3
f 231/3/3 219/3/3 225/3/3
f 232/3/3 219/3/3 231/3/3
f 235/5/3 224/5/3 230/5/3
f 236/8/3 232/8/3 231/8/3
f 236/3/3 231/3/3 224/3/3
f 237/6/3 233/6/3 232/6/3
f 237/8/3 232/8/3 236/8/3
f 238/6/3 233/6/3 237/6/3
f 239/5/3 235/5/3 234/5/3
f 239/3/3 236/3/3 224/3/3
f 239/3/3 237/3/3 236/3/3
f 239/5/3 224/5/3 235/5/3
f 240/3/3 237/3/3 239/3/3
f 244/5/3 239/5/3 234/5/3
f 245/5/3 239/5/3 244/5/3
f 246/2/3 243/2/3 242/2/3
f 246/2/3 242/2/3 241/2/3
f 247/2/3 243/2/3 246/2/3
f 248/3/3 237/3/3 240/3/3
f 249/3/3 237/3/3 248/3/3
f 250/6/3 249/6/3 248/6/3
f 251/6/3 249/6/3 250/6/3
f 253/6/3 252/6/3 251/6/3
f 254/6/3 252/6/3 253/6/3
f 255/6/3 252/6/3 254/6/3
f 256/6/3 252/6/3 255/6/3
f 259/2/3 258/2/3 257/2/3
f 260/2/3 258/2/3 259/2/3
f 261/2/3 258/2/3 260/2/3
f 262/3/3 260/3/3 259/3/3
f 263/3/3 260/3/3 262/3/3
f 266/3/3 265/3/3 264/3/3
f 267/3/3 265/3/3 266/3/3
f 269/2/3 267/2/3 266/2/3
f 269/2/3 268/2/3 267/2/3
f 270/2/3 268/2/3 269/2/3
f 276/2/3 272/2/3 271/2/3
f 277/2/3 272/2/3 276/2/3
f 279/2/3 274/2/3 273/2/3
f 280/2/3 276/2/3 275/2/3
f 281/2/3 276/2/3 280/2/3
f 283/2/3 279/2/3 278/2/3
f 284/2/3 274/2/3 279/2/3
f 284/2/3 279/2/3 283/2/3
f 285/2/3 282/2/3 281/2/3
f 286/2/3 282/2/3 285/2/3
f 287/2/3 274/2/3 284/2/3
f 288/2/3 274/2/3 287/2/3
f 289/6/4 290/6/4 292/6/4
f 291/6/4 292/6/4 293/6/4
f 292/6/4 290/6/4 294/6/4
f 293/6/4 292/6/4 294/6/4
f 291/6/4 293/6/4 295/6/4
f 295/6/4 293/6/4 296/6/4
f 295/3/4 296/3/4 300/3/4
f 300/3/4 296/3/4 301/3/4
f 298/5/4 299/5/4 302/5/4
f 297/2/4 298/2/4 306/2/4
f 298/5/4 302/5/4 307/5/4
f 306/2/4 298/2/4 307/2/4
f 307/5/4 302/5/4 308/5/4
f 302/3/4 303/3/4 309/3/4
f 309/3/4 303/3/4 310/3/4
f 304/3/4 305/3/4 312/3/4
f 312/3/4 305/3/4 313/3/4
f 308/5/4 302/5/4 316/5/4
f 302/3/4 309/3/4 317/3/4
f 311/3/4 312/3/4 319/3/4
f 312/6/4 313/6/4 320/6/4
f 319/3/4 312/3/4 320/3/4
f 320/6/4 313/6/4 321/6/4
f 317/3/4 318/3/4 322/3/4
f 315/5/4 316/5/4 322/5/4
f 316/5/4 302/5/4 322/5/4
f 302/3/4 317/3/4 322/3/4
f 322/3/4 318/3/4 323/3/4
f 320/3/4 321/3/4 324/3/4
f 324/3/4 321/3/4 325/3/4
f 314/2/4 315/2/4 326/2/4
f 315/5/4 322/5/4 327/5/4
f 326/2/4 315/2/4 327/2/4
f 327/5/4 322/5/4 328/5/4
f 329/3/4 330/3/4 331/3/4
f 331/3/4 330/3/4 332/3/4
f 331/6/4 332/6/4 333/6/4
f 331/6/4 333/6/4 335/6/4
f 333/6/4 334/6/4 335/6/4
f 335/6/4 334/6/4 336/6/4
f 336/6/4 334/6/4 337/6/4
f 337/6/4 334/6/4 338/6/4
f 339/2/4 340/2/4 341/2/4
f 341/2/4 340/2/4 342/2/4
f 342/2/4 343/2/4 345/2/4
f 345/2/4 343/2/4 346/2/4
f 344/2/4 345/2/4 347/2/4
f 347/2/4 345/2/4 348/2/4
f 349/2/4 350/2/4 352/2/4
f 351/2/4 352/2/4 353/2/4
f 352/2/4 350/2/4 354/2/4
f 353/2/4 352/2/4 354/2/4
f 354/2/4 350/2/4 355/2/4
f 355/2/4 350/2/4 356/2/4
f 361/2/5 358/2/5 357/2/5
f 362/2/5 358/2/5 361/2/5
f 363/2/5 360/2/5 359/2/5
f 364/2/5 360/2/5 363/2/5
f 367/5/5 366/5/5 365/5/5
f 368/5/5 366/5/5 367/5/5
f 371/2/5 370/2/5 369/2/5
f 372/2/5 370/2/5 371/2/5
f 376/3/5 374/3/5 373/3/5
f 377/3/5 374/3/5 376/3/5
f 379/2/5 376/2/5 375/2/5
f 380/2/5 376/2/5 379/2/5
f 381/2/5 378/2/5 377/2/5
f 382/2/5 378/2/5 381/2/5
f 387/3/5 384/3/5 383/3/5
f 388/3/5 384/3/5 387/3/5
f 389/3/5 386/3/5 385/3/5
f 390/3/5 386/3/5 389/3/5
f 395/6/5 392/6/5 391/6/5
f 400/6/5 394/6/5 393/6/5
f 401/6/5 395/6/5 391/6/5
f 401/6/5 396/6/5 395/6/5
f 402/3/5 397/3/5 396/3/5
f 402/6/5 396/6/5 401/6/5
f 403/3/5 397/3/5 402/3/5
f 404/3/5 397/3/5 403/3/5
f 405/3/5 399/3/5 398/3/5
f 406/3/5 399/3/5 405/3/5
f 407/6/5 400/6/5 399/6/5
f 407/3/5 399/3/5 406/3/5
f 408/6/5 394/6/5 400/6/5
f 408/6/5 400/6/5 407/6/5
f 409/2/5 404/2/5 403/2/5
f 410/2/5 404/2/5 409/2/5
f 411/2/5 406/2/5 405/2/5
f 412/2/5 406/2/5 411/2/5
f 419/6/5 414/6/5 413/6/5
f 419/4/5 415/4/5 414/4/5
f 420/6/5 416/6/5 415/6/5
f 420/4/5 415/4/5 419/4/5
f 423/6/5 419/6/5 413/6/5
f 424/6/5 419/6/5 423/6/5
f 425/6/5 416/6/5 420/6/5
f 426/6/5 416/6/5 425/6/5
f 427/6/5 418/6/5 417/6/5
f 428/6/5 418/6/5 427/6/5
f 433/6/5 422/6/5 421/6/5
f 434/6/5 422/6/5 433/6/5
f 435/6/5 432/6/5 431/6/5
f 435/6/5 431/6/5 430/6/5
f 435/6/5 430/6/5 429/6/5
f 436/6/5 432/6/5 435/6/5
f 441/2/5 438/2/5 437/2/5
f 442/2/5 438/2/5 441/2/5
f 443/2/5 440/2/5 439/2/5
f 444/2/5 440/2/5 443/2/5
f 448/2/5 446/2/5 445/2/5
f 449/2/5 446/2/5 448/2/5
f 450/2/5 446/2/5 449/2/5
f 451/2/5 446/2/5 450/2/5
f 453/2/5 448/2/5 447/2/5
f 454/2/5 448/2/5 453/2/5
f 455/2/5 452/2/5 451/2/5
f 456/2/5 452/2/5 455/2/5
f 457/2/6 458/2/6 461/2/6
f 461/2/6 458/2/6 462/2/6
f 459/2/6 460/2/6 463/2/6
f 463/2/6 460/2/6 464/2/6
f 465/5/6 466/5/6 469/5/6
f 469/5/6 466/5/6 470/5/6
f 467/5/6 468/5/6 471/5/6
f 471/5/6 468/5/6 472/5/6
f 473/8/6 474/8/6 475/8/6
f 475/8/6 474/8/6 476/8/6
f 477/6/6 478/6/6 481/6/6
f 481/6/6 478/6/6 482/6/6
f 479/6/6 480/6/6 487/6/6
f 487/6/6 480/6/6 488/6/6
f 483/3/6 484/3/6 489/3/6
f 489/3/6 484/3/6 490/3/6
f 490/3/6 484/3/6 491/3/6
f 485/3/6 486/3/6 492/3/6
f 492/3/6 486/3/6 493/3/6
f 493/3/6 486/3/6 494/3/6
f 482/6/6 483/6/6 495/6/6
f 483/3/6 489/3/6 496/3/6
f 495/6/6 483/6/6 496/6/6
f 496/3/6 489/3/6 497/3/6
f 494/3/6 486/3/6 502/3/6
f 486/6/6 487/6/6 503/6/6
f 502/3/6 486/3/6 503/3/6
f 503/6/6 487/6/6 504/6/6
f 498/3/6 499/3/6 505/3/6
f 505/3/6 499/3/6 506/3/6
f 500/3/6 501/3/6 507/3/6
f 507/3/6 501/3/6 508/3/6
f 509/6/6 510/6/6 513/6/6
f 513/6/6 510/6/6 514/6/6
f 511/6/6 512/6/6 515/6/6
f 515/6/6 512/6/6 516/6/6
f 517/2/6 518/2/6 520/2/6
f 520/2/6 518/2/6 521/2/6
f 519/2/6 520/2/6 523/2/6
f 523/2/6 520/2/6 524/2/6
f 521/2/6 522/2/6 525/2/6
f 525/2/6 522/2/6 526/2/6
f 524/2/6 525/2/6 527/2/6
f 527/2/6 525/2/6 528/2/6
f 529/2/6 530/2/6 531/2/6
f 531/2/6 530/2/6 532/2/6
