# MagicaVoxel @ Ephtracy

# material
mtllib Character Model Gabe.mtl
usemtl palette

# normals
vn -1 0 0
vn 1 0 0
vn 0 0 1
vn 0 0 -1
vn 0 -1 0
vn 0 1 0

# texcoords
vt 0.0292969 0.5
vt 0.755859 0.5
vt 0.826172 0.5
vt 0.919922 0.5
vt 0.939453 0.5
vt 0.947266 0.5
vt 0.955078 0.5
vt 0.970703 0.5
vt 0.978516 0.5

# verts
v -7 10 1
v -7 10 -1
v -7 11 1
v -7 11 -1
v -6 8 2
v -6 8 -1
v -6 9 2
v -6 9 1
v -6 10 1
v -6 10 -1
v -3 0 2
v -3 0 -1
v -3 1 2
v -3 1 1
v -3 1 -1
v -3 4 1
v -3 4 -1
v -3 11 -1
v -3 11 -2
v -3 12 -0
v -3 12 -1
v -3 13 2
v -3 13 -0
v -3 14 2
v -3 14 -2
v -2 4 1
v -2 4 -1
v -2 7 -1
v -2 7 -2
v -2 8 1
v -2 8 -1
v -2 9 -1
v -2 9 -2
v -2 10 2
v -2 10 -2
v -2 11 -1
v -2 11 -2
v -2 11 -3
v -2 12 2
v -2 12 1
v -2 12 -0
v -2 12 -1
v -2 13 3
v -2 13 2
v -2 13 1
v -2 13 -0
v -2 14 3
v -2 14 2
v -2 14 -2
v -2 14 -3
v -2 15 2
v -2 15 -2
v -1 6 -1
v -1 6 -2
v -1 7 -1
v -1 7 -2
v -1 9 1
v -1 9 -1
v -1 10 1
v -1 10 -1
v -1 10 -2
v -1 10 -3
v -1 11 -2
v -1 11 -3
v -1 12 3
v -1 12 2
v -1 13 3
v -1 13 2
v -1 14 -2
v -1 14 -3
v -1 15 -2
v -1 16 -2
v -1 16 -3
v 0 15 -1
v 0 15 -2
v 0 16 -1
v 0 16 -2
v 1 0 2
v 1 0 -1
v 1 1 2
v 1 1 1
v 1 1 -1
v 1 3 1
v 1 3 -1
v 5 8 2
v 5 8 1
v 5 9 2
v 5 9 1
v 5 9 -1
v 5 11 1
v 5 11 -1
v -5 8 2
v -5 8 1
v -5 9 2
v -5 9 1
v -5 9 -1
v -5 11 1
v -5 11 -1
v -1 0 2
v -1 0 -1
v -1 1 2
v -1 1 1
v -1 1 -1
v -1 3 1
v -1 3 -1
v 0 12 3
v 0 12 2
v 0 13 3
v 0 13 2
v 1 6 -1
v 1 6 -2
v 1 7 -1
v 1 7 -2
v 1 9 1
v 1 9 -1
v 1 10 1
v 1 10 -1
v 1 10 -2
v 1 10 -3
v 1 11 -2
v 1 11 -3
v 1 14 -2
v 1 14 -3
v 1 15 -1
v 1 15 -2
v 1 16 -1
v 1 16 -3
v 2 4 1
v 2 4 -1
v 2 7 -1
v 2 7 -2
v 2 8 1
v 2 8 -1
v 2 9 -1
v 2 9 -2
v 2 10 2
v 2 10 -2
v 2 11 -1
v 2 11 -2
v 2 11 -3
v 2 12 2
v 2 12 1
v 2 12 -0
v 2 12 -1
v 2 13 3
v 2 13 2
v 2 13 1
v 2 13 -0
v 2 14 3
v 2 14 2
v 2 14 -2
v 2 14 -3
v 2 15 2
v 2 15 -2
v 3 0 2
v 3 0 -1
v 3 1 2
v 3 1 1
v 3 1 -1
v 3 4 1
v 3 4 -1
v 3 11 -1
v 3 11 -2
v 3 12 -0
v 3 12 -1
v 3 13 2
v 3 13 -0
v 3 14 2
v 3 14 -2
v 6 8 2
v 6 8 -1
v 6 9 2
v 6 9 1
v 6 10 1
v 6 10 -1
v 7 10 1
v 7 10 -1
v 7 11 1
v 7 11 -1
v -2 13 3
v -2 14 3
v -1 12 3
v -1 13 3
v 0 12 3
v 0 13 3
v 2 13 3
v 2 14 3
v -6 8 2
v -6 9 2
v -5 8 2
v -5 9 2
v -3 0 2
v -3 1 2
v -3 13 2
v -3 14 2
v -2 10 2
v -2 12 2
v -2 13 2
v -2 14 2
v -2 15 2
v -1 0 2
v -1 1 2
v -1 10 2
v -1 11 2
v -1 12 2
v -1 13 2
v 0 12 2
v 0 13 2
v 1 0 2
v 1 1 2
v 1 10 2
v 1 11 2
v 1 12 2
v 1 13 2
v 2 10 2
v 2 12 2
v 2 13 2
v 2 14 2
v 2 15 2
v 3 0 2
v 3 1 2
v 3 13 2
v 3 14 2
v 5 8 2
v 5 9 2
v 6 8 2
v 6 9 2
v -7 10 1
v -7 11 1
v -6 9 1
v -6 10 1
v -5 8 1
v -5 9 1
v -5 11 1
v -3 1 1
v -3 4 1
v -3 8 1
v -3 9 1
v -2 4 1
v -2 8 1
v -1 1 1
v -1 3 1
v -1 4 1
v -1 5 1
v -1 9 1
v -1 10 1
v 1 1 1
v 1 3 1
v 1 4 1
v 1 5 1
v 1 9 1
v 1 10 1
v 2 4 1
v 2 8 1
v 3 1 1
v 3 4 1
v 3 8 1
v 3 9 1
v 5 8 1
v 5 9 1
v 5 11 1
v 6 9 1
v 6 10 1
v 7 10 1
v 7 11 1
v -3 12 -0
v -3 13 -0
v -2 12 -0
v -2 13 -0
v 2 12 -0
v 2 13 -0
v 3 12 -0
v 3 13 -0
v -3 11 -1
v -3 12 -1
v -2 11 -1
v -2 12 -1
v 0 15 -1
v 0 16 -1
v 1 15 -1
v 1 16 -1
v 2 11 -1
v 2 12 -1
v 3 11 -1
v 3 12 -1
v -1 15 -2
v -1 16 -2
v 0 15 -2
v 0 16 -2
v -7 10 -1
v -7 11 -1
v -6 8 -1
v -6 10 -1
v -5 9 -1
v -5 11 -1
v -3 0 -1
v -3 1 -1
v -3 4 -1
v -3 8 -1
v -3 9 -1
v -2 4 -1
v -2 7 -1
v -2 8 -1
v -2 9 -1
v -1 0 -1
v -1 1 -1
v -1 3 -1
v -1 6 -1
v -1 7 -1
v -1 9 -1
v -1 10 -1
v 1 0 -1
v 1 1 -1
v 1 3 -1
v 1 6 -1
v 1 7 -1
v 1 9 -1
v 1 10 -1
v 2 4 -1
v 2 7 -1
v 2 8 -1
v 2 9 -1
v 3 0 -1
v 3 1 -1
v 3 4 -1
v 3 8 -1
v 3 9 -1
v 5 9 -1
v 5 11 -1
v 6 8 -1
v 6 10 -1
v 7 10 -1
v 7 11 -1
v -3 11 -2
v -3 14 -2
v -2 7 -2
v -2 9 -2
v -2 10 -2
v -2 11 -2
v -2 14 -2
v -2 15 -2
v -1 6 -2
v -1 7 -2
v -1 9 -2
v -1 10 -2
v -1 11 -2
v -1 14 -2
v -1 15 -2
v 1 6 -2
v 1 7 -2
v 1 9 -2
v 1 10 -2
v 1 11 -2
v 1 14 -2
v 1 15 -2
v 2 7 -2
v 2 9 -2
v 2 10 -2
v 2 11 -2
v 2 14 -2
v 2 15 -2
v 3 11 -2
v 3 14 -2
v -2 11 -3
v -2 14 -3
v -1 10 -3
v -1 11 -3
v -1 14 -3
v -1 16 -3
v 1 10 -3
v 1 11 -3
v 1 14 -3
v 1 16 -3
v 2 11 -3
v 2 14 -3
v -3 0 2
v -1 0 2
v 1 0 2
v 3 0 2
v -3 0 -1
v -1 0 -1
v 1 0 -1
v 3 0 -1
v -1 3 1
v 1 3 1
v -1 3 -1
v 1 3 -1
v -1 6 -1
v 1 6 -1
v -1 6 -2
v 1 6 -2
v -2 7 -1
v -1 7 -1
v 1 7 -1
v 2 7 -1
v -2 7 -2
v -1 7 -2
v 1 7 -2
v 2 7 -2
v -6 8 2
v -5 8 2
v 5 8 2
v 6 8 2
v -5 8 1
v -3 8 1
v -2 8 1
v 2 8 1
v 3 8 1
v 5 8 1
v -6 8 -1
v -3 8 -1
v -2 8 -1
v 2 8 -1
v 3 8 -1
v 6 8 -1
v -2 10 2
v -1 10 2
v 1 10 2
v 2 10 2
v -7 10 1
v -6 10 1
v -1 10 1
v 1 10 1
v 6 10 1
v 7 10 1
v -7 10 -1
v -6 10 -1
v -1 10 -1
v 1 10 -1
v 6 10 -1
v 7 10 -1
v -2 10 -2
v -1 10 -2
v 1 10 -2
v 2 10 -2
v -1 10 -3
v 1 10 -3
v -3 11 -1
v -2 11 -1
v 2 11 -1
v 3 11 -1
v -3 11 -2
v -2 11 -2
v -1 11 -2
v 1 11 -2
v 2 11 -2
v 3 11 -2
v -2 11 -3
v -1 11 -3
v 1 11 -3
v 2 11 -3
v -1 12 3
v 0 12 3
v -1 12 2
v 0 12 2
v -3 12 -0
v -2 12 -0
v 2 12 -0
v 3 12 -0
v -3 12 -1
v -2 12 -1
v 2 12 -1
v 3 12 -1
v -2 13 3
v -1 13 3
v 0 13 3
v 2 13 3
v -3 13 2
v -2 13 2
v -1 13 2
v 0 13 2
v 1 13 2
v 2 13 2
v 3 13 2
v -2 13 1
v 2 13 1
v -3 13 -0
v -2 13 -0
v 2 13 -0
v 3 13 -0
v -3 1 2
v -1 1 2
v 1 1 2
v 3 1 2
v -3 1 1
v -1 1 1
v 1 1 1
v 3 1 1
v -3 4 1
v -2 4 1
v 2 4 1
v 3 4 1
v -3 4 -1
v -2 4 -1
v 2 4 -1
v 3 4 -1
v -6 9 2
v -5 9 2
v 5 9 2
v 6 9 2
v -6 9 1
v -5 9 1
v -3 9 1
v -1 9 1
v 1 9 1
v 3 9 1
v 5 9 1
v 6 9 1
v -5 9 -1
v -3 9 -1
v -2 9 -1
v -1 9 -1
v 1 9 -1
v 2 9 -1
v 3 9 -1
v 5 9 -1
v -2 9 -2
v -1 9 -2
v 1 9 -2
v 2 9 -2
v -7 11 1
v -5 11 1
v 5 11 1
v 7 11 1
v -7 11 -1
v -5 11 -1
v 5 11 -1
v 7 11 -1
v -2 14 3
v 2 14 3
v -3 14 2
v -2 14 2
v 2 14 2
v 3 14 2
v -3 14 -2
v -2 14 -2
v -1 14 -2
v 1 14 -2
v 2 14 -2
v 3 14 -2
v -2 14 -3
v -1 14 -3
v 1 14 -3
v 2 14 -3
v -2 15 2
v 2 15 2
v 0 15 -1
v 1 15 -1
v -2 15 -2
v -1 15 -2
v 0 15 -2
v 1 15 -2
v 2 15 -2
v 0 16 -1
v 1 16 -1
v -1 16 -2
v 0 16 -2
v -1 16 -3
v 1 16 -3

# faces
f 3/8/1 2/8/1 1/8/1
f 4/8/1 2/8/1 3/8/1
f 7/8/1 6/8/1 5/8/1
f 8/8/1 6/8/1 7/8/1
f 9/8/1 6/8/1 8/8/1
f 10/8/1 6/8/1 9/8/1
f 13/7/1 12/7/1 11/7/1
f 14/7/1 12/7/1 13/7/1
f 15/7/1 12/7/1 14/7/1
f 16/4/1 15/4/1 14/4/1
f 17/4/1 15/4/1 16/4/1
f 21/3/1 19/3/1 18/3/1
f 23/3/1 21/3/1 20/3/1
f 24/3/1 23/3/1 22/3/1
f 25/3/1 19/3/1 21/3/1
f 25/3/1 23/3/1 24/3/1
f 25/3/1 21/3/1 23/3/1
f 28/2/1 27/2/1 26/2/1
f 30/2/1 28/2/1 26/2/1
f 30/2/1 29/2/1 28/2/1
f 31/2/1 29/2/1 30/2/1
f 32/2/1 29/2/1 31/2/1
f 33/2/1 29/2/1 32/2/1
f 36/8/1 35/8/1 34/8/1
f 37/8/1 35/8/1 36/8/1
f 39/8/1 36/8/1 34/8/1
f 40/8/1 36/8/1 39/8/1
f 41/8/1 36/8/1 40/8/1
f 42/8/1 36/8/1 41/8/1
f 44/9/1 40/9/1 39/9/1
f 45/8/1 41/8/1 40/8/1
f 45/9/1 40/9/1 44/9/1
f 46/8/1 41/8/1 45/8/1
f 47/3/1 44/3/1 43/3/1
f 48/3/1 44/3/1 47/3/1
f 49/3/1 38/3/1 37/3/1
f 50/3/1 38/3/1 49/3/1
f 51/3/1 49/3/1 48/3/1
f 52/3/1 49/3/1 51/3/1
f 55/2/1 54/2/1 53/2/1
f 56/2/1 54/2/1 55/2/1
f 59/8/1 58/8/1 57/8/1
f 60/8/1 58/8/1 59/8/1
f 63/3/1 62/3/1 61/3/1
f 64/3/1 62/3/1 63/3/1
f 67/3/1 66/3/1 65/3/1
f 68/3/1 66/3/1 67/3/1
f 71/3/1 70/3/1 69/3/1
f 72/3/1 70/3/1 71/3/1
f 73/3/1 70/3/1 72/3/1
f 76/3/1 75/3/1 74/3/1
f 77/3/1 75/3/1 76/3/1
f 80/7/1 79/7/1 78/7/1
f 81/7/1 79/7/1 80/7/1
f 82/7/1 79/7/1 81/7/1
f 83/4/1 82/4/1 81/4/1
f 84/4/1 82/4/1 83/4/1
f 87/8/1 86/8/1 85/8/1
f 88/8/1 86/8/1 87/8/1
f 90/8/1 89/8/1 88/8/1
f 91/8/1 89/8/1 90/8/1
f 92/8/2 93/8/2 94/8/2
f 94/8/2 93/8/2 95/8/2
f 95/8/2 96/8/2 97/8/2
f 97/8/2 96/8/2 98/8/2
f 99/7/2 100/7/2 101/7/2
f 101/7/2 100/7/2 102/7/2
f 102/7/2 100/7/2 103/7/2
f 102/4/2 103/4/2 104/4/2
f 104/4/2 103/4/2 105/4/2
f 106/3/2 107/3/2 108/3/2
f 108/3/2 107/3/2 109/3/2
f 110/2/2 111/2/2 112/2/2
f 112/2/2 111/2/2 113/2/2
f 114/8/2 115/8/2 116/8/2
f 116/8/2 115/8/2 117/8/2
f 118/3/2 119/3/2 120/3/2
f 120/3/2 119/3/2 121/3/2
f 122/3/2 123/3/2 125/3/2
f 124/3/2 125/3/2 126/3/2
f 125/3/2 123/3/2 127/3/2
f 126/3/2 125/3/2 127/3/2
f 128/2/2 129/2/2 130/2/2
f 128/2/2 130/2/2 132/2/2
f 130/2/2 131/2/2 132/2/2
f 132/2/2 131/2/2 133/2/2
f 133/2/2 131/2/2 134/2/2
f 134/2/2 131/2/2 135/2/2
f 136/8/2 137/8/2 138/8/2
f 138/8/2 137/8/2 139/8/2
f 136/8/2 138/8/2 141/8/2
f 141/8/2 138/8/2 142/8/2
f 142/8/2 138/8/2 143/8/2
f 143/8/2 138/8/2 144/8/2
f 141/9/2 142/9/2 146/9/2
f 142/8/2 143/8/2 147/8/2
f 146/9/2 142/9/2 147/9/2
f 147/8/2 143/8/2 148/8/2
f 145/3/2 146/3/2 149/3/2
f 149/3/2 146/3/2 150/3/2
f 139/3/2 140/3/2 151/3/2
f 151/3/2 140/3/2 152/3/2
f 150/3/2 151/3/2 153/3/2
f 153/3/2 151/3/2 154/3/2
f 155/7/2 156/7/2 157/7/2
f 157/7/2 156/7/2 158/7/2
f 158/7/2 156/7/2 159/7/2
f 158/4/2 159/4/2 160/4/2
f 160/4/2 159/4/2 161/4/2
f 162/3/2 163/3/2 165/3/2
f 164/3/2 165/3/2 167/3/2
f 166/3/2 167/3/2 168/3/2
f 165/3/2 163/3/2 169/3/2
f 168/3/2 167/3/2 169/3/2
f 167/3/2 165/3/2 169/3/2
f 170/8/2 171/8/2 172/8/2
f 172/8/2 171/8/2 173/8/2
f 173/8/2 171/8/2 174/8/2
f 174/8/2 171/8/2 175/8/2
f 176/8/2 177/8/2 178/8/2
f 178/8/2 177/8/2 179/8/2
f 183/3/3 181/3/3 180/3/3
f 184/3/3 183/3/3 182/3/3
f 185/3/3 181/3/3 183/3/3
f 185/3/3 183/3/3 184/3/3
f 186/3/3 181/3/3 185/3/3
f 187/3/3 181/3/3 186/3/3
f 190/8/3 189/8/3 188/8/3
f 191/8/3 189/8/3 190/8/3
f 198/3/3 195/3/3 194/3/3
f 199/3/3 195/3/3 198/3/3
f 201/7/3 193/7/3 192/7/3
f 202/7/3 193/7/3 201/7/3
f 203/8/3 197/8/3 196/8/3
f 204/8/3 197/8/3 203/8/3
f 205/9/3 198/9/3 197/9/3
f 205/8/3 197/8/3 204/8/3
f 206/9/3 198/9/3 205/9/3
f 207/8/3 205/8/3 204/8/3
f 211/5/3 204/5/3 203/5/3
f 212/8/3 207/8/3 204/8/3
f 212/5/3 204/5/3 211/5/3
f 212/8/3 208/8/3 207/8/3
f 213/8/3 208/8/3 212/8/3
f 214/8/3 208/8/3 213/8/3
f 215/8/3 212/8/3 211/8/3
f 215/8/3 213/8/3 212/8/3
f 216/9/3 214/9/3 213/9/3
f 216/8/3 213/8/3 215/8/3
f 217/9/3 214/9/3 216/9/3
f 218/3/3 200/3/3 199/3/3
f 219/3/3 200/3/3 218/3/3
f 220/7/3 210/7/3 209/7/3
f 221/7/3 210/7/3 220/7/3
f 222/3/3 218/3/3 217/3/3
f 223/3/3 218/3/3 222/3/3
f 226/8/3 225/8/3 224/8/3
f 227/8/3 225/8/3 226/8/3
f 231/8/3 229/8/3 228/8/3
f 233/8/3 231/8/3 230/8/3
f 234/8/3 229/8/3 231/8/3
f 234/8/3 231/8/3 233/8/3
f 237/8/3 233/8/3 232/8/3
f 238/8/3 233/8/3 237/8/3
f 239/4/3 236/4/3 235/4/3
f 240/2/3 238/2/3 237/2/3
f 241/4/3 239/4/3 235/4/3
f 242/4/3 239/4/3 241/4/3
f 243/2/3 240/2/3 239/2/3
f 243/4/3 239/4/3 242/4/3
f 244/2/3 240/2/3 243/2/3
f 245/2/3 238/2/3 240/2/3
f 245/2/3 240/2/3 244/2/3
f 248/4/3 244/4/3 243/4/3
f 248/4/3 243/4/3 242/4/3
f 249/4/3 244/4/3 248/4/3
f 250/6/3 245/6/3 244/6/3
f 250/4/3 244/4/3 249/4/3
f 251/8/3 246/8/3 245/8/3
f 251/6/3 245/6/3 250/6/3
f 252/8/3 246/8/3 251/8/3
f 253/4/3 249/4/3 248/4/3
f 253/2/3 250/2/3 249/2/3
f 253/2/3 251/2/3 250/2/3
f 253/4/3 248/4/3 247/4/3
f 254/2/3 251/2/3 253/2/3
f 255/4/3 253/4/3 247/4/3
f 256/4/3 253/4/3 255/4/3
f 257/2/3 251/2/3 254/2/3
f 258/2/3 251/2/3 257/2/3
f 259/8/3 258/8/3 257/8/3
f 260/8/3 258/8/3 259/8/3
f 262/8/3 261/8/3 260/8/3
f 263/8/3 261/8/3 262/8/3
f 264/8/3 261/8/3 263/8/3
f 265/8/3 261/8/3 264/8/3
f 268/3/3 267/3/3 266/3/3
f 269/3/3 267/3/3 268/3/3
f 272/3/3 271/3/3 270/3/3
f 273/3/3 271/3/3 272/3/3
f 276/3/3 275/3/3 274/3/3
f 277/3/3 275/3/3 276/3/3
f 280/3/3 279/3/3 278/3/3
f 281/3/3 279/3/3 280/3/3
f 284/3/3 283/3/3 282/3/3
f 285/3/3 283/3/3 284/3/3
f 288/3/3 287/3/3 286/3/3
f 289/3/3 287/3/3 288/3/3
f 290/8/4 291/8/4 293/8/4
f 292/8/4 293/8/4 294/8/4
f 293/8/4 291/8/4 295/8/4
f 294/8/4 293/8/4 295/8/4
f 292/8/4 294/8/4 299/8/4
f 299/8/4 294/8/4 300/8/4
f 297/4/4 298/4/4 301/4/4
f 299/2/4 300/2/4 303/2/4
f 303/2/4 300/2/4 304/2/4
f 296/7/4 297/7/4 305/7/4
f 297/4/4 301/4/4 306/4/4
f 305/7/4 297/7/4 306/7/4
f 306/4/4 301/4/4 307/4/4
f 301/2/4 302/2/4 308/2/4
f 308/2/4 302/2/4 309/2/4
f 307/4/4 301/4/4 314/4/4
f 301/2/4 308/2/4 315/2/4
f 310/8/4 311/8/4 317/8/4
f 317/8/4 311/8/4 318/8/4
f 315/2/4 316/2/4 319/2/4
f 313/4/4 314/4/4 319/4/4
f 314/4/4 301/4/4 319/4/4
f 301/2/4 315/2/4 319/2/4
f 319/2/4 316/2/4 320/2/4
f 312/7/4 313/7/4 323/7/4
f 313/4/4 319/4/4 324/4/4
f 323/7/4 313/7/4 324/7/4
f 324/4/4 319/4/4 325/4/4
f 321/2/4 322/2/4 326/2/4
f 326/2/4 322/2/4 327/2/4
f 326/8/4 327/8/4 328/8/4
f 326/8/4 328/8/4 330/8/4
f 328/8/4 329/8/4 330/8/4
f 330/8/4 329/8/4 331/8/4
f 331/8/4 329/8/4 332/8/4
f 332/8/4 329/8/4 333/8/4
f 334/3/4 335/3/4 339/3/4
f 339/3/4 335/3/4 340/3/4
f 336/2/4 337/2/4 343/2/4
f 343/2/4 337/2/4 344/2/4
f 338/8/4 339/8/4 345/8/4
f 345/8/4 339/8/4 346/8/4
f 340/3/4 341/3/4 347/3/4
f 347/3/4 341/3/4 348/3/4
f 342/2/4 343/2/4 349/2/4
f 343/7/4 344/7/4 350/7/4
f 349/2/4 343/2/4 350/2/4
f 350/7/4 344/7/4 351/7/4
f 350/2/4 351/2/4 356/2/4
f 356/2/4 351/2/4 357/2/4
f 352/8/4 353/8/4 358/8/4
f 358/8/4 353/8/4 359/8/4
f 354/3/4 355/3/4 360/3/4
f 360/3/4 355/3/4 361/3/4
f 359/3/4 360/3/4 362/3/4
f 362/3/4 360/3/4 363/3/4
f 364/3/4 365/3/4 367/3/4
f 367/3/4 365/3/4 368/3/4
f 366/3/4 367/3/4 370/3/4
f 368/3/4 369/3/4 370/3/4
f 367/3/4 368/3/4 370/3/4
f 370/3/4 369/3/4 371/3/4
f 371/3/4 369/3/4 372/3/4
f 372/3/4 369/3/4 373/3/4
f 371/3/4 372/3/4 374/3/4
f 374/3/4 372/3/4 375/3/4
f 380/7/5 377/7/5 376/7/5
f 381/7/5 377/7/5 380/7/5
f 382/7/5 379/7/5 378/7/5
f 383/7/5 379/7/5 382/7/5
f 386/4/5 385/4/5 384/4/5
f 387/4/5 385/4/5 386/4/5
f 390/2/5 389/2/5 388/2/5
f 391/2/5 389/2/5 390/2/5
f 396/2/5 393/2/5 392/2/5
f 397/2/5 393/2/5 396/2/5
f 398/2/5 395/2/5 394/2/5
f 399/2/5 395/2/5 398/2/5
f 404/8/5 401/8/5 400/8/5
f 409/8/5 403/8/5 402/8/5
f 410/8/5 404/8/5 400/8/5
f 410/8/5 405/8/5 404/8/5
f 411/2/5 406/2/5 405/2/5
f 411/8/5 405/8/5 410/8/5
f 412/2/5 406/2/5 411/2/5
f 413/2/5 408/2/5 407/2/5
f 414/8/5 409/8/5 408/8/5
f 414/2/5 408/2/5 413/2/5
f 415/8/5 403/8/5 409/8/5
f 415/8/5 409/8/5 414/8/5
f 422/8/5 417/8/5 416/8/5
f 422/5/5 418/5/5 417/5/5
f 423/8/5 419/8/5 418/8/5
f 423/5/5 418/5/5 422/5/5
f 426/8/5 421/8/5 420/8/5
f 427/8/5 421/8/5 426/8/5
f 428/8/5 422/8/5 416/8/5
f 429/8/5 419/8/5 423/8/5
f 430/8/5 425/8/5 424/8/5
f 431/8/5 425/8/5 430/8/5
f 432/8/5 429/8/5 428/8/5
f 432/8/5 428/8/5 416/8/5
f 433/8/5 429/8/5 432/8/5
f 434/8/5 419/8/5 429/8/5
f 434/8/5 429/8/5 433/8/5
f 435/8/5 419/8/5 434/8/5
f 436/3/5 434/3/5 433/3/5
f 437/3/5 434/3/5 436/3/5
f 442/3/5 439/3/5 438/3/5
f 443/3/5 439/3/5 442/3/5
f 446/3/5 441/3/5 440/3/5
f 447/3/5 441/3/5 446/3/5
f 448/3/5 444/3/5 443/3/5
f 449/3/5 444/3/5 448/3/5
f 450/3/5 446/3/5 445/3/5
f 451/3/5 446/3/5 450/3/5
f 454/3/5 453/3/5 452/3/5
f 455/3/5 453/3/5 454/3/5
f 460/3/5 457/3/5 456/3/5
f 461/3/5 457/3/5 460/3/5
f 462/3/5 459/3/5 458/3/5
f 463/3/5 459/3/5 462/3/5
f 469/3/5 465/3/5 464/3/5
f 470/3/5 465/3/5 469/3/5
f 471/3/5 467/3/5 466/3/5
f 472/3/5 467/3/5 471/3/5
f 473/3/5 467/3/5 472/3/5
f 475/3/5 469/3/5 468/3/5
f 476/3/5 474/3/5 473/3/5
f 477/3/5 475/3/5 468/3/5
f 478/3/5 475/3/5 477/3/5
f 479/3/5 474/3/5 476/3/5
f 480/3/5 474/3/5 479/3/5
f 481/7/6 482/7/6 485/7/6
f 485/7/6 482/7/6 486/7/6
f 483/7/6 484/7/6 487/7/6
f 487/7/6 484/7/6 488/7/6
f 489/4/6 490/4/6 493/4/6
f 493/4/6 490/4/6 494/4/6
f 491/4/6 492/4/6 495/4/6
f 495/4/6 492/4/6 496/4/6
f 497/8/6 498/8/6 501/8/6
f 501/8/6 498/8/6 502/8/6
f 499/8/6 500/8/6 507/8/6
f 507/8/6 500/8/6 508/8/6
f 502/8/6 503/8/6 509/8/6
f 503/2/6 504/2/6 510/2/6
f 509/8/6 503/8/6 510/8/6
f 510/2/6 504/2/6 511/2/6
f 511/2/6 504/2/6 512/2/6
f 505/2/6 506/2/6 513/2/6
f 513/2/6 506/2/6 514/2/6
f 506/8/6 507/8/6 515/8/6
f 514/2/6 506/2/6 515/2/6
f 515/8/6 507/8/6 516/8/6
f 511/2/6 512/2/6 517/2/6
f 512/7/6 513/7/6 518/7/6
f 517/2/6 512/2/6 518/2/6
f 513/2/6 514/2/6 519/2/6
f 518/7/6 513/7/6 519/7/6
f 519/2/6 514/2/6 520/2/6
f 521/8/6 522/8/6 525/8/6
f 525/8/6 522/8/6 526/8/6
f 523/8/6 524/8/6 527/8/6
f 527/8/6 524/8/6 528/8/6
f 529/3/6 530/3/6 532/3/6
f 532/3/6 530/3/6 533/3/6
f 531/3/6 532/3/6 535/3/6
f 535/3/6 532/3/6 536/3/6
f 533/3/6 534/3/6 539/3/6
f 539/3/6 534/3/6 540/3/6
f 536/3/6 537/3/6 541/3/6
f 541/3/6 537/3/6 542/3/6
f 538/3/6 539/3/6 543/3/6
f 543/3/6 539/3/6 544/3/6
f 545/3/6 546/3/6 547/3/6
f 547/3/6 546/3/6 548/3/6
f 545/3/6 547/3/6 549/3/6
f 549/3/6 547/3/6 550/3/6
f 550/3/6 547/3/6 551/3/6
f 548/3/6 546/3/6 552/3/6
f 552/3/6 546/3/6 553/3/6
f 554/3/6 555/3/6 557/3/6
f 556/3/6 557/3/6 558/3/6
f 557/3/6 555/3/6 559/3/6
f 558/3/6 557/3/6 559/3/6
