# MagicaVoxel @ Ephtracy

# material
mtllib Character Model Tony.mtl
usemtl palette

# normals
vn -1 0 0
vn 1 0 0
vn 0 0 1
vn 0 0 -1
vn 0 -1 0
vn 0 1 0

# texcoords
vt 0.0292969 0.5
vt 0.701172 0.5
vt 0.720703 0.5
vt 0.732422 0.5
vt 0.751953 0.5
vt 0.826172 0.5
vt 0.837891 0.5
vt 0.857422 0.5
vt 0.869141 0.5
vt 0.978516 0.5

# verts
v -7 10 2
v -7 10 -0
v -7 11 2
v -7 11 -0
v -6 8 3
v -6 8 -0
v -6 9 3
v -6 9 2
v -6 10 2
v -6 10 -0
v -4 12 1
v -4 12 -1
v -4 13 2
v -4 13 1
v -4 13 -1
v -4 13 -2
v -4 14 -0
v -4 14 -2
v -4 15 2
v -4 15 -0
v -3 0 3
v -3 0 -0
v -3 1 3
v -3 1 2
v -3 1 -0
v -3 2 2
v -3 2 -0
v -3 4 2
v -3 4 -0
v -3 11 -0
v -3 11 -1
v -3 12 2
v -3 12 1
v -3 12 -0
v -3 12 -1
v -3 12 -2
v -3 13 3
v -3 13 2
v -3 13 1
v -3 13 -1
v -3 13 -2
v -3 14 -0
v -3 14 -2
v -3 15 3
v -3 15 2
v -3 15 -0
v -3 15 -2
v -3 16 2
v -3 16 -0
v -2 4 2
v -2 4 -0
v -2 7 -0
v -2 7 -1
v -2 8 2
v -2 8 -0
v -2 9 -0
v -2 9 -1
v -2 10 3
v -2 10 -1
v -2 11 -0
v -2 11 -1
v -2 11 -2
v -2 12 3
v -2 12 2
v -2 12 -0
v -2 12 -1
v -2 12 -2
v -2 12 -3
v -2 13 3
v -2 13 2
v -2 14 4
v -2 14 3
v -2 15 4
v -2 15 3
v -2 15 2
v -2 15 -0
v -2 15 -2
v -2 15 -3
v -2 16 3
v -2 16 2
v -2 16 -0
v -2 16 -1
v -2 16 -2
v -2 17 2
v -2 17 -1
v -1 6 -0
v -1 6 -1
v -1 7 -0
v -1 7 -1
v -1 9 2
v -1 9 -0
v -1 10 2
v -1 10 -0
v -1 10 -1
v -1 10 -2
v -1 11 -1
v -1 11 -2
v -1 11 -3
v -1 12 -2
v -1 12 -3
v -1 12 -4
v -1 13 4
v -1 13 3
v -1 14 4
v -1 14 3
v -1 15 4
v -1 15 3
v -1 15 -2
v -1 15 -3
v -1 15 -4
v -1 16 4
v -1 16 3
v -1 16 2
v -1 16 -1
v -1 16 -2
v -1 16 -3
v -1 17 3
v -1 17 2
v -1 17 -1
v -1 17 -2
v 1 0 3
v 1 0 -0
v 1 1 3
v 1 1 2
v 1 1 -0
v 1 2 2
v 1 2 -0
v 1 3 2
v 1 3 -0
v 1 7 -0
v 1 7 -1
v 1 9 -0
v 1 9 -1
v 5 8 3
v 5 8 2
v 5 9 3
v 5 9 2
v 5 9 -0
v 5 11 2
v 5 11 -0
v -5 8 3
v -5 8 2
v -5 9 3
v -5 9 2
v -5 9 -0
v -5 11 2
v -5 11 -0
v -1 0 3
v -1 0 -0
v -1 1 3
v -1 1 2
v -1 1 -0
v -1 2 2
v -1 2 -0
v -1 3 2
v -1 3 -0
v -1 7 -0
v -1 7 -1
v -1 9 -0
v -1 9 -1
v 1 6 -0
v 1 6 -1
v 1 7 -0
v 1 7 -1
v 1 9 2
v 1 9 -0
v 1 10 2
v 1 10 -0
v 1 10 -1
v 1 10 -2
v 1 11 -1
v 1 11 -2
v 1 11 -3
v 1 12 -2
v 1 12 -3
v 1 12 -4
v 1 13 4
v 1 13 3
v 1 14 4
v 1 14 3
v 1 15 4
v 1 15 3
v 1 15 -2
v 1 15 -3
v 1 15 -4
v 1 16 4
v 1 16 3
v 1 16 2
v 1 16 -1
v 1 16 -2
v 1 16 -3
v 1 17 3
v 1 17 2
v 1 17 -1
v 1 17 -2
v 2 4 2
v 2 4 -0
v 2 7 -0
v 2 7 -1
v 2 8 2
v 2 8 -0
v 2 9 -0
v 2 9 -1
v 2 10 3
v 2 10 -1
v 2 11 -0
v 2 11 -1
v 2 11 -2
v 2 12 3
v 2 12 2
v 2 12 -0
v 2 12 -1
v 2 12 -2
v 2 12 -3
v 2 13 3
v 2 13 2
v 2 14 4
v 2 14 3
v 2 15 4
v 2 15 3
v 2 15 2
v 2 15 -0
v 2 15 -2
v 2 15 -3
v 2 16 3
v 2 16 2
v 2 16 -0
v 2 16 -1
v 2 16 -2
v 2 17 2
v 2 17 -1
v 3 0 3
v 3 0 -0
v 3 1 3
v 3 1 2
v 3 1 -0
v 3 2 2
v 3 2 -0
v 3 4 2
v 3 4 -0
v 3 11 -0
v 3 11 -1
v 3 12 2
v 3 12 1
v 3 12 -0
v 3 12 -1
v 3 12 -2
v 3 13 3
v 3 13 2
v 3 13 1
v 3 13 -1
v 3 13 -2
v 3 14 -0
v 3 14 -2
v 3 15 3
v 3 15 2
v 3 15 -0
v 3 15 -2
v 3 16 2
v 3 16 -0
v 4 12 1
v 4 12 -1
v 4 13 2
v 4 13 1
v 4 13 -1
v 4 13 -2
v 4 14 -0
v 4 14 -2
v 4 15 2
v 4 15 -0
v 6 8 3
v 6 8 -0
v 6 9 3
v 6 9 2
v 6 10 2
v 6 10 -0
v 7 10 2
v 7 10 -0
v 7 11 2
v 7 11 -0
v -2 14 4
v -2 15 4
v -1 13 4
v -1 14 4
v -1 15 4
v -1 16 4
v 1 13 4
v 1 14 4
v 1 15 4
v 1 16 4
v 2 14 4
v 2 15 4
v -6 8 3
v -6 9 3
v -5 8 3
v -5 9 3
v -3 0 3
v -3 1 3
v -3 13 3
v -3 15 3
v -2 10 3
v -2 12 3
v -2 13 3
v -2 14 3
v -2 15 3
v -2 16 3
v -1 0 3
v -1 1 3
v -1 10 3
v -1 11 3
v -1 12 3
v -1 13 3
v -1 14 3
v -1 15 3
v -1 16 3
v -1 17 3
v 1 0 3
v 1 1 3
v 1 10 3
v 1 11 3
v 1 12 3
v 1 13 3
v 1 14 3
v 1 15 3
v 1 16 3
v 1 17 3
v 2 10 3
v 2 12 3
v 2 13 3
v 2 14 3
v 2 15 3
v 2 16 3
v 3 0 3
v 3 1 3
v 3 13 3
v 3 15 3
v 5 8 3
v 5 9 3
v 6 8 3
v 6 9 3
v -7 10 2
v -7 11 2
v -6 9 2
v -6 10 2
v -5 8 2
v -5 9 2
v -5 11 2
v -4 8 2
v -4 9 2
v -4 13 2
v -4 15 2
v -3 1 2
v -3 2 2
v -3 4 2
v -3 12 2
v -3 13 2
v -3 15 2
v -3 16 2
v -2 4 2
v -2 8 2
v -2 12 2
v -2 13 2
v -2 15 2
v -2 16 2
v -2 17 2
v -1 1 2
v -1 2 2
v -1 3 2
v -1 8 2
v -1 9 2
v -1 10 2
v -1 16 2
v -1 17 2
v 1 1 2
v 1 2 2
v 1 3 2
v 1 8 2
v 1 9 2
v 1 10 2
v 1 16 2
v 1 17 2
v 2 4 2
v 2 8 2
v 2 12 2
v 2 13 2
v 2 15 2
v 2 16 2
v 2 17 2
v 3 1 2
v 3 2 2
v 3 4 2
v 3 12 2
v 3 13 2
v 3 15 2
v 3 16 2
v 4 8 2
v 4 9 2
v 4 13 2
v 4 15 2
v 5 8 2
v 5 9 2
v 5 11 2
v 6 9 2
v 6 10 2
v 7 10 2
v 7 11 2
v -4 12 1
v -4 13 1
v -3 12 1
v -3 13 1
v 3 12 1
v 3 13 1
v 4 12 1
v 4 13 1
v -3 11 -0
v -3 12 -0
v -2 11 -0
v -2 12 -0
v 2 11 -0
v 2 12 -0
v 3 11 -0
v 3 12 -0
v -7 10 -0
v -7 11 -0
v -6 8 -0
v -6 10 -0
v -5 9 -0
v -5 11 -0
v -4 8 -0
v -4 9 -0
v -4 14 -0
v -4 15 -0
v -3 0 -0
v -3 1 -0
v -3 2 -0
v -3 4 -0
v -3 14 -0
v -3 15 -0
v -3 16 -0
v -2 4 -0
v -2 7 -0
v -2 8 -0
v -2 9 -0
v -2 15 -0
v -2 16 -0
v -1 0 -0
v -1 1 -0
v -1 2 -0
v -1 3 -0
v -1 6 -0
v -1 7 -0
v -1 9 -0
v -1 10 -0
v 1 0 -0
v 1 1 -0
v 1 2 -0
v 1 3 -0
v 1 6 -0
v 1 7 -0
v 1 9 -0
v 1 10 -0
v 2 4 -0
v 2 7 -0
v 2 8 -0
v 2 9 -0
v 2 15 -0
v 2 16 -0
v 3 0 -0
v 3 1 -0
v 3 2 -0
v 3 4 -0
v 3 14 -0
v 3 15 -0
v 3 16 -0
v 4 8 -0
v 4 9 -0
v 4 14 -0
v 4 15 -0
v 5 9 -0
v 5 11 -0
v 6 8 -0
v 6 10 -0
v 7 10 -0
v 7 11 -0
v -4 12 -1
v -4 13 -1
v -3 11 -1
v -3 12 -1
v -3 13 -1
v -2 7 -1
v -2 9 -1
v -2 10 -1
v -2 11 -1
v -2 12 -1
v -2 16 -1
v -2 17 -1
v -1 6 -1
v -1 7 -1
v -1 9 -1
v -1 10 -1
v -1 11 -1
v -1 16 -1
v -1 17 -1
v 1 6 -1
v 1 7 -1
v 1 9 -1
v 1 10 -1
v 1 11 -1
v 1 16 -1
v 1 17 -1
v 2 7 -1
v 2 9 -1
v 2 10 -1
v 2 11 -1
v 2 12 -1
v 2 16 -1
v 2 17 -1
v 3 11 -1
v 3 12 -1
v 3 13 -1
v 4 12 -1
v 4 13 -1
v -4 13 -2
v -4 14 -2
v -3 12 -2
v -3 13 -2
v -3 14 -2
v -3 15 -2
v -2 11 -2
v -2 12 -2
v -2 15 -2
v -2 16 -2
v -1 10 -2
v -1 11 -2
v -1 12 -2
v -1 15 -2
v -1 16 -2
v -1 17 -2
v 1 10 -2
v 1 11 -2
v 1 12 -2
v 1 15 -2
v 1 16 -2
v 1 17 -2
v 2 11 -2
v 2 12 -2
v 2 15 -2
v 2 16 -2
v 3 12 -2
v 3 13 -2
v 3 14 -2
v 3 15 -2
v 4 13 -2
v 4 14 -2
v -2 12 -3
v -2 15 -3
v -1 11 -3
v -1 12 -3
v -1 15 -3
v -1 16 -3
v 1 11 -3
v 1 12 -3
v 1 15 -3
v 1 16 -3
v 2 12 -3
v 2 15 -3
v -1 12 -4
v -1 15 -4
v 1 12 -4
v 1 15 -4
v -3 0 3
v -1 0 3
v 1 0 3
v 3 0 3
v -3 0 -0
v -1 0 -0
v 1 0 -0
v 3 0 -0
v -1 3 2
v 1 3 2
v -1 3 -0
v 1 3 -0
v -1 6 -0
v 1 6 -0
v -1 6 -1
v 1 6 -1
v -2 7 -0
v -1 7 -0
v 1 7 -0
v 2 7 -0
v -2 7 -1
v -1 7 -1
v 1 7 -1
v 2 7 -1
v -6 8 3
v -5 8 3
v 5 8 3
v 6 8 3
v -5 8 2
v -4 8 2
v -2 8 2
v 2 8 2
v 4 8 2
v 5 8 2
v -6 8 -0
v -4 8 -0
v -2 8 -0
v 2 8 -0
v 4 8 -0
v 6 8 -0
v -2 10 3
v -1 10 3
v 1 10 3
v 2 10 3
v -7 10 2
v -6 10 2
v -1 10 2
v 1 10 2
v 6 10 2
v 7 10 2
v -7 10 -0
v -6 10 -0
v -1 10 -0
v 1 10 -0
v 6 10 -0
v 7 10 -0
v -2 10 -1
v -1 10 -1
v 1 10 -1
v 2 10 -1
v -1 10 -2
v 1 10 -2
v -3 11 -0
v -2 11 -0
v 2 11 -0
v 3 11 -0
v -3 11 -1
v -2 11 -1
v -1 11 -1
v 1 11 -1
v 2 11 -1
v 3 11 -1
v -2 11 -2
v -1 11 -2
v 1 11 -2
v 2 11 -2
v -1 11 -3
v 1 11 -3
v -3 12 2
v -2 12 2
v 2 12 2
v 3 12 2
v -4 12 1
v -3 12 1
v 3 12 1
v 4 12 1
v -3 12 -0
v -2 12 -0
v 2 12 -0
v 3 12 -0
v -4 12 -1
v -3 12 -1
v -2 12 -1
v 2 12 -1
v 3 12 -1
v 4 12 -1
v -3 12 -2
v -2 12 -2
v -1 12 -2
v 1 12 -2
v 2 12 -2
v 3 12 -2
v -2 12 -3
v -1 12 -3
v 1 12 -3
v 2 12 -3
v -1 12 -4
v 1 12 -4
v -1 13 4
v 1 13 4
v -3 13 3
v -2 13 3
v -1 13 3
v 1 13 3
v 2 13 3
v 3 13 3
v -4 13 2
v -3 13 2
v -2 13 2
v 2 13 2
v 3 13 2
v 4 13 2
v -4 13 1
v -3 13 1
v 3 13 1
v 4 13 1
v -4 13 -1
v -3 13 -1
v 3 13 -1
v 4 13 -1
v -4 13 -2
v -3 13 -2
v 3 13 -2
v 4 13 -2
v -2 14 4
v -1 14 4
v 1 14 4
v 2 14 4
v -2 14 3
v -1 14 3
v 1 14 3
v 2 14 3
v -3 1 3
v -1 1 3
v 1 1 3
v 3 1 3
v -3 1 2
v -1 1 2
v 1 1 2
v 3 1 2
v -3 4 2
v -2 4 2
v 2 4 2
v 3 4 2
v -3 4 -0
v -2 4 -0
v 2 4 -0
v 3 4 -0
v -1 7 -0
v 1 7 -0
v -1 7 -1
v 1 7 -1
v -6 9 3
v -5 9 3
v 5 9 3
v 6 9 3
v -6 9 2
v -5 9 2
v -4 9 2
v -1 9 2
v 1 9 2
v 4 9 2
v 5 9 2
v 6 9 2
v -5 9 -0
v -4 9 -0
v -2 9 -0
v -1 9 -0
v 1 9 -0
v 2 9 -0
v 4 9 -0
v 5 9 -0
v -2 9 -1
v -1 9 -1
v 1 9 -1
v 2 9 -1
v -7 11 2
v -5 11 2
v 5 11 2
v 7 11 2
v -7 11 -0
v -5 11 -0
v 5 11 -0
v 7 11 -0
v -4 14 -0
v -3 14 -0
v 3 14 -0
v 4 14 -0
v -4 14 -2
v -3 14 -2
v 3 14 -2
v 4 14 -2
v -2 15 4
v -1 15 4
v 1 15 4
v 2 15 4
v -3 15 3
v -2 15 3
v -1 15 3
v 1 15 3
v 2 15 3
v 3 15 3
v -4 15 2
v -3 15 2
v -2 15 2
v 2 15 2
v 3 15 2
v 4 15 2
v -4 15 -0
v -3 15 -0
v -2 15 -0
v 2 15 -0
v 3 15 -0
v 4 15 -0
v -3 15 -2
v -2 15 -2
v -1 15 -2
v 1 15 -2
v 2 15 -2
v 3 15 -2
v -2 15 -3
v -1 15 -3
v 1 15 -3
v 2 15 -3
v -1 15 -4
v 1 15 -4
v -1 16 4
v 1 16 4
v -2 16 3
v -1 16 3
v 1 16 3
v 2 16 3
v -3 16 2
v -2 16 2
v -1 16 2
v 1 16 2
v 2 16 2
v 3 16 2
v -3 16 -0
v -2 16 -0
v 2 16 -0
v 3 16 -0
v -2 16 -1
v -1 16 -1
v 1 16 -1
v 2 16 -1
v -2 16 -2
v -1 16 -2
v 1 16 -2
v 2 16 -2
v -1 16 -3
v 1 16 -3
v -1 17 3
v 1 17 3
v -2 17 2
v -1 17 2
v 1 17 2
v 2 17 2
v -2 17 -1
v -1 17 -1
v 1 17 -1
v 2 17 -1
v -1 17 -2
v 1 17 -2

# faces
f 3/5/1 2/5/1 1/5/1
f 4/5/1 2/5/1 3/5/1
f 7/5/1 6/5/1 5/5/1
f 8/5/1 6/5/1 7/5/1
f 9/5/1 6/5/1 8/5/1
f 10/5/1 6/5/1 9/5/1
f 14/6/1 12/6/1 11/6/1
f 15/6/1 12/6/1 14/6/1
f 17/6/1 14/6/1 13/6/1
f 17/6/1 16/6/1 15/6/1
f 17/6/1 15/6/1 14/6/1
f 18/6/1 16/6/1 17/6/1
f 19/6/1 17/6/1 13/6/1
f 20/6/1 17/6/1 19/6/1
f 23/8/1 22/8/1 21/8/1
f 24/8/1 22/8/1 23/8/1
f 25/8/1 22/8/1 24/8/1
f 26/2/1 25/2/1 24/2/1
f 27/2/1 25/2/1 26/2/1
f 28/4/1 27/4/1 26/4/1
f 29/4/1 27/4/1 28/4/1
f 34/6/1 31/6/1 30/6/1
f 35/6/1 31/6/1 34/6/1
f 38/6/1 33/6/1 32/6/1
f 39/6/1 33/6/1 38/6/1
f 40/6/1 36/6/1 35/6/1
f 41/6/1 36/6/1 40/6/1
f 44/6/1 38/6/1 37/6/1
f 45/6/1 38/6/1 44/6/1
f 46/6/1 43/6/1 42/6/1
f 47/6/1 43/6/1 46/6/1
f 48/6/1 46/6/1 45/6/1
f 49/6/1 46/6/1 48/6/1
f 52/7/1 51/7/1 50/7/1
f 54/7/1 52/7/1 50/7/1
f 54/7/1 53/7/1 52/7/1
f 55/7/1 53/7/1 54/7/1
f 56/7/1 53/7/1 55/7/1
f 57/7/1 53/7/1 56/7/1
f 60/5/1 59/5/1 58/5/1
f 61/5/1 59/5/1 60/5/1
f 63/5/1 60/5/1 58/5/1
f 64/5/1 60/5/1 63/5/1
f 65/5/1 60/5/1 64/5/1
f 66/6/1 62/6/1 61/6/1
f 67/6/1 62/6/1 66/6/1
f 69/10/1 64/10/1 63/10/1
f 70/10/1 64/10/1 69/10/1
f 73/6/1 72/6/1 71/6/1
f 74/6/1 72/6/1 73/6/1
f 77/6/1 68/6/1 67/6/1
f 78/6/1 68/6/1 77/6/1
f 79/6/1 75/6/1 74/6/1
f 80/6/1 75/6/1 79/6/1
f 81/6/1 77/6/1 76/6/1
f 82/6/1 77/6/1 81/6/1
f 83/6/1 77/6/1 82/6/1
f 84/6/1 81/6/1 80/6/1
f 84/6/1 82/6/1 81/6/1
f 85/6/1 82/6/1 84/6/1
f 88/7/1 87/7/1 86/7/1
f 89/7/1 87/7/1 88/7/1
f 92/5/1 91/5/1 90/5/1
f 93/5/1 91/5/1 92/5/1
f 96/6/1 95/6/1 94/6/1
f 97/6/1 95/6/1 96/6/1
f 99/6/1 98/6/1 97/6/1
f 100/6/1 98/6/1 99/6/1
f 104/6/1 103/6/1 102/6/1
f 105/6/1 103/6/1 104/6/1
f 109/6/1 101/6/1 100/6/1
f 110/6/1 101/6/1 109/6/1
f 111/6/1 107/6/1 106/6/1
f 112/6/1 107/6/1 111/6/1
f 115/6/1 109/6/1 108/6/1
f 116/6/1 109/6/1 115/6/1
f 117/6/1 113/6/1 112/6/1
f 118/6/1 113/6/1 117/6/1
f 119/6/1 115/6/1 114/6/1
f 120/6/1 115/6/1 119/6/1
f 123/8/1 122/8/1 121/8/1
f 124/8/1 122/8/1 123/8/1
f 125/8/1 122/8/1 124/8/1
f 126/2/1 125/2/1 124/2/1
f 127/2/1 125/2/1 126/2/1
f 128/4/1 127/4/1 126/4/1
f 129/4/1 127/4/1 128/4/1
f 132/7/1 131/7/1 130/7/1
f 133/7/1 131/7/1 132/7/1
f 136/5/1 135/5/1 134/5/1
f 137/5/1 135/5/1 136/5/1
f 139/5/1 138/5/1 137/5/1
f 140/5/1 138/5/1 139/5/1
f 141/5/2 142/5/2 143/5/2
f 143/5/2 142/5/2 144/5/2
f 144/5/2 145/5/2 146/5/2
f 146/5/2 145/5/2 147/5/2
f 148/8/2 149/8/2 150/8/2
f 150/8/2 149/8/2 151/8/2
f 151/8/2 149/8/2 152/8/2
f 151/2/2 152/2/2 153/2/2
f 153/2/2 152/2/2 154/2/2
f 153/4/2 154/4/2 155/4/2
f 155/4/2 154/4/2 156/4/2
f 157/7/2 158/7/2 159/7/2
f 159/7/2 158/7/2 160/7/2
f 161/7/2 162/7/2 163/7/2
f 163/7/2 162/7/2 164/7/2
f 165/5/2 166/5/2 167/5/2
f 167/5/2 166/5/2 168/5/2
f 169/6/2 170/6/2 171/6/2
f 171/6/2 170/6/2 172/6/2
f 172/6/2 173/6/2 174/6/2
f 174/6/2 173/6/2 175/6/2
f 177/6/2 178/6/2 179/6/2
f 179/6/2 178/6/2 180/6/2
f 175/6/2 176/6/2 184/6/2
f 184/6/2 176/6/2 185/6/2
f 181/6/2 182/6/2 186/6/2
f 186/6/2 182/6/2 187/6/2
f 183/6/2 184/6/2 190/6/2
f 190/6/2 184/6/2 191/6/2
f 187/6/2 188/6/2 192/6/2
f 192/6/2 188/6/2 193/6/2
f 189/6/2 190/6/2 194/6/2
f 194/6/2 190/6/2 195/6/2
f 196/7/2 197/7/2 198/7/2
f 196/7/2 198/7/2 200/7/2
f 198/7/2 199/7/2 200/7/2
f 200/7/2 199/7/2 201/7/2
f 201/7/2 199/7/2 202/7/2
f 202/7/2 199/7/2 203/7/2
f 204/5/2 205/5/2 206/5/2
f 206/5/2 205/5/2 207/5/2
f 204/5/2 206/5/2 209/5/2
f 209/5/2 206/5/2 210/5/2
f 210/5/2 206/5/2 211/5/2
f 207/6/2 208/6/2 212/6/2
f 212/6/2 208/6/2 213/6/2
f 209/10/2 210/10/2 215/10/2
f 215/10/2 210/10/2 216/10/2
f 217/6/2 218/6/2 219/6/2
f 219/6/2 218/6/2 220/6/2
f 213/6/2 214/6/2 223/6/2
f 223/6/2 214/6/2 224/6/2
f 220/6/2 221/6/2 225/6/2
f 225/6/2 221/6/2 226/6/2
f 222/6/2 223/6/2 227/6/2
f 227/6/2 223/6/2 228/6/2
f 228/6/2 223/6/2 229/6/2
f 226/6/2 227/6/2 230/6/2
f 227/6/2 228/6/2 230/6/2
f 230/6/2 228/6/2 231/6/2
f 232/8/2 233/8/2 234/8/2
f 234/8/2 233/8/2 235/8/2
f 235/8/2 233/8/2 236/8/2
f 235/2/2 236/2/2 237/2/2
f 237/2/2 236/2/2 238/2/2
f 237/4/2 238/4/2 239/4/2
f 239/4/2 238/4/2 240/4/2
f 241/6/2 242/6/2 245/6/2
f 245/6/2 242/6/2 246/6/2
f 243/6/2 244/6/2 249/6/2
f 249/6/2 244/6/2 250/6/2
f 246/6/2 247/6/2 251/6/2
f 251/6/2 247/6/2 252/6/2
f 248/6/2 249/6/2 255/6/2
f 255/6/2 249/6/2 256/6/2
f 253/6/2 254/6/2 257/6/2
f 257/6/2 254/6/2 258/6/2
f 256/6/2 257/6/2 259/6/2
f 259/6/2 257/6/2 260/6/2
f 261/6/2 262/6/2 264/6/2
f 264/6/2 262/6/2 265/6/2
f 263/6/2 264/6/2 267/6/2
f 265/6/2 266/6/2 267/6/2
f 264/6/2 265/6/2 267/6/2
f 267/6/2 266/6/2 268/6/2
f 263/6/2 267/6/2 269/6/2
f 269/6/2 267/6/2 270/6/2
f 271/5/2 272/5/2 273/5/2
f 273/5/2 272/5/2 274/5/2
f 274/5/2 272/5/2 275/5/2
f 275/5/2 272/5/2 276/5/2
f 277/5/2 278/5/2 279/5/2
f 279/5/2 278/5/2 280/5/2
f 284/6/3 282/6/3 281/6/3
f 285/6/3 282/6/3 284/6/3
f 287/6/3 284/6/3 283/6/3
f 287/6/3 286/6/3 285/6/3
f 287/6/3 285/6/3 284/6/3
f 288/6/3 286/6/3 287/6/3
f 289/6/3 286/6/3 288/6/3
f 290/6/3 286/6/3 289/6/3
f 291/6/3 289/6/3 288/6/3
f 292/6/3 289/6/3 291/6/3
f 295/5/3 294/5/3 293/5/3
f 296/5/3 294/5/3 295/5/3
f 303/6/3 300/6/3 299/6/3
f 304/6/3 300/6/3 303/6/3
f 305/6/3 300/6/3 304/6/3
f 307/8/3 298/8/3 297/8/3
f 308/8/3 298/8/3 307/8/3
f 309/5/3 302/5/3 301/5/3
f 310/5/3 302/5/3 309/5/3
f 311/10/3 303/10/3 302/10/3
f 311/5/3 302/5/3 310/5/3
f 312/5/3 304/5/3 303/5/3
f 312/10/3 303/10/3 311/10/3
f 313/5/3 304/5/3 312/5/3
f 314/6/3 306/6/3 305/6/3
f 315/6/3 306/6/3 314/6/3
f 319/3/3 310/3/3 309/3/3
f 320/5/3 311/5/3 310/5/3
f 320/3/3 310/3/3 319/3/3
f 320/5/3 312/5/3 311/5/3
f 321/5/3 312/5/3 320/5/3
f 322/5/3 312/5/3 321/5/3
f 325/6/3 316/6/3 315/6/3
f 326/6/3 316/6/3 325/6/3
f 327/5/3 320/5/3 319/5/3
f 327/5/3 321/5/3 320/5/3
f 328/10/3 322/10/3 321/10/3
f 328/5/3 321/5/3 327/5/3
f 329/5/3 323/5/3 322/5/3
f 329/10/3 322/10/3 328/10/3
f 330/5/3 323/5/3 329/5/3
f 331/6/3 325/6/3 324/6/3
f 332/6/3 325/6/3 331/6/3
f 333/8/3 318/8/3 317/8/3
f 334/8/3 318/8/3 333/8/3
f 335/6/3 331/6/3 330/6/3
f 335/6/3 330/6/3 329/6/3
f 336/6/3 331/6/3 335/6/3
f 339/5/3 338/5/3 337/5/3
f 340/5/3 338/5/3 339/5/3
f 344/5/3 342/5/3 341/5/3
f 346/5/3 344/5/3 343/5/3
f 347/5/3 342/5/3 344/5/3
f 347/5/3 344/5/3 346/5/3
f 348/5/3 346/5/3 345/5/3
f 349/5/3 346/5/3 348/5/3
f 356/6/3 351/6/3 350/6/3
f 357/6/3 351/6/3 356/6/3
f 359/4/3 354/4/3 353/4/3
f 360/7/3 349/7/3 348/7/3
f 361/6/3 356/6/3 355/6/3
f 362/6/3 356/6/3 361/6/3
f 363/6/3 358/6/3 357/6/3
f 364/6/3 358/6/3 363/6/3
f 366/2/3 353/2/3 352/2/3
f 367/4/3 359/4/3 353/4/3
f 367/2/3 353/2/3 366/2/3
f 368/4/3 359/4/3 367/4/3
f 369/7/3 360/7/3 359/7/3
f 369/7/3 349/7/3 360/7/3
f 370/7/3 349/7/3 369/7/3
f 372/6/3 365/6/3 364/6/3
f 373/6/3 365/6/3 372/6/3
f 376/4/3 359/4/3 368/4/3
f 377/7/3 369/7/3 359/7/3
f 377/9/3 370/9/3 369/9/3
f 378/5/3 371/5/3 370/5/3
f 378/9/3 370/9/3 377/9/3
f 379/5/3 371/5/3 378/5/3
f 382/7/3 377/7/3 359/7/3
f 382/4/3 376/4/3 375/4/3
f 382/7/3 378/7/3 377/7/3
f 382/4/3 359/4/3 376/4/3
f 383/7/3 378/7/3 382/7/3
f 387/6/3 381/6/3 380/6/3
f 388/6/3 381/6/3 387/6/3
f 389/2/3 375/2/3 374/2/3
f 390/4/3 382/4/3 375/4/3
f 390/2/3 375/2/3 389/2/3
f 391/4/3 382/4/3 390/4/3
f 392/6/3 385/6/3 384/6/3
f 393/6/3 385/6/3 392/6/3
f 394/6/3 387/6/3 386/6/3
f 395/6/3 387/6/3 394/6/3
f 396/7/3 378/7/3 383/7/3
f 397/7/3 378/7/3 396/7/3
f 398/6/3 394/6/3 393/6/3
f 399/6/3 394/6/3 398/6/3
f 400/5/3 397/5/3 396/5/3
f 401/5/3 397/5/3 400/5/3
f 403/5/3 402/5/3 401/5/3
f 404/5/3 402/5/3 403/5/3
f 405/5/3 402/5/3 404/5/3
f 406/5/3 402/5/3 405/5/3
f 409/6/3 408/6/3 407/6/3
f 410/6/3 408/6/3 409/6/3
f 413/6/3 412/6/3 411/6/3
f 414/6/3 412/6/3 413/6/3
f 417/6/3 416/6/3 415/6/3
f 418/6/3 416/6/3 417/6/3
f 421/6/3 420/6/3 419/6/3
f 422/6/3 420/6/3 421/6/3
f 423/5/4 424/5/4 426/5/4
f 425/5/4 426/5/4 427/5/4
f 426/5/4 424/5/4 428/5/4
f 427/5/4 426/5/4 428/5/4
f 425/5/4 427/5/4 429/5/4
f 429/5/4 427/5/4 430/5/4
f 431/6/4 432/6/4 437/6/4
f 437/6/4 432/6/4 438/6/4
f 435/4/4 436/4/4 440/4/4
f 429/7/4 430/7/4 442/7/4
f 442/7/4 430/7/4 443/7/4
f 438/6/4 439/6/4 444/6/4
f 444/6/4 439/6/4 445/6/4
f 433/8/4 434/8/4 446/8/4
f 434/2/4 435/2/4 447/2/4
f 446/8/4 434/8/4 447/8/4
f 435/4/4 440/4/4 448/4/4
f 447/2/4 435/2/4 448/2/4
f 448/4/4 440/4/4 449/4/4
f 440/7/4 441/7/4 450/7/4
f 450/7/4 441/7/4 451/7/4
f 449/4/4 440/4/4 457/4/4
f 440/7/4 450/7/4 458/7/4
f 451/9/4 452/9/4 459/9/4
f 452/5/4 453/5/4 460/5/4
f 459/9/4 452/9/4 460/9/4
f 460/5/4 453/5/4 461/5/4
f 458/7/4 459/7/4 462/7/4
f 440/7/4 458/7/4 462/7/4
f 456/4/4 457/4/4 462/4/4
f 457/4/4 440/4/4 462/4/4
f 462/7/4 459/7/4 463/7/4
f 454/8/4 455/8/4 468/8/4
f 455/2/4 456/2/4 469/2/4
f 468/8/4 455/8/4 469/8/4
f 456/4/4 462/4/4 470/4/4
f 469/2/4 456/2/4 470/2/4
f 470/4/4 462/4/4 471/4/4
f 466/6/4 467/6/4 473/6/4
f 473/6/4 467/6/4 474/6/4
f 464/7/4 465/7/4 475/7/4
f 475/7/4 465/7/4 476/7/4
f 472/6/4 473/6/4 477/6/4
f 477/6/4 473/6/4 478/6/4
f 475/5/4 476/5/4 479/5/4
f 475/5/4 479/5/4 481/5/4
f 479/5/4 480/5/4 481/5/4
f 481/5/4 480/5/4 482/5/4
f 482/5/4 480/5/4 483/5/4
f 483/5/4 480/5/4 484/5/4
f 485/6/4 486/6/4 488/6/4
f 488/6/4 486/6/4 489/6/4
f 487/6/4 488/6/4 493/6/4
f 493/6/4 488/6/4 494/6/4
f 490/7/4 491/7/4 498/7/4
f 498/7/4 491/7/4 499/7/4
f 492/5/4 493/5/4 500/5/4
f 500/5/4 493/5/4 501/5/4
f 495/6/4 496/6/4 502/6/4
f 502/6/4 496/6/4 503/6/4
f 497/7/4 498/7/4 504/7/4
f 504/7/4 498/7/4 505/7/4
f 505/7/4 506/7/4 511/7/4
f 511/7/4 506/7/4 512/7/4
f 507/5/4 508/5/4 513/5/4
f 513/5/4 508/5/4 514/5/4
f 509/6/4 510/6/4 516/6/4
f 516/6/4 510/6/4 517/6/4
f 514/6/4 515/6/4 518/6/4
f 518/6/4 515/6/4 519/6/4
f 519/6/4 520/6/4 521/6/4
f 521/6/4 520/6/4 522/6/4
f 523/6/4 524/6/4 526/6/4
f 526/6/4 524/6/4 527/6/4
f 525/6/4 526/6/4 530/6/4
f 527/6/4 528/6/4 530/6/4
f 526/6/4 527/6/4 530/6/4
f 530/6/4 528/6/4 531/6/4
f 529/6/4 530/6/4 534/6/4
f 534/6/4 530/6/4 535/6/4
f 531/6/4 532/6/4 536/6/4
f 536/6/4 532/6/4 537/6/4
f 533/6/4 534/6/4 539/6/4
f 539/6/4 534/6/4 540/6/4
f 537/6/4 538/6/4 543/6/4
f 543/6/4 538/6/4 544/6/4
f 540/6/4 541/6/4 545/6/4
f 545/6/4 541/6/4 546/6/4
f 542/6/4 543/6/4 547/6/4
f 547/6/4 543/6/4 548/6/4
f 546/6/4 547/6/4 549/6/4
f 549/6/4 547/6/4 550/6/4
f 550/6/4 547/6/4 551/6/4
f 551/6/4 547/6/4 552/6/4
f 550/6/4 551/6/4 553/6/4
f 553/6/4 551/6/4 554/6/4
f 555/6/4 556/6/4 558/6/4
f 558/6/4 556/6/4 559/6/4
f 557/6/4 558/6/4 561/6/4
f 561/6/4 558/6/4 562/6/4
f 559/6/4 560/6/4 563/6/4
f 563/6/4 560/6/4 564/6/4
f 562/6/4 563/6/4 565/6/4
f 565/6/4 563/6/4 566/6/4
f 567/6/4 568/6/4 569/6/4
f 569/6/4 568/6/4 570/6/4
f 575/8/5 572/8/5 571/8/5
f 576/8/5 572/8/5 575/8/5
f 577/8/5 574/8/5 573/8/5
f 578/8/5 574/8/5 577/8/5
f 581/4/5 580/4/5 579/4/5
f 582/4/5 580/4/5 581/4/5
f 585/7/5 584/7/5 583/7/5
f 586/7/5 584/7/5 585/7/5
f 591/7/5 588/7/5 587/7/5
f 592/7/5 588/7/5 591/7/5
f 593/7/5 590/7/5 589/7/5
f 594/7/5 590/7/5 593/7/5
f 599/5/5 596/5/5 595/5/5
f 604/5/5 598/5/5 597/5/5
f 605/5/5 599/5/5 595/5/5
f 605/5/5 600/5/5 599/5/5
f 606/7/5 601/7/5 600/7/5
f 606/5/5 600/5/5 605/5/5
f 607/7/5 601/7/5 606/7/5
f 608/7/5 603/7/5 602/7/5
f 609/5/5 604/5/5 603/5/5
f 609/7/5 603/7/5 608/7/5
f 610/5/5 598/5/5 604/5/5
f 610/5/5 604/5/5 609/5/5
f 617/5/5 612/5/5 611/5/5
f 617/3/5 613/3/5 612/3/5
f 618/5/5 614/5/5 613/5/5
f 618/3/5 613/3/5 617/3/5
f 621/5/5 616/5/5 615/5/5
f 622/5/5 616/5/5 621/5/5
f 623/5/5 617/5/5 611/5/5
f 624/5/5 614/5/5 618/5/5
f 625/5/5 620/5/5 619/5/5
f 626/5/5 620/5/5 625/5/5
f 627/5/5 624/5/5 623/5/5
f 627/5/5 623/5/5 611/5/5
f 628/5/5 624/5/5 627/5/5
f 629/5/5 614/5/5 624/5/5
f 629/5/5 624/5/5 628/5/5
f 630/5/5 614/5/5 629/5/5
f 631/6/5 629/6/5 628/6/5
f 632/6/5 629/6/5 631/6/5
f 637/6/5 634/6/5 633/6/5
f 638/6/5 634/6/5 637/6/5
f 641/6/5 636/6/5 635/6/5
f 642/6/5 636/6/5 641/6/5
f 643/6/5 639/6/5 638/6/5
f 644/6/5 639/6/5 643/6/5
f 645/6/5 641/6/5 640/6/5
f 646/6/5 641/6/5 645/6/5
f 647/6/5 645/6/5 644/6/5
f 648/6/5 645/6/5 647/6/5
f 654/6/5 650/6/5 649/6/5
f 655/6/5 652/6/5 651/6/5
f 657/6/5 654/6/5 653/6/5
f 657/6/5 650/6/5 654/6/5
f 658/6/5 650/6/5 657/6/5
f 659/6/5 656/6/5 655/6/5
f 659/6/5 655/6/5 651/6/5
f 660/6/5 656/6/5 659/6/5
f 661/6/5 657/6/5 653/6/5
f 662/6/5 657/6/5 661/6/5
f 665/6/5 656/6/5 660/6/5
f 666/6/5 656/6/5 665/6/5
f 667/6/5 663/6/5 662/6/5
f 668/6/5 663/6/5 667/6/5
f 671/6/5 665/6/5 664/6/5
f 672/6/5 665/6/5 671/6/5
f 673/6/5 669/6/5 668/6/5
f 674/6/5 669/6/5 673/6/5
f 675/6/5 671/6/5 670/6/5
f 676/6/5 671/6/5 675/6/5
f 677/6/5 675/6/5 674/6/5
f 678/6/5 675/6/5 677/6/5
f 683/6/5 680/6/5 679/6/5
f 684/6/5 680/6/5 683/6/5
f 688/6/5 682/6/5 681/6/5
f 689/6/5 682/6/5 688/6/5
f 690/6/5 686/6/5 685/6/5
f 691/6/5 686/6/5 690/6/5
f 693/6/5 688/6/5 687/6/5
f 694/6/5 688/6/5 693/6/5
f 695/6/5 692/6/5 691/6/5
f 696/6/5 692/6/5 695/6/5
f 701/6/5 698/6/5 697/6/5
f 702/6/5 698/6/5 701/6/5
f 703/6/5 700/6/5 699/6/5
f 704/6/5 700/6/5 703/6/5
f 709/6/5 706/6/5 705/6/5
f 710/6/5 706/6/5 709/6/5
f 711/6/5 708/6/5 707/6/5
f 712/6/5 708/6/5 711/6/5
f 713/8/6 714/8/6 717/8/6
f 717/8/6 714/8/6 718/8/6
f 715/8/6 716/8/6 719/8/6
f 719/8/6 716/8/6 720/8/6
f 721/4/6 722/4/6 725/4/6
f 725/4/6 722/4/6 726/4/6
f 723/4/6 724/4/6 727/4/6
f 727/4/6 724/4/6 728/4/6
f 729/7/6 730/7/6 731/7/6
f 731/7/6 730/7/6 732/7/6
f 733/5/6 734/5/6 737/5/6
f 737/5/6 734/5/6 738/5/6
f 735/5/6 736/5/6 743/5/6
f 743/5/6 736/5/6 744/5/6
f 738/5/6 739/5/6 745/5/6
f 739/7/6 740/7/6 746/7/6
f 745/5/6 739/5/6 746/5/6
f 746/7/6 740/7/6 747/7/6
f 747/7/6 740/7/6 748/7/6
f 741/7/6 742/7/6 749/7/6
f 749/7/6 742/7/6 750/7/6
f 742/5/6 743/5/6 751/5/6
f 750/7/6 742/7/6 751/7/6
f 751/5/6 743/5/6 752/5/6
f 747/7/6 748/7/6 753/7/6
f 753/7/6 748/7/6 754/7/6
f 749/7/6 750/7/6 755/7/6
f 755/7/6 750/7/6 756/7/6
f 757/5/6 758/5/6 761/5/6
f 761/5/6 758/5/6 762/5/6
f 759/5/6 760/5/6 763/5/6
f 763/5/6 760/5/6 764/5/6
f 765/6/6 766/6/6 769/6/6
f 769/6/6 766/6/6 770/6/6
f 767/6/6 768/6/6 771/6/6
f 771/6/6 768/6/6 772/6/6
f 773/6/6 774/6/6 778/6/6
f 778/6/6 774/6/6 779/6/6
f 775/6/6 776/6/6 780/6/6
f 780/6/6 776/6/6 781/6/6
f 777/6/6 778/6/6 784/6/6
f 784/6/6 778/6/6 785/6/6
f 781/6/6 782/6/6 786/6/6
f 786/6/6 782/6/6 787/6/6
f 783/6/6 784/6/6 789/6/6
f 789/6/6 784/6/6 790/6/6
f 787/6/6 788/6/6 793/6/6
f 793/6/6 788/6/6 794/6/6
f 790/6/6 791/6/6 795/6/6
f 795/6/6 791/6/6 796/6/6
f 792/6/6 793/6/6 799/6/6
f 799/6/6 793/6/6 800/6/6
f 796/6/6 797/6/6 801/6/6
f 801/6/6 797/6/6 802/6/6
f 798/6/6 799/6/6 803/6/6
f 803/6/6 799/6/6 804/6/6
f 802/6/6 803/6/6 805/6/6
f 805/6/6 803/6/6 806/6/6
f 807/6/6 808/6/6 810/6/6
f 810/6/6 808/6/6 811/6/6
f 809/6/6 810/6/6 814/6/6
f 814/6/6 810/6/6 815/6/6
f 811/6/6 812/6/6 816/6/6
f 816/6/6 812/6/6 817/6/6
f 813/6/6 814/6/6 819/6/6
f 819/6/6 814/6/6 820/6/6
f 817/6/6 818/6/6 821/6/6
f 821/6/6 818/6/6 822/6/6
f 823/6/6 824/6/6 827/6/6
f 827/6/6 824/6/6 828/6/6
f 825/6/6 826/6/6 829/6/6
f 829/6/6 826/6/6 830/6/6
f 828/6/6 829/6/6 831/6/6
f 831/6/6 829/6/6 832/6/6
f 833/6/6 834/6/6 836/6/6
f 836/6/6 834/6/6 837/6/6
f 835/6/6 836/6/6 839/6/6
f 837/6/6 838/6/6 839/6/6
f 836/6/6 837/6/6 839/6/6
f 839/6/6 838/6/6 840/6/6
f 840/6/6 838/6/6 841/6/6
f 841/6/6 838/6/6 842/6/6
f 840/6/6 841/6/6 843/6/6
f 843/6/6 841/6/6 844/6/6
