# MagicaVoxel @ Ephtracy

# material
mtllib Character Model Dustyn.mtl
usemtl palette

# normals
vn -1 0 0
vn 1 0 0
vn 0 0 1
vn 0 0 -1
vn 0 -1 0
vn 0 1 0

# texcoords
vt 0.880859 0.5
vt 0.912109 0.5
vt 0.939453 0.5
vt 0.943359 0.5
vt 0.947266 0.5
vt 0.951172 0.5
vt 0.970703 0.5
vt 0.974609 0.5
vt 0.978516 0.5
vt 0.982422 0.5
vt 0.986328 0.5

# verts
v -7 10 2
v -7 10 -0
v -7 11 2
v -7 11 -0
v -6 8 3
v -6 8 -0
v -6 9 3
v -6 9 2
v -6 10 2
v -6 10 -0
v -3 0 3
v -3 0 -0
v -3 1 3
v -3 1 2
v -3 1 -0
v -3 4 2
v -3 4 -0
v -2 4 2
v -2 4 -0
v -2 5 2
v -2 5 -0
v -2 7 -0
v -2 7 -1
v -2 8 2
v -2 8 -0
v -2 9 -0
v -2 9 -1
v -2 10 3
v -2 10 -1
v -2 11 1
v -2 11 -1
v -2 12 3
v -2 12 2
v -2 12 1
v -2 12 -1
v -2 12 -3
v -2 13 3
v -2 13 2
v -2 13 1
v -2 13 -1
v -2 13 -3
v -2 14 3
v -2 14 2
v -2 14 -0
v -2 14 -1
v -2 15 2
v -2 15 -0
v -1 6 -0
v -1 6 -1
v -1 7 -0
v -1 7 -1
v -1 9 2
v -1 9 -0
v -1 10 2
v -1 10 -0
v -1 14 3
v -1 14 2
v -1 14 -0
v -1 14 -1
v -1 15 3
v -1 15 2
v -1 15 -0
v -1 15 -1
v 1 0 3
v 1 0 -0
v 1 1 3
v 1 1 2
v 1 1 -0
v 1 3 2
v 1 3 -0
v 5 8 3
v 5 8 2
v 5 9 3
v 5 9 2
v 5 9 -0
v 5 11 2
v 5 11 -0
v -5 8 3
v -5 8 2
v -5 9 3
v -5 9 2
v -5 9 -0
v -5 11 2
v -5 11 -0
v -1 0 3
v -1 0 -0
v -1 1 3
v -1 1 2
v -1 1 -0
v -1 3 2
v -1 3 -0
v 1 6 -0
v 1 6 -1
v 1 7 -0
v 1 7 -1
v 1 9 2
v 1 9 -0
v 1 10 2
v 1 10 -0
v 1 14 3
v 1 14 2
v 1 14 -0
v 1 14 -1
v 1 15 3
v 1 15 2
v 1 15 -0
v 1 15 -1
v 2 4 2
v 2 4 -0
v 2 5 2
v 2 5 -0
v 2 7 -0
v 2 7 -1
v 2 8 2
v 2 8 -0
v 2 9 -0
v 2 9 -1
v 2 10 3
v 2 10 -1
v 2 11 1
v 2 11 -1
v 2 12 3
v 2 12 2
v 2 12 1
v 2 12 -1
v 2 12 -3
v 2 13 3
v 2 13 2
v 2 13 1
v 2 13 -1
v 2 13 -3
v 2 14 3
v 2 14 2
v 2 14 -0
v 2 14 -1
v 2 15 2
v 2 15 -0
v 3 0 3
v 3 0 -0
v 3 1 3
v 3 1 2
v 3 1 -0
v 3 4 2
v 3 4 -0
v 6 8 3
v 6 8 -0
v 6 9 3
v 6 9 2
v 6 10 2
v 6 10 -0
v 7 10 2
v 7 10 -0
v 7 11 2
v 7 11 -0
v -6 8 3
v -6 9 3
v -5 8 3
v -5 9 3
v -3 0 3
v -3 1 3
v -2 10 3
v -2 12 3
v -2 13 3
v -2 14 3
v -1 0 3
v -1 1 3
v -1 10 3
v -1 11 3
v -1 12 3
v -1 13 3
v -1 14 3
v -1 15 3
v 0 12 3
v 0 13 3
v 1 0 3
v 1 1 3
v 1 10 3
v 1 11 3
v 1 12 3
v 1 13 3
v 1 14 3
v 1 15 3
v 2 10 3
v 2 12 3
v 2 13 3
v 2 14 3
v 3 0 3
v 3 1 3
v 5 8 3
v 5 9 3
v 6 8 3
v 6 9 3
v -7 10 2
v -7 11 2
v -6 9 2
v -6 10 2
v -5 8 2
v -5 9 2
v -5 11 2
v -3 1 2
v -3 4 2
v -3 8 2
v -3 9 2
v -2 4 2
v -2 5 2
v -2 8 2
v -2 14 2
v -2 15 2
v -1 1 2
v -1 3 2
v -1 8 2
v -1 9 2
v -1 10 2
v -1 14 2
v -1 15 2
v 1 1 2
v 1 3 2
v 1 8 2
v 1 9 2
v 1 10 2
v 1 14 2
v 1 15 2
v 2 4 2
v 2 5 2
v 2 8 2
v 2 14 2
v 2 15 2
v 3 1 2
v 3 4 2
v 3 8 2
v 3 9 2
v 5 8 2
v 5 9 2
v 5 11 2
v 6 9 2
v 6 10 2
v 7 10 2
v 7 11 2
v -7 10 -0
v -7 11 -0
v -6 8 -0
v -6 10 -0
v -5 9 -0
v -5 11 -0
v -3 0 -0
v -3 1 -0
v -3 4 -0
v -3 8 -0
v -3 9 -0
v -2 4 -0
v -2 5 -0
v -2 7 -0
v -2 8 -0
v -2 9 -0
v -2 14 -0
v -2 15 -0
v -1 0 -0
v -1 1 -0
v -1 3 -0
v -1 6 -0
v -1 7 -0
v -1 9 -0
v -1 10 -0
v -1 14 -0
v -1 15 -0
v 1 0 -0
v 1 1 -0
v 1 3 -0
v 1 6 -0
v 1 7 -0
v 1 9 -0
v 1 10 -0
v 1 14 -0
v 1 15 -0
v 2 4 -0
v 2 5 -0
v 2 7 -0
v 2 8 -0
v 2 9 -0
v 2 14 -0
v 2 15 -0
v 3 0 -0
v 3 1 -0
v 3 4 -0
v 3 8 -0
v 3 9 -0
v 5 9 -0
v 5 11 -0
v 6 8 -0
v 6 10 -0
v 7 10 -0
v 7 11 -0
v -2 7 -1
v -2 9 -1
v -2 10 -1
v -2 11 -1
v -2 12 -1
v -2 13 -1
v -2 14 -1
v -1 6 -1
v -1 7 -1
v -1 9 -1
v -1 14 -1
v -1 15 -1
v 1 6 -1
v 1 7 -1
v 1 9 -1
v 1 14 -1
v 1 15 -1
v 2 7 -1
v 2 9 -1
v 2 10 -1
v 2 11 -1
v 2 12 -1
v 2 13 -1
v 2 14 -1
v -2 12 -3
v -2 13 -3
v 2 12 -3
v 2 13 -3
v -3 0 3
v -1 0 3
v 1 0 3
v 3 0 3
v -3 0 -0
v -1 0 -0
v 1 0 -0
v 3 0 -0
v -1 3 2
v 1 3 2
v -1 3 -0
v 1 3 -0
v -1 6 -0
v 1 6 -0
v -1 6 -1
v 1 6 -1
v -2 7 -0
v -1 7 -0
v 1 7 -0
v 2 7 -0
v -2 7 -1
v -1 7 -1
v 1 7 -1
v 2 7 -1
v -6 8 3
v -5 8 3
v 5 8 3
v 6 8 3
v -5 8 2
v -3 8 2
v -2 8 2
v 2 8 2
v 3 8 2
v 5 8 2
v -6 8 -0
v -3 8 -0
v -2 8 -0
v 2 8 -0
v 3 8 -0
v 6 8 -0
v -2 10 3
v -1 10 3
v 1 10 3
v 2 10 3
v -7 10 2
v -6 10 2
v -1 10 2
v 1 10 2
v 6 10 2
v 7 10 2
v -7 10 -0
v -6 10 -0
v -1 10 -0
v 1 10 -0
v 6 10 -0
v 7 10 -0
v -2 10 -1
v 2 10 -1
v -2 12 -1
v 2 12 -1
v -2 12 -3
v 2 12 -3
v -3 1 3
v -1 1 3
v 1 1 3
v 3 1 3
v -3 1 2
v -1 1 2
v 1 1 2
v 3 1 2
v -3 4 2
v -2 4 2
v 2 4 2
v 3 4 2
v -3 4 -0
v -2 4 -0
v 2 4 -0
v 3 4 -0
v -6 9 3
v -5 9 3
v 5 9 3
v 6 9 3
v -6 9 2
v -5 9 2
v -3 9 2
v -1 9 2
v 1 9 2
v 3 9 2
v 5 9 2
v 6 9 2
v -5 9 -0
v -3 9 -0
v -2 9 -0
v -1 9 -0
v 1 9 -0
v 2 9 -0
v 3 9 -0
v 5 9 -0
v -2 9 -1
v -1 9 -1
v 1 9 -1
v 2 9 -1
v -7 11 2
v -5 11 2
v 5 11 2
v 7 11 2
v -7 11 -0
v -5 11 -0
v 5 11 -0
v 7 11 -0
v -2 13 -1
v 2 13 -1
v -2 13 -3
v 2 13 -3
v -2 14 3
v -1 14 3
v 1 14 3
v 2 14 3
v -2 14 2
v -1 14 2
v 1 14 2
v 2 14 2
v -2 14 -0
v -1 14 -0
v 1 14 -0
v 2 14 -0
v -2 14 -1
v -1 14 -1
v 1 14 -1
v 2 14 -1
v -1 15 3
v 1 15 3
v -2 15 2
v -1 15 2
v 1 15 2
v 2 15 2
v -2 15 -0
v -1 15 -0
v 1 15 -0
v 2 15 -0
v -1 15 -1
v 1 15 -1

# faces
f 3/7/1 2/7/1 1/7/1
f 4/7/1 2/7/1 3/7/1
f 7/7/1 6/7/1 5/7/1
f 8/7/1 6/7/1 7/7/1
f 9/7/1 6/7/1 8/7/1
f 10/7/1 6/7/1 9/7/1
f 13/6/1 12/6/1 11/6/1
f 14/6/1 12/6/1 13/6/1
f 15/6/1 12/6/1 14/6/1
f 16/5/1 15/5/1 14/5/1
f 17/5/1 15/5/1 16/5/1
f 20/5/1 19/5/1 18/5/1
f 21/5/1 19/5/1 20/5/1
f 22/4/1 21/4/1 20/4/1
f 24/4/1 22/4/1 20/4/1
f 24/4/1 23/4/1 22/4/1
f 25/4/1 23/4/1 24/4/1
f 26/4/1 23/4/1 25/4/1
f 27/4/1 23/4/1 26/4/1
f 30/7/1 29/7/1 28/7/1
f 31/7/1 29/7/1 30/7/1
f 32/7/1 30/7/1 28/7/1
f 33/7/1 30/7/1 32/7/1
f 34/10/1 31/10/1 30/10/1
f 34/7/1 30/7/1 33/7/1
f 35/10/1 31/10/1 34/10/1
f 37/9/1 33/9/1 32/9/1
f 38/10/1 34/10/1 33/10/1
f 38/9/1 33/9/1 37/9/1
f 39/2/1 35/2/1 34/2/1
f 39/10/1 34/10/1 38/10/1
f 40/4/1 36/4/1 35/4/1
f 40/2/1 35/2/1 39/2/1
f 41/4/1 36/4/1 40/4/1
f 42/2/1 38/2/1 37/2/1
f 42/2/1 39/2/1 38/2/1
f 42/2/1 40/2/1 39/2/1
f 43/2/1 40/2/1 42/2/1
f 44/2/1 40/2/1 43/2/1
f 45/2/1 40/2/1 44/2/1
f 46/2/1 44/2/1 43/2/1
f 47/2/1 44/2/1 46/2/1
f 50/4/1 49/4/1 48/4/1
f 51/4/1 49/4/1 50/4/1
f 54/7/1 53/7/1 52/7/1
f 55/7/1 53/7/1 54/7/1
f 60/2/1 57/2/1 56/2/1
f 61/2/1 57/2/1 60/2/1
f 62/2/1 59/2/1 58/2/1
f 63/2/1 59/2/1 62/2/1
f 66/6/1 65/6/1 64/6/1
f 67/6/1 65/6/1 66/6/1
f 68/6/1 65/6/1 67/6/1
f 69/5/1 68/5/1 67/5/1
f 70/5/1 68/5/1 69/5/1
f 73/7/1 72/7/1 71/7/1
f 74/7/1 72/7/1 73/7/1
f 76/7/1 75/7/1 74/7/1
f 77/7/1 75/7/1 76/7/1
f 78/7/2 79/7/2 80/7/2
f 80/7/2 79/7/2 81/7/2
f 81/7/2 82/7/2 83/7/2
f 83/7/2 82/7/2 84/7/2
f 85/6/2 86/6/2 87/6/2
f 87/6/2 86/6/2 88/6/2
f 88/6/2 86/6/2 89/6/2
f 88/5/2 89/5/2 90/5/2
f 90/5/2 89/5/2 91/5/2
f 92/4/2 93/4/2 94/4/2
f 94/4/2 93/4/2 95/4/2
f 96/7/2 97/7/2 98/7/2
f 98/7/2 97/7/2 99/7/2
f 100/2/2 101/2/2 104/2/2
f 104/2/2 101/2/2 105/2/2
f 102/2/2 103/2/2 106/2/2
f 106/2/2 103/2/2 107/2/2
f 108/5/2 109/5/2 110/5/2
f 110/5/2 109/5/2 111/5/2
f 110/4/2 111/4/2 112/4/2
f 110/4/2 112/4/2 114/4/2
f 112/4/2 113/4/2 114/4/2
f 114/4/2 113/4/2 115/4/2
f 115/4/2 113/4/2 116/4/2
f 116/4/2 113/4/2 117/4/2
f 118/7/2 119/7/2 120/7/2
f 120/7/2 119/7/2 121/7/2
f 118/7/2 120/7/2 122/7/2
f 122/7/2 120/7/2 123/7/2
f 120/10/2 121/10/2 124/10/2
f 123/7/2 120/7/2 124/7/2
f 124/10/2 121/10/2 125/10/2
f 122/9/2 123/9/2 127/9/2
f 123/10/2 124/10/2 128/10/2
f 127/9/2 123/9/2 128/9/2
f 124/2/2 125/2/2 129/2/2
f 128/10/2 124/10/2 129/10/2
f 125/4/2 126/4/2 130/4/2
f 129/2/2 125/2/2 130/2/2
f 130/4/2 126/4/2 131/4/2
f 127/2/2 128/2/2 132/2/2
f 128/2/2 129/2/2 132/2/2
f 129/2/2 130/2/2 132/2/2
f 132/2/2 130/2/2 133/2/2
f 133/2/2 130/2/2 134/2/2
f 134/2/2 130/2/2 135/2/2
f 133/2/2 134/2/2 136/2/2
f 136/2/2 134/2/2 137/2/2
f 138/6/2 139/6/2 140/6/2
f 140/6/2 139/6/2 141/6/2
f 141/6/2 139/6/2 142/6/2
f 141/5/2 142/5/2 143/5/2
f 143/5/2 142/5/2 144/5/2
f 145/7/2 146/7/2 147/7/2
f 147/7/2 146/7/2 148/7/2
f 148/7/2 146/7/2 149/7/2
f 149/7/2 146/7/2 150/7/2
f 151/7/2 152/7/2 153/7/2
f 153/7/2 152/7/2 154/7/2
f 157/7/3 156/7/3 155/7/3
f 158/7/3 156/7/3 157/7/3
f 165/6/3 160/6/3 159/6/3
f 166/6/3 160/6/3 165/6/3
f 167/7/3 162/7/3 161/7/3
f 168/7/3 162/7/3 167/7/3
f 169/9/3 163/9/3 162/9/3
f 169/7/3 162/7/3 168/7/3
f 170/2/3 164/2/3 163/2/3
f 170/9/3 163/9/3 169/9/3
f 171/2/3 164/2/3 170/2/3
f 173/7/3 169/7/3 168/7/3
f 173/10/3 170/10/3 169/10/3
f 174/2/3 172/2/3 171/2/3
f 174/10/3 170/10/3 173/10/3
f 174/2/3 171/2/3 170/2/3
f 177/3/3 168/3/3 167/3/3
f 178/7/3 173/7/3 168/7/3
f 178/3/3 168/3/3 177/3/3
f 178/7/3 174/7/3 173/7/3
f 179/7/3 174/7/3 178/7/3
f 180/2/3 172/2/3 174/2/3
f 180/7/3 174/7/3 179/7/3
f 181/2/3 172/2/3 180/2/3
f 182/2/3 172/2/3 181/2/3
f 183/7/3 179/7/3 178/7/3
f 183/7/3 178/7/3 177/7/3
f 184/9/3 180/9/3 179/9/3
f 184/7/3 179/7/3 183/7/3
f 185/2/3 181/2/3 180/2/3
f 185/9/3 180/9/3 184/9/3
f 186/2/3 181/2/3 185/2/3
f 187/6/3 176/6/3 175/6/3
f 188/6/3 176/6/3 187/6/3
f 191/7/3 190/7/3 189/7/3
f 192/7/3 190/7/3 191/7/3
f 196/7/3 194/7/3 193/7/3
f 198/7/3 196/7/3 195/7/3
f 199/7/3 194/7/3 196/7/3
f 199/7/3 196/7/3 198/7/3
f 202/7/3 198/7/3 197/7/3
f 203/7/3 198/7/3 202/7/3
f 204/5/3 201/5/3 200/5/3
f 206/4/3 203/4/3 202/4/3
f 209/5/3 205/5/3 204/5/3
f 209/5/3 204/5/3 200/5/3
f 210/5/3 205/5/3 209/5/3
f 211/4/3 206/4/3 205/4/3
f 211/4/3 203/4/3 206/4/3
f 212/4/3 203/4/3 211/4/3
f 214/2/3 208/2/3 207/2/3
f 215/2/3 208/2/3 214/2/3
f 217/5/3 205/5/3 210/5/3
f 218/4/3 211/4/3 205/4/3
f 218/11/3 212/11/3 211/11/3
f 219/7/3 213/7/3 212/7/3
f 219/11/3 212/11/3 218/11/3
f 220/7/3 213/7/3 219/7/3
f 223/5/3 217/5/3 216/5/3
f 223/5/3 205/5/3 217/5/3
f 224/4/3 218/4/3 205/4/3
f 224/5/3 205/5/3 223/5/3
f 224/4/3 219/4/3 218/4/3
f 225/4/3 219/4/3 224/4/3
f 226/2/3 222/2/3 221/2/3
f 227/2/3 222/2/3 226/2/3
f 228/5/3 223/5/3 216/5/3
f 229/5/3 223/5/3 228/5/3
f 230/4/3 219/4/3 225/4/3
f 231/4/3 219/4/3 230/4/3
f 232/7/3 231/7/3 230/7/3
f 233/7/3 231/7/3 232/7/3
f 235/7/3 234/7/3 233/7/3
f 236/7/3 234/7/3 235/7/3
f 237/7/3 234/7/3 236/7/3
f 238/7/3 234/7/3 237/7/3
f 239/7/4 240/7/4 242/7/4
f 241/7/4 242/7/4 243/7/4
f 242/7/4 240/7/4 244/7/4
f 243/7/4 242/7/4 244/7/4
f 241/7/4 243/7/4 248/7/4
f 248/7/4 243/7/4 249/7/4
f 246/5/4 247/5/4 250/5/4
f 248/4/4 249/4/4 253/4/4
f 253/4/4 249/4/4 254/4/4
f 245/6/4 246/6/4 257/6/4
f 250/5/4 251/5/4 258/5/4
f 257/6/4 246/6/4 258/6/4
f 246/5/4 250/5/4 258/5/4
f 258/5/4 251/5/4 259/5/4
f 251/4/4 252/4/4 260/4/4
f 260/4/4 252/4/4 261/4/4
f 255/2/4 256/2/4 264/2/4
f 264/2/4 256/2/4 265/2/4
f 259/5/4 251/5/4 268/5/4
f 251/4/4 260/4/4 269/4/4
f 262/7/4 263/7/4 271/7/4
f 271/7/4 263/7/4 272/7/4
f 267/5/4 268/5/4 275/5/4
f 268/5/4 251/5/4 275/5/4
f 269/4/4 270/4/4 276/4/4
f 275/5/4 251/5/4 276/5/4
f 251/4/4 269/4/4 276/4/4
f 276/4/4 270/4/4 277/4/4
f 273/2/4 274/2/4 280/2/4
f 280/2/4 274/2/4 281/2/4
f 266/6/4 267/6/4 282/6/4
f 267/5/4 275/5/4 283/5/4
f 282/6/4 267/6/4 283/6/4
f 283/5/4 275/5/4 284/5/4
f 278/4/4 279/4/4 285/4/4
f 285/4/4 279/4/4 286/4/4
f 285/7/4 286/7/4 287/7/4
f 285/7/4 287/7/4 289/7/4
f 287/7/4 288/7/4 289/7/4
f 289/7/4 288/7/4 290/7/4
f 290/7/4 288/7/4 291/7/4
f 291/7/4 288/7/4 292/7/4
f 293/4/4 294/4/4 301/4/4
f 301/4/4 294/4/4 302/4/4
f 298/2/4 299/2/4 303/2/4
f 300/4/4 301/4/4 305/4/4
f 301/2/4 302/2/4 306/2/4
f 305/4/4 301/4/4 306/4/4
f 306/2/4 302/2/4 307/2/4
f 303/2/4 304/2/4 308/2/4
f 298/2/4 303/2/4 308/2/4
f 308/2/4 304/2/4 309/2/4
f 306/4/4 307/4/4 310/4/4
f 310/4/4 307/4/4 311/4/4
f 295/7/4 296/7/4 312/7/4
f 296/10/4 297/10/4 313/10/4
f 312/7/4 296/7/4 313/7/4
f 313/10/4 297/10/4 314/10/4
f 298/2/4 308/2/4 315/2/4
f 315/2/4 308/2/4 316/2/4
f 317/4/4 318/4/4 319/4/4
f 319/4/4 318/4/4 320/4/4
f 325/6/5 322/6/5 321/6/5
f 326/6/5 322/6/5 325/6/5
f 327/6/5 324/6/5 323/6/5
f 328/6/5 324/6/5 327/6/5
f 331/5/5 330/5/5 329/5/5
f 332/5/5 330/5/5 331/5/5
f 335/4/5 334/4/5 333/4/5
f 336/4/5 334/4/5 335/4/5
f 341/4/5 338/4/5 337/4/5
f 342/4/5 338/4/5 341/4/5
f 343/4/5 340/4/5 339/4/5
f 344/4/5 340/4/5 343/4/5
f 349/7/5 346/7/5 345/7/5
f 354/7/5 348/7/5 347/7/5
f 355/7/5 349/7/5 345/7/5
f 355/7/5 350/7/5 349/7/5
f 356/4/5 351/4/5 350/4/5
f 356/7/5 350/7/5 355/7/5
f 357/4/5 351/4/5 356/4/5
f 358/4/5 353/4/5 352/4/5
f 359/7/5 354/7/5 353/7/5
f 359/4/5 353/4/5 358/4/5
f 360/7/5 348/7/5 354/7/5
f 360/7/5 354/7/5 359/7/5
f 367/7/5 362/7/5 361/7/5
f 367/3/5 363/3/5 362/3/5
f 368/7/5 364/7/5 363/7/5
f 368/3/5 363/3/5 367/3/5
f 371/7/5 366/7/5 365/7/5
f 372/7/5 366/7/5 371/7/5
f 373/7/5 367/7/5 361/7/5
f 374/7/5 364/7/5 368/7/5
f 375/7/5 370/7/5 369/7/5
f 376/7/5 370/7/5 375/7/5
f 377/7/5 374/7/5 373/7/5
f 377/7/5 373/7/5 361/7/5
f 378/7/5 364/7/5 374/7/5
f 378/7/5 374/7/5 377/7/5
f 381/4/5 380/4/5 379/4/5
f 382/4/5 380/4/5 381/4/5
f 383/6/6 384/6/6 387/6/6
f 387/6/6 384/6/6 388/6/6
f 385/6/6 386/6/6 389/6/6
f 389/6/6 386/6/6 390/6/6
f 391/5/6 392/5/6 395/5/6
f 395/5/6 392/5/6 396/5/6
f 393/5/6 394/5/6 397/5/6
f 397/5/6 394/5/6 398/5/6
f 399/7/6 400/7/6 403/7/6
f 403/7/6 400/7/6 404/7/6
f 401/7/6 402/7/6 409/7/6
f 409/7/6 402/7/6 410/7/6
f 404/7/6 405/7/6 411/7/6
f 405/4/6 406/4/6 412/4/6
f 411/7/6 405/7/6 412/7/6
f 412/4/6 406/4/6 413/4/6
f 413/4/6 406/4/6 414/4/6
f 407/4/6 408/4/6 415/4/6
f 415/4/6 408/4/6 416/4/6
f 408/7/6 409/7/6 417/7/6
f 416/4/6 408/4/6 417/4/6
f 417/7/6 409/7/6 418/7/6
f 413/4/6 414/4/6 419/4/6
f 414/2/6 415/2/6 420/2/6
f 419/4/6 414/4/6 420/4/6
f 415/4/6 416/4/6 421/4/6
f 420/2/6 415/2/6 421/2/6
f 421/4/6 416/4/6 422/4/6
f 423/7/6 424/7/6 427/7/6
f 427/7/6 424/7/6 428/7/6
f 425/7/6 426/7/6 429/7/6
f 429/7/6 426/7/6 430/7/6
f 431/4/6 432/4/6 433/4/6
f 433/4/6 432/4/6 434/4/6
f 435/2/6 436/2/6 439/2/6
f 439/2/6 436/2/6 440/2/6
f 437/2/6 438/2/6 441/2/6
f 441/2/6 438/2/6 442/2/6
f 443/2/6 444/2/6 447/2/6
f 447/2/6 444/2/6 448/2/6
f 445/2/6 446/2/6 449/2/6
f 449/2/6 446/2/6 450/2/6
f 451/2/6 452/2/6 454/2/6
f 454/2/6 452/2/6 455/2/6
f 453/2/6 454/2/6 457/2/6
f 454/1/6 455/1/6 458/1/6
f 457/2/6 454/2/6 458/2/6
f 455/2/6 456/2/6 459/2/6
f 458/1/6 455/1/6 459/1/6
f 459/2/6 456/2/6 460/2/6
f 458/2/6 459/2/6 461/2/6
f 461/2/6 459/2/6 462/2/6
