# MagicaVoxel @ Ephtracy

# material
mtllib Character Model Mr. Barse.mtl
usemtl palette

# normals
vn -1 0 0
vn 1 0 0
vn 0 0 1
vn 0 0 -1
vn 0 -1 0
vn 0 1 0

# texcoords
vt 0.0292969 0.5
vt 0.794922 0.5
vt 0.826172 0.5
vt 0.888672 0.5
vt 0.919922 0.5
vt 0.939453 0.5
vt 0.970703 0.5
vt 0.978516 0.5

# verts
v -7 10 1.5
v -7 10 -0.5
v -7 11 1.5
v -7 11 -0.5
v -6 8 2.5
v -6 8 -0.5
v -6 9 2.5
v -6 9 1.5
v -6 10 1.5
v -6 10 -0.5
v -3 0 2.5
v -3 0 -0.5
v -3 1 2.5
v -3 1 1.5
v -3 1 -0.5
v -3 4 1.5
v -3 4 -0.5
v -3 11 0.5
v -3 11 -2.5
v -3 12 1.5
v -3 12 0.5
v -3 12 -1.5
v -3 12 -2.5
v -3 13 2.5
v -3 13 1.5
v -3 14 2.5
v -3 14 -1.5
v -2 4 1.5
v -2 4 -0.5
v -2 8 1.5
v -2 8 -0.5
v -2 9 1.5
v -2 9 -0.5
v -2 10 2.5
v -2 10 1.5
v -2 10 -0.5
v -2 10 -1.5
v -2 10 -3.5
v -2 11 0.5
v -2 11 -1.5
v -2 11 -2.5
v -2 11 -3.5
v -2 12 2.5
v -2 12 1.5
v -2 12 0.5
v -2 12 -1.5
v -2 12 -2.5
v -2 13 3.5
v -2 13 2.5
v -2 13 1.5
v -2 14 3.5
v -2 14 2.5
v -2 14 -1.5
v -2 14 -2.5
v -2 15 2.5
v -2 15 -1.5
v -1 9 -0.5
v -1 9 -1.5
v -1 10 -0.5
v -1 10 -1.5
v 1 0 2.5
v 1 0 -0.5
v 1 1 2.5
v 1 1 1.5
v 1 1 -0.5
v 1 3 1.5
v 1 3 -0.5
v 5 8 2.5
v 5 8 1.5
v 5 9 2.5
v 5 9 1.5
v 5 9 -0.5
v 5 11 1.5
v 5 11 -0.5
v -5 8 2.5
v -5 8 1.5
v -5 9 2.5
v -5 9 1.5
v -5 9 -0.5
v -5 11 1.5
v -5 11 -0.5
v -1 0 2.5
v -1 0 -0.5
v -1 1 2.5
v -1 1 1.5
v -1 1 -0.5
v -1 3 1.5
v -1 3 -0.5
v 1 9 -0.5
v 1 9 -1.5
v 1 10 -0.5
v 1 10 -1.5
v 1 13 3.5
v 1 13 2.5
v 1 14 3.5
v 1 14 2.5
v 2 4 1.5
v 2 4 -0.5
v 2 8 1.5
v 2 8 -0.5
v 2 9 1.5
v 2 9 -0.5
v 2 10 2.5
v 2 10 1.5
v 2 10 -0.5
v 2 10 -1.5
v 2 10 -3.5
v 2 11 0.5
v 2 11 -1.5
v 2 11 -2.5
v 2 11 -3.5
v 2 12 2.5
v 2 12 1.5
v 2 12 0.5
v 2 12 -1.5
v 2 12 -2.5
v 2 13 2.5
v 2 13 1.5
v 2 14 2.5
v 2 14 -1.5
v 2 14 -2.5
v 2 15 2.5
v 2 15 -1.5
v 3 0 2.5
v 3 0 -0.5
v 3 1 2.5
v 3 1 1.5
v 3 1 -0.5
v 3 4 1.5
v 3 4 -0.5
v 3 11 0.5
v 3 11 -2.5
v 3 12 1.5
v 3 12 0.5
v 3 12 -1.5
v 3 12 -2.5
v 3 13 2.5
v 3 13 1.5
v 3 14 2.5
v 3 14 -1.5
v 6 8 2.5
v 6 8 -0.5
v 6 9 2.5
v 6 9 1.5
v 6 10 1.5
v 6 10 -0.5
v 7 10 1.5
v 7 10 -0.5
v 7 11 1.5
v 7 11 -0.5
v -2 13 3.5
v -2 14 3.5
v 1 13 3.5
v 1 14 3.5
v -6 8 2.5
v -6 9 2.5
v -5 8 2.5
v -5 9 2.5
v -3 0 2.5
v -3 1 2.5
v -3 13 2.5
v -3 14 2.5
v -2 10 2.5
v -2 12 2.5
v -2 13 2.5
v -2 14 2.5
v -2 15 2.5
v -1 0 2.5
v -1 1 2.5
v -1 10 2.5
v -1 11 2.5
v -1 12 2.5
v -1 13 2.5
v 1 0 2.5
v 1 1 2.5
v 1 10 2.5
v 1 11 2.5
v 1 12 2.5
v 1 13 2.5
v 1 14 2.5
v 2 10 2.5
v 2 12 2.5
v 2 13 2.5
v 2 14 2.5
v 2 15 2.5
v 3 0 2.5
v 3 1 2.5
v 3 13 2.5
v 3 14 2.5
v 5 8 2.5
v 5 9 2.5
v 6 8 2.5
v 6 9 2.5
v -7 10 1.5
v -7 11 1.5
v -6 9 1.5
v -6 10 1.5
v -5 8 1.5
v -5 9 1.5
v -5 11 1.5
v -3 1 1.5
v -3 4 1.5
v -3 8 1.5
v -3 9 1.5
v -3 12 1.5
v -3 13 1.5
v -2 4 1.5
v -2 8 1.5
v -2 9 1.5
v -2 10 1.5
v -2 12 1.5
v -2 13 1.5
v -1 1 1.5
v -1 3 1.5
v -1 9 1.5
v -1 10 1.5
v 1 1 1.5
v 1 3 1.5
v 1 9 1.5
v 1 10 1.5
v 2 4 1.5
v 2 8 1.5
v 2 9 1.5
v 2 10 1.5
v 2 12 1.5
v 2 13 1.5
v 3 1 1.5
v 3 4 1.5
v 3 8 1.5
v 3 9 1.5
v 3 12 1.5
v 3 13 1.5
v 5 8 1.5
v 5 9 1.5
v 5 11 1.5
v 6 9 1.5
v 6 10 1.5
v 7 10 1.5
v 7 11 1.5
v -3 11 0.5
v -3 12 0.5
v -2 11 0.5
v -2 12 0.5
v 2 11 0.5
v 2 12 0.5
v 3 11 0.5
v 3 12 0.5
v -7 10 -0.5
v -7 11 -0.5
v -6 8 -0.5
v -6 10 -0.5
v -5 9 -0.5
v -5 11 -0.5
v -3 0 -0.5
v -3 1 -0.5
v -3 4 -0.5
v -3 8 -0.5
v -3 9 -0.5
v -2 4 -0.5
v -2 8 -0.5
v -2 9 -0.5
v -2 10 -0.5
v -1 0 -0.5
v -1 1 -0.5
v -1 3 -0.5
v -1 9 -0.5
v -1 10 -0.5
v 1 0 -0.5
v 1 1 -0.5
v 1 3 -0.5
v 1 9 -0.5
v 1 10 -0.5
v 2 4 -0.5
v 2 8 -0.5
v 2 9 -0.5
v 2 10 -0.5
v 3 0 -0.5
v 3 1 -0.5
v 3 4 -0.5
v 3 8 -0.5
v 3 9 -0.5
v 5 9 -0.5
v 5 11 -0.5
v 6 8 -0.5
v 6 10 -0.5
v 7 10 -0.5
v 7 11 -0.5
v -3 12 -1.5
v -3 14 -1.5
v -2 12 -1.5
v -2 14 -1.5
v -2 15 -1.5
v -1 9 -1.5
v -1 10 -1.5
v 1 9 -1.5
v 1 10 -1.5
v 2 12 -1.5
v 2 14 -1.5
v 2 15 -1.5
v 3 12 -1.5
v 3 14 -1.5
v -3 11 -2.5
v -3 12 -2.5
v -2 11 -2.5
v -2 12 -2.5
v -2 14 -2.5
v 2 11 -2.5
v 2 12 -2.5
v 2 14 -2.5
v 3 11 -2.5
v 3 12 -2.5
v -2 10 -3.5
v -2 11 -3.5
v 2 10 -3.5
v 2 11 -3.5
v -3 0 2.5
v -1 0 2.5
v 1 0 2.5
v 3 0 2.5
v -3 0 -0.5
v -1 0 -0.5
v 1 0 -0.5
v 3 0 -0.5
v -1 3 1.5
v 1 3 1.5
v -1 3 -0.5
v 1 3 -0.5
v -6 8 2.5
v -5 8 2.5
v 5 8 2.5
v 6 8 2.5
v -5 8 1.5
v -3 8 1.5
v -2 8 1.5
v 2 8 1.5
v 3 8 1.5
v 5 8 1.5
v -6 8 -0.5
v -3 8 -0.5
v -2 8 -0.5
v 2 8 -0.5
v 3 8 -0.5
v 6 8 -0.5
v -1 9 -0.5
v 1 9 -0.5
v -1 9 -1.5
v 1 9 -1.5
v -2 10 2.5
v -1 10 2.5
v 1 10 2.5
v 2 10 2.5
v -7 10 1.5
v -6 10 1.5
v -2 10 1.5
v -1 10 1.5
v 1 10 1.5
v 2 10 1.5
v 6 10 1.5
v 7 10 1.5
v -7 10 -0.5
v -6 10 -0.5
v -2 10 -0.5
v -1 10 -0.5
v 1 10 -0.5
v 2 10 -0.5
v 6 10 -0.5
v 7 10 -0.5
v -2 10 -1.5
v -1 10 -1.5
v 1 10 -1.5
v 2 10 -1.5
v -2 10 -3.5
v 2 10 -3.5
v -3 11 0.5
v -2 11 0.5
v 2 11 0.5
v 3 11 0.5
v -2 11 -1.5
v 2 11 -1.5
v -3 11 -2.5
v -2 11 -2.5
v 2 11 -2.5
v 3 11 -2.5
v -3 12 1.5
v -2 12 1.5
v 2 12 1.5
v 3 12 1.5
v -3 12 0.5
v -2 12 0.5
v 2 12 0.5
v 3 12 0.5
v -2 13 3.5
v 1 13 3.5
v -3 13 2.5
v -2 13 2.5
v -1 13 2.5
v 1 13 2.5
v 2 13 2.5
v 3 13 2.5
v -3 13 1.5
v -2 13 1.5
v 2 13 1.5
v 3 13 1.5
v -3 1 2.5
v -1 1 2.5
v 1 1 2.5
v 3 1 2.5
v -3 1 1.5
v -1 1 1.5
v 1 1 1.5
v 3 1 1.5
v -3 4 1.5
v -2 4 1.5
v 2 4 1.5
v 3 4 1.5
v -3 4 -0.5
v -2 4 -0.5
v 2 4 -0.5
v 3 4 -0.5
v -6 9 2.5
v -5 9 2.5
v 5 9 2.5
v 6 9 2.5
v -6 9 1.5
v -5 9 1.5
v -3 9 1.5
v -2 9 1.5
v 2 9 1.5
v 3 9 1.5
v 5 9 1.5
v 6 9 1.5
v -5 9 -0.5
v -3 9 -0.5
v -2 9 -0.5
v 2 9 -0.5
v 3 9 -0.5
v 5 9 -0.5
v -7 11 1.5
v -5 11 1.5
v 5 11 1.5
v 7 11 1.5
v -7 11 -0.5
v -5 11 -0.5
v 5 11 -0.5
v 7 11 -0.5
v -2 11 -2.5
v 2 11 -2.5
v -2 11 -3.5
v 2 11 -3.5
v -3 12 -1.5
v -2 12 -1.5
v 2 12 -1.5
v 3 12 -1.5
v -3 12 -2.5
v -2 12 -2.5
v 2 12 -2.5
v 3 12 -2.5
v -2 14 3.5
v 1 14 3.5
v -3 14 2.5
v -2 14 2.5
v 1 14 2.5
v 2 14 2.5
v 3 14 2.5
v -3 14 -1.5
v -2 14 -1.5
v 2 14 -1.5
v 3 14 -1.5
v -2 14 -2.5
v 2 14 -2.5
v -2 15 2.5
v 2 15 2.5
v -2 15 -1.5
v 2 15 -1.5

# faces
f 3/7/1 2/7/1 1/7/1
f 4/7/1 2/7/1 3/7/1
f 7/7/1 6/7/1 5/7/1
f 8/7/1 6/7/1 7/7/1
f 9/7/1 6/7/1 8/7/1
f 10/7/1 6/7/1 9/7/1
f 13/3/1 12/3/1 11/3/1
f 14/3/1 12/3/1 13/3/1
f 15/3/1 12/3/1 14/3/1
f 16/5/1 15/5/1 14/5/1
f 17/5/1 15/5/1 16/5/1
f 21/2/1 19/2/1 18/2/1
f 22/2/1 19/2/1 21/2/1
f 23/2/1 19/2/1 22/2/1
f 25/2/1 21/2/1 20/2/1
f 25/2/1 22/2/1 21/2/1
f 26/2/1 25/2/1 24/2/1
f 27/2/1 22/2/1 25/2/1
f 27/2/1 25/2/1 26/2/1
f 30/4/1 29/4/1 28/4/1
f 31/4/1 29/4/1 30/4/1
f 35/4/1 33/4/1 32/4/1
f 36/4/1 33/4/1 35/4/1
f 39/7/1 36/7/1 35/7/1
f 39/7/1 35/7/1 34/7/1
f 39/7/1 37/7/1 36/7/1
f 40/2/1 38/2/1 37/2/1
f 40/7/1 37/7/1 39/7/1
f 41/2/1 38/2/1 40/2/1
f 42/2/1 38/2/1 41/2/1
f 43/7/1 39/7/1 34/7/1
f 44/7/1 39/7/1 43/7/1
f 45/7/1 39/7/1 44/7/1
f 49/8/1 44/8/1 43/8/1
f 50/8/1 44/8/1 49/8/1
f 51/2/1 49/2/1 48/2/1
f 52/2/1 49/2/1 51/2/1
f 53/2/1 47/2/1 46/2/1
f 54/2/1 47/2/1 53/2/1
f 55/2/1 53/2/1 52/2/1
f 56/2/1 53/2/1 55/2/1
f 59/4/1 58/4/1 57/4/1
f 60/4/1 58/4/1 59/4/1
f 63/3/1 62/3/1 61/3/1
f 64/3/1 62/3/1 63/3/1
f 65/3/1 62/3/1 64/3/1
f 66/5/1 65/5/1 64/5/1
f 67/5/1 65/5/1 66/5/1
f 70/7/1 69/7/1 68/7/1
f 71/7/1 69/7/1 70/7/1
f 73/7/1 72/7/1 71/7/1
f 74/7/1 72/7/1 73/7/1
f 75/7/2 76/7/2 77/7/2
f 77/7/2 76/7/2 78/7/2
f 78/7/2 79/7/2 80/7/2
f 80/7/2 79/7/2 81/7/2
f 82/3/2 83/3/2 84/3/2
f 84/3/2 83/3/2 85/3/2
f 85/3/2 83/3/2 86/3/2
f 85/5/2 86/5/2 87/5/2
f 87/5/2 86/5/2 88/5/2
f 89/4/2 90/4/2 91/4/2
f 91/4/2 90/4/2 92/4/2
f 93/2/2 94/2/2 95/2/2
f 95/2/2 94/2/2 96/2/2
f 97/4/2 98/4/2 99/4/2
f 99/4/2 98/4/2 100/4/2
f 101/4/2 102/4/2 104/4/2
f 104/4/2 102/4/2 105/4/2
f 104/7/2 105/7/2 108/7/2
f 103/7/2 104/7/2 108/7/2
f 105/7/2 106/7/2 108/7/2
f 106/2/2 107/2/2 109/2/2
f 108/7/2 106/7/2 109/7/2
f 109/2/2 107/2/2 110/2/2
f 110/2/2 107/2/2 111/2/2
f 103/7/2 108/7/2 112/7/2
f 112/7/2 108/7/2 113/7/2
f 113/7/2 108/7/2 114/7/2
f 112/8/2 113/8/2 117/8/2
f 117/8/2 113/8/2 118/8/2
f 115/2/2 116/2/2 120/2/2
f 120/2/2 116/2/2 121/2/2
f 119/2/2 120/2/2 122/2/2
f 122/2/2 120/2/2 123/2/2
f 124/3/2 125/3/2 126/3/2
f 126/3/2 125/3/2 127/3/2
f 127/3/2 125/3/2 128/3/2
f 127/5/2 128/5/2 129/5/2
f 129/5/2 128/5/2 130/5/2
f 131/2/2 132/2/2 134/2/2
f 134/2/2 132/2/2 135/2/2
f 135/2/2 132/2/2 136/2/2
f 133/2/2 134/2/2 138/2/2
f 134/2/2 135/2/2 138/2/2
f 137/2/2 138/2/2 139/2/2
f 138/2/2 135/2/2 140/2/2
f 139/2/2 138/2/2 140/2/2
f 141/7/2 142/7/2 143/7/2
f 143/7/2 142/7/2 144/7/2
f 144/7/2 142/7/2 145/7/2
f 145/7/2 142/7/2 146/7/2
f 147/7/2 148/7/2 149/7/2
f 149/7/2 148/7/2 150/7/2
f 153/2/3 152/2/3 151/2/3
f 154/2/3 152/2/3 153/2/3
f 157/7/3 156/7/3 155/7/3
f 158/7/3 156/7/3 157/7/3
f 165/2/3 162/2/3 161/2/3
f 166/2/3 162/2/3 165/2/3
f 168/3/3 160/3/3 159/3/3
f 169/3/3 160/3/3 168/3/3
f 170/7/3 164/7/3 163/7/3
f 171/7/3 164/7/3 170/7/3
f 172/8/3 165/8/3 164/8/3
f 172/7/3 164/7/3 171/7/3
f 173/8/3 165/8/3 172/8/3
f 176/6/3 171/6/3 170/6/3
f 177/7/3 172/7/3 171/7/3
f 177/6/3 171/6/3 176/6/3
f 177/7/3 173/7/3 172/7/3
f 178/7/3 173/7/3 177/7/3
f 179/7/3 173/7/3 178/7/3
f 180/2/3 167/2/3 166/2/3
f 181/7/3 178/7/3 177/7/3
f 181/7/3 177/7/3 176/7/3
f 182/8/3 179/8/3 178/8/3
f 182/7/3 178/7/3 181/7/3
f 183/7/3 180/7/3 179/7/3
f 183/8/3 179/8/3 182/8/3
f 184/2/3 167/2/3 180/2/3
f 184/7/3 180/7/3 183/7/3
f 185/2/3 167/2/3 184/2/3
f 186/3/3 175/3/3 174/3/3
f 187/3/3 175/3/3 186/3/3
f 188/2/3 184/2/3 183/2/3
f 189/2/3 184/2/3 188/2/3
f 192/7/3 191/7/3 190/7/3
f 193/7/3 191/7/3 192/7/3
f 197/7/3 195/7/3 194/7/3
f 199/7/3 197/7/3 196/7/3
f 200/7/3 195/7/3 197/7/3
f 200/7/3 197/7/3 199/7/3
f 203/7/3 199/7/3 198/7/3
f 204/7/3 199/7/3 203/7/3
f 207/5/3 202/5/3 201/5/3
f 208/4/3 204/4/3 203/4/3
f 209/4/3 204/4/3 208/4/3
f 211/2/3 206/2/3 205/2/3
f 212/2/3 206/2/3 211/2/3
f 213/5/3 207/5/3 201/5/3
f 214/5/3 207/5/3 213/5/3
f 215/4/3 210/4/3 209/4/3
f 215/4/3 208/4/3 207/4/3
f 215/4/3 209/4/3 208/4/3
f 216/4/3 210/4/3 215/4/3
f 218/5/3 207/5/3 214/5/3
f 219/7/3 216/7/3 215/7/3
f 219/4/3 215/4/3 207/4/3
f 220/7/3 216/7/3 219/7/3
f 221/5/3 218/5/3 217/5/3
f 221/5/3 207/5/3 218/5/3
f 221/4/3 220/4/3 219/4/3
f 221/4/3 219/4/3 207/4/3
f 222/4/3 220/4/3 221/4/3
f 223/4/3 220/4/3 222/4/3
f 224/4/3 220/4/3 223/4/3
f 227/5/3 221/5/3 217/5/3
f 228/5/3 221/5/3 227/5/3
f 229/4/3 223/4/3 222/4/3
f 230/4/3 223/4/3 229/4/3
f 231/2/3 226/2/3 225/2/3
f 232/2/3 226/2/3 231/2/3
f 233/7/3 230/7/3 229/7/3
f 234/7/3 230/7/3 233/7/3
f 236/7/3 235/7/3 234/7/3
f 237/7/3 235/7/3 236/7/3
f 238/7/3 235/7/3 237/7/3
f 239/7/3 235/7/3 238/7/3
f 242/2/3 241/2/3 240/2/3
f 243/2/3 241/2/3 242/2/3
f 246/2/3 245/2/3 244/2/3
f 247/2/3 245/2/3 246/2/3
f 248/7/4 249/7/4 251/7/4
f 250/7/4 251/7/4 252/7/4
f 251/7/4 249/7/4 253/7/4
f 252/7/4 251/7/4 253/7/4
f 250/7/4 252/7/4 257/7/4
f 257/7/4 252/7/4 258/7/4
f 255/5/4 256/5/4 259/5/4
f 257/4/4 258/4/4 260/4/4
f 260/4/4 258/4/4 261/4/4
f 254/3/4 255/3/4 263/3/4
f 255/5/4 259/5/4 264/5/4
f 263/3/4 255/3/4 264/3/4
f 264/5/4 259/5/4 265/5/4
f 260/4/4 261/4/4 266/4/4
f 261/4/4 262/4/4 266/4/4
f 259/4/4 260/4/4 266/4/4
f 266/4/4 262/4/4 267/4/4
f 265/5/4 259/5/4 270/5/4
f 259/4/4 266/4/4 271/4/4
f 269/5/4 270/5/4 273/5/4
f 271/4/4 272/4/4 273/4/4
f 259/4/4 271/4/4 273/4/4
f 270/5/4 259/5/4 273/5/4
f 273/4/4 272/4/4 274/4/4
f 274/4/4 272/4/4 275/4/4
f 275/4/4 272/4/4 276/4/4
f 268/3/4 269/3/4 277/3/4
f 269/5/4 273/5/4 278/5/4
f 277/3/4 269/3/4 278/3/4
f 278/5/4 273/5/4 279/5/4
f 274/4/4 275/4/4 280/4/4
f 280/4/4 275/4/4 281/4/4
f 280/7/4 281/7/4 282/7/4
f 280/7/4 282/7/4 284/7/4
f 282/7/4 283/7/4 284/7/4
f 284/7/4 283/7/4 285/7/4
f 285/7/4 283/7/4 286/7/4
f 286/7/4 283/7/4 287/7/4
f 288/2/4 289/2/4 290/2/4
f 290/2/4 289/2/4 291/2/4
f 293/4/4 294/4/4 295/4/4
f 295/4/4 294/4/4 296/4/4
f 291/2/4 292/2/4 298/2/4
f 298/2/4 292/2/4 299/2/4
f 297/2/4 298/2/4 300/2/4
f 300/2/4 298/2/4 301/2/4
f 302/2/4 303/2/4 304/2/4
f 304/2/4 303/2/4 305/2/4
f 304/2/4 305/2/4 307/2/4
f 305/2/4 306/2/4 307/2/4
f 307/2/4 306/2/4 308/2/4
f 308/2/4 306/2/4 309/2/4
f 307/2/4 308/2/4 310/2/4
f 310/2/4 308/2/4 311/2/4
f 312/2/4 313/2/4 314/2/4
f 314/2/4 313/2/4 315/2/4
f 320/3/5 317/3/5 316/3/5
f 321/3/5 317/3/5 320/3/5
f 322/3/5 319/3/5 318/3/5
f 323/3/5 319/3/5 322/3/5
f 326/5/5 325/5/5 324/5/5
f 327/5/5 325/5/5 326/5/5
f 332/7/5 329/7/5 328/7/5
f 337/7/5 331/7/5 330/7/5
f 338/7/5 332/7/5 328/7/5
f 338/7/5 333/7/5 332/7/5
f 339/4/5 334/4/5 333/4/5
f 339/7/5 333/7/5 338/7/5
f 340/4/5 334/4/5 339/4/5
f 341/4/5 336/4/5 335/4/5
f 342/7/5 337/7/5 336/7/5
f 342/4/5 336/4/5 341/4/5
f 343/7/5 331/7/5 337/7/5
f 343/7/5 337/7/5 342/7/5
f 346/4/5 345/4/5 344/4/5
f 347/4/5 345/4/5 346/4/5
f 354/7/5 349/7/5 348/7/5
f 355/6/5 350/6/5 349/6/5
f 355/7/5 349/7/5 354/7/5
f 356/7/5 351/7/5 350/7/5
f 356/6/5 350/6/5 355/6/5
f 357/7/5 351/7/5 356/7/5
f 360/7/5 353/7/5 352/7/5
f 361/7/5 353/7/5 360/7/5
f 366/7/5 359/7/5 358/7/5
f 367/7/5 359/7/5 366/7/5
f 368/7/5 363/7/5 362/7/5
f 369/7/5 363/7/5 368/7/5
f 370/7/5 365/7/5 364/7/5
f 371/7/5 365/7/5 370/7/5
f 372/2/5 369/2/5 368/2/5
f 372/2/5 370/2/5 369/2/5
f 372/2/5 371/2/5 370/2/5
f 373/2/5 371/2/5 372/2/5
f 378/2/5 375/2/5 374/2/5
f 379/2/5 377/2/5 376/2/5
f 380/2/5 378/2/5 374/2/5
f 381/2/5 378/2/5 380/2/5
f 382/2/5 377/2/5 379/2/5
f 383/2/5 377/2/5 382/2/5
f 388/2/5 385/2/5 384/2/5
f 389/2/5 385/2/5 388/2/5
f 390/2/5 387/2/5 386/2/5
f 391/2/5 387/2/5 390/2/5
f 395/2/5 393/2/5 392/2/5
f 396/2/5 393/2/5 395/2/5
f 397/2/5 393/2/5 396/2/5
f 400/2/5 395/2/5 394/2/5
f 401/2/5 395/2/5 400/2/5
f 402/2/5 399/2/5 398/2/5
f 403/2/5 399/2/5 402/2/5
f 404/3/6 405/3/6 408/3/6
f 408/3/6 405/3/6 409/3/6
f 406/3/6 407/3/6 410/3/6
f 410/3/6 407/3/6 411/3/6
f 412/5/6 413/5/6 416/5/6
f 416/5/6 413/5/6 417/5/6
f 414/5/6 415/5/6 418/5/6
f 418/5/6 415/5/6 419/5/6
f 420/7/6 421/7/6 424/7/6
f 424/7/6 421/7/6 425/7/6
f 422/7/6 423/7/6 430/7/6
f 430/7/6 423/7/6 431/7/6
f 425/7/6 426/7/6 432/7/6
f 426/4/6 427/4/6 433/4/6
f 432/7/6 426/7/6 433/7/6
f 433/4/6 427/4/6 434/4/6
f 428/4/6 429/4/6 435/4/6
f 429/7/6 430/7/6 436/7/6
f 435/4/6 429/4/6 436/4/6
f 436/7/6 430/7/6 437/7/6
f 438/7/6 439/7/6 442/7/6
f 442/7/6 439/7/6 443/7/6
f 440/7/6 441/7/6 444/7/6
f 444/7/6 441/7/6 445/7/6
f 446/2/6 447/2/6 448/2/6
f 448/2/6 447/2/6 449/2/6
f 450/2/6 451/2/6 454/2/6
f 454/2/6 451/2/6 455/2/6
f 452/2/6 453/2/6 456/2/6
f 456/2/6 453/2/6 457/2/6
f 458/2/6 459/2/6 461/2/6
f 461/2/6 459/2/6 462/2/6
f 460/2/6 461/2/6 465/2/6
f 465/2/6 461/2/6 466/2/6
f 463/2/6 464/2/6 467/2/6
f 467/2/6 464/2/6 468/2/6
f 466/2/6 467/2/6 469/2/6
f 469/2/6 467/2/6 470/2/6
f 471/2/6 472/2/6 473/2/6
f 473/2/6 472/2/6 474/2/6
