# MagicaVoxel @ Ephtracy

# material
mtllib DoorFrame.mtl
usemtl palette

# normals
vn -1 0 0
vn 1 0 0
vn 0 0 1
vn 0 0 -1
vn 0 -1 0
vn 0 1 0

# texcoords
vt 0.275391 0.5
vt 0.310547 0.5
vt 0.357422 0.5

# verts
v -5 0 20
v -5 0 16
v -5 0 -16
v -5 0 -20
v -5 56 16
v -5 56 -16
v -5 60 20
v -5 60 -20
v 5 0 20
v 5 0 16
v 5 0 -16
v 5 0 -20
v 5 56 16
v 5 56 -16
v 5 60 20
v 5 60 -20
v -5 0 20
v -5 60 20
v 5 0 20
v 5 60 20
v -5 0 -16
v -5 56 -16
v 5 0 -16
v 5 56 -16
v -5 0 16
v -5 56 16
v 5 0 16
v 5 56 16
v -5 0 -20
v -5 60 -20
v 5 0 -20
v 5 60 -20
v -5 0 20
v 5 0 20
v -5 0 16
v 5 0 16
v -5 0 -16
v 5 0 -16
v -5 0 -20
v 5 0 -20
v -5 56 16
v 5 56 16
v -5 56 -16
v 5 56 -16
v -5 60 20
v 5 60 20
v -5 60 -20
v 5 60 -20

# faces
f 5/3/1 2/3/1 1/3/1
f 6/3/1 4/3/1 3/3/1
f 7/3/1 5/3/1 1/3/1
f 7/3/1 6/3/1 5/3/1
f 8/3/1 4/3/1 6/3/1
f 8/3/1 6/3/1 7/3/1
f 9/3/2 10/3/2 13/3/2
f 11/3/2 12/3/2 14/3/2
f 9/3/2 13/3/2 15/3/2
f 13/3/2 14/3/2 15/3/2
f 14/3/2 12/3/2 16/3/2
f 15/3/2 14/3/2 16/3/2
f 19/3/3 18/3/3 17/3/3
f 20/3/3 18/3/3 19/3/3
f 23/3/3 22/3/3 21/3/3
f 24/3/3 22/3/3 23/3/3
f 25/3/4 26/3/4 27/3/4
f 27/3/4 26/3/4 28/3/4
f 29/3/4 30/3/4 31/3/4
f 31/3/4 30/3/4 32/3/4
f 35/3/5 34/3/5 33/3/5
f 36/3/5 34/3/5 35/3/5
f 39/3/5 38/3/5 37/3/5
f 40/3/5 38/3/5 39/3/5
f 43/3/5 42/3/5 41/3/5
f 44/3/5 42/3/5 43/3/5
f 45/3/6 46/3/6 47/3/6
f 47/3/6 46/3/6 48/3/6
