# MagicaVoxel @ Ephtracy

# material
mtllib Gun Item.mtl
usemtl palette

# normals
vn -1 0 0
vn 1 0 0
vn 0 0 1
vn 0 0 -1
vn 0 -1 0
vn 0 1 0

# texcoords
vt 0.501953 0.5
vt 0.755859 0.5
vt 0.845703 0.5
vt 0.880859 0.5
vt 0.970703 0.5
vt 0.974609 0.5
vt 0.978516 0.5
vt 0.982422 0.5

# verts
v -2.5 4 1
v -2.5 4 -0
v -2.5 5 2
v -2.5 5 1
v -2.5 5 -0
v -2.5 5 -1
v -2.5 6 2
v -2.5 6 1
v -2.5 6 -0
v -2.5 6 -1
v -2.5 7 1
v -2.5 7 -0
v -1.5 4 4
v -1.5 4 1
v -1.5 4 -0
v -1.5 4 -2
v -1.5 5 2
v -1.5 5 1
v -1.5 5 -0
v -1.5 5 -1
v -1.5 6 2
v -1.5 6 1
v -1.5 6 -0
v -1.5 6 -1
v -1.5 7 4
v -1.5 7 2
v -1.5 7 1
v -1.5 7 -0
v -1.5 7 -2
v -1.5 8 2
v -1.5 8 1
v -1.5 9 1
v -1.5 9 -0
v -0.5 1 -2
v -0.5 1 -4
v -0.5 2 -0
v -0.5 2 -2
v -0.5 3 3
v -0.5 3 1
v -0.5 3 -1
v -0.5 3 -2
v -0.5 4 3
v -0.5 4 1
v -0.5 4 -0
v -0.5 4 -1
v -0.5 4 -2
v -0.5 5 -3
v -0.5 5 -4
v -0.5 6 -2
v -0.5 6 -3
v 0.5 5 4
v 0.5 5 -0
v 0.5 6 4
v 0.5 6 -0
v 0.5 8 1
v 0.5 8 -0
v 0.5 9 1
v 0.5 9 -0
v -0.5 5 4
v -0.5 5 -0
v -0.5 6 4
v -0.5 6 -0
v -0.5 8 1
v -0.5 8 -0
v -0.5 9 1
v -0.5 9 -0
v 0.5 1 -2
v 0.5 1 -4
v 0.5 2 -0
v 0.5 2 -2
v 0.5 3 3
v 0.5 3 1
v 0.5 3 -1
v 0.5 3 -2
v 0.5 4 3
v 0.5 4 1
v 0.5 4 -0
v 0.5 4 -1
v 0.5 4 -2
v 0.5 5 -3
v 0.5 5 -4
v 0.5 6 -2
v 0.5 6 -3
v 1.5 4 4
v 1.5 4 1
v 1.5 4 -0
v 1.5 4 -2
v 1.5 5 2
v 1.5 5 1
v 1.5 5 -0
v 1.5 5 -1
v 1.5 6 2
v 1.5 6 1
v 1.5 6 -0
v 1.5 6 -1
v 1.5 7 4
v 1.5 7 2
v 1.5 7 1
v 1.5 7 -0
v 1.5 7 -2
v 1.5 8 2
v 1.5 8 1
v 1.5 9 1
v 1.5 9 -0
v 2.5 4 1
v 2.5 4 -0
v 2.5 5 2
v 2.5 5 1
v 2.5 5 -0
v 2.5 5 -1
v 2.5 6 2
v 2.5 6 1
v 2.5 6 -0
v 2.5 6 -1
v 2.5 7 1
v 2.5 7 -0
v -1.5 4 4
v -1.5 7 4
v -0.5 5 4
v -0.5 6 4
v 0.5 5 4
v 0.5 6 4
v 1.5 4 4
v 1.5 7 4
v -0.5 3 3
v -0.5 4 3
v 0.5 3 3
v 0.5 4 3
v -2.5 5 2
v -2.5 6 2
v -1.5 5 2
v -1.5 6 2
v -1.5 7 2
v -1.5 8 2
v -0.5 7 2
v -0.5 8 2
v 0.5 7 2
v 0.5 8 2
v 1.5 5 2
v 1.5 6 2
v 1.5 7 2
v 1.5 8 2
v 2.5 5 2
v 2.5 6 2
v -2.5 4 1
v -2.5 5 1
v -2.5 6 1
v -2.5 7 1
v -1.5 4 1
v -1.5 5 1
v -1.5 6 1
v -1.5 7 1
v -1.5 8 1
v -1.5 9 1
v -0.5 8 1
v -0.5 9 1
v 0.5 8 1
v 0.5 9 1
v 1.5 4 1
v 1.5 5 1
v 1.5 6 1
v 1.5 7 1
v 1.5 8 1
v 1.5 9 1
v 2.5 4 1
v 2.5 5 1
v 2.5 6 1
v 2.5 7 1
v -0.5 2 -0
v -0.5 4 -0
v -0.5 5 -0
v -0.5 6 -0
v 0.5 2 -0
v 0.5 4 -0
v 0.5 5 -0
v 0.5 6 -0
v -0.5 1 -2
v -0.5 2 -2
v -0.5 3 -2
v -0.5 4 -2
v 0.5 1 -2
v 0.5 2 -2
v 0.5 3 -2
v 0.5 4 -2
v -0.5 3 1
v -0.5 4 1
v 0.5 3 1
v 0.5 4 1
v -2.5 4 -0
v -2.5 5 -0
v -2.5 6 -0
v -2.5 7 -0
v -1.5 4 -0
v -1.5 5 -0
v -1.5 6 -0
v -1.5 7 -0
v -1.5 9 -0
v -0.5 7 -0
v -0.5 8 -0
v -0.5 9 -0
v 0.5 7 -0
v 0.5 8 -0
v 0.5 9 -0
v 1.5 4 -0
v 1.5 5 -0
v 1.5 6 -0
v 1.5 7 -0
v 1.5 9 -0
v 2.5 4 -0
v 2.5 5 -0
v 2.5 6 -0
v 2.5 7 -0
v -2.5 5 -1
v -2.5 6 -1
v -1.5 5 -1
v -1.5 6 -1
v -0.5 3 -1
v -0.5 4 -1
v 0.5 3 -1
v 0.5 4 -1
v 1.5 5 -1
v 1.5 6 -1
v 2.5 5 -1
v 2.5 6 -1
v -1.5 4 -2
v -1.5 7 -2
v -0.5 4 -2
v -0.5 6 -2
v 0.5 4 -2
v 0.5 6 -2
v 1.5 4 -2
v 1.5 7 -2
v -0.5 5 -3
v -0.5 6 -3
v 0.5 5 -3
v 0.5 6 -3
v -0.5 1 -4
v -0.5 5 -4
v 0.5 1 -4
v 0.5 5 -4
v -0.5 1 -2
v 0.5 1 -2
v -0.5 1 -4
v 0.5 1 -4
v -0.5 2 -0
v 0.5 2 -0
v -0.5 2 -2
v 0.5 2 -2
v -0.5 3 3
v 0.5 3 3
v -0.5 3 1
v 0.5 3 1
v -1.5 4 4
v 1.5 4 4
v -0.5 4 3
v 0.5 4 3
v -2.5 4 1
v -1.5 4 1
v -0.5 4 1
v 0.5 4 1
v 1.5 4 1
v 2.5 4 1
v -2.5 4 -0
v -1.5 4 -0
v -0.5 4 -0
v 0.5 4 -0
v 1.5 4 -0
v 2.5 4 -0
v -0.5 4 -1
v 0.5 4 -1
v -1.5 4 -2
v -0.5 4 -2
v 0.5 4 -2
v 1.5 4 -2
v -2.5 5 2
v -1.5 5 2
v 1.5 5 2
v 2.5 5 2
v -2.5 5 1
v -1.5 5 1
v 1.5 5 1
v 2.5 5 1
v -2.5 5 -0
v -1.5 5 -0
v 1.5 5 -0
v 2.5 5 -0
v -2.5 5 -1
v -1.5 5 -1
v 1.5 5 -1
v 2.5 5 -1
v -0.5 6 4
v 0.5 6 4
v -0.5 6 -0
v 0.5 6 -0
v -0.5 3 -1
v 0.5 3 -1
v -0.5 3 -2
v 0.5 3 -2
v -0.5 5 4
v 0.5 5 4
v -0.5 5 -0
v 0.5 5 -0
v -0.5 5 -3
v 0.5 5 -3
v -0.5 5 -4
v 0.5 5 -4
v -2.5 6 2
v -1.5 6 2
v 1.5 6 2
v 2.5 6 2
v -2.5 6 1
v -1.5 6 1
v 1.5 6 1
v 2.5 6 1
v -2.5 6 -0
v -1.5 6 -0
v 1.5 6 -0
v 2.5 6 -0
v -2.5 6 -1
v -1.5 6 -1
v 1.5 6 -1
v 2.5 6 -1
v -0.5 6 -2
v 0.5 6 -2
v -0.5 6 -3
v 0.5 6 -3
v -1.5 7 4
v 1.5 7 4
v -1.5 7 2
v -0.5 7 2
v 0.5 7 2
v 1.5 7 2
v -2.5 7 1
v -1.5 7 1
v 1.5 7 1
v 2.5 7 1
v -2.5 7 -0
v -1.5 7 -0
v -0.5 7 -0
v 0.5 7 -0
v 1.5 7 -0
v 2.5 7 -0
v -1.5 7 -2
v 1.5 7 -2
v -1.5 8 2
v -0.5 8 2
v 0.5 8 2
v 1.5 8 2
v -1.5 8 1
v -0.5 8 1
v 0.5 8 1
v 1.5 8 1
v -0.5 8 -0
v 0.5 8 -0
v -1.5 9 1
v -0.5 9 1
v 0.5 9 1
v 1.5 9 1
v -1.5 9 -0
v -0.5 9 -0
v 0.5 9 -0
v 1.5 9 -0

# faces
f 4/1/1 2/1/1 1/1/1
f 5/1/1 2/1/1 4/1/1
f 7/1/1 4/1/1 3/1/1
f 8/3/1 5/3/1 4/3/1
f 8/1/1 4/1/1 7/1/1
f 9/1/1 6/1/1 5/1/1
f 9/3/1 5/3/1 8/3/1
f 10/1/1 6/1/1 9/1/1
f 11/1/1 9/1/1 8/1/1
f 12/1/1 9/1/1 11/1/1
f 17/8/1 14/8/1 13/8/1
f 18/8/1 14/8/1 17/8/1
f 19/8/1 16/8/1 15/8/1
f 20/8/1 16/8/1 19/8/1
f 21/8/1 17/8/1 13/8/1
f 24/8/1 16/8/1 20/8/1
f 25/8/1 22/8/1 21/8/1
f 25/8/1 21/8/1 13/8/1
f 26/8/1 22/8/1 25/8/1
f 27/8/1 22/8/1 26/8/1
f 28/8/1 24/8/1 23/8/1
f 29/8/1 16/8/1 24/8/1
f 29/8/1 24/8/1 28/8/1
f 30/2/1 27/2/1 26/2/1
f 30/2/1 28/2/1 27/2/1
f 31/2/1 28/2/1 30/2/1
f 32/2/1 28/2/1 31/2/1
f 33/2/1 28/2/1 32/2/1
f 37/5/1 35/5/1 34/5/1
f 40/6/1 37/6/1 36/6/1
f 41/5/1 35/5/1 37/5/1
f 41/6/1 37/6/1 40/6/1
f 42/7/1 39/7/1 38/7/1
f 43/7/1 39/7/1 42/7/1
f 44/6/1 40/6/1 36/6/1
f 45/6/1 40/6/1 44/6/1
f 46/5/1 35/5/1 41/5/1
f 47/5/1 35/5/1 46/5/1
f 48/5/1 35/5/1 47/5/1
f 49/5/1 47/5/1 46/5/1
f 50/5/1 47/5/1 49/5/1
f 53/8/1 52/8/1 51/8/1
f 54/8/1 52/8/1 53/8/1
f 57/2/1 56/2/1 55/2/1
f 58/2/1 56/2/1 57/2/1
f 59/8/2 60/8/2 61/8/2
f 61/8/2 60/8/2 62/8/2
f 63/2/2 64/2/2 65/2/2
f 65/2/2 64/2/2 66/2/2
f 67/5/2 68/5/2 70/5/2
f 69/6/2 70/6/2 73/6/2
f 70/5/2 68/5/2 74/5/2
f 73/6/2 70/6/2 74/6/2
f 71/7/2 72/7/2 75/7/2
f 75/7/2 72/7/2 76/7/2
f 69/6/2 73/6/2 77/6/2
f 77/6/2 73/6/2 78/6/2
f 74/5/2 68/5/2 79/5/2
f 79/5/2 68/5/2 80/5/2
f 80/5/2 68/5/2 81/5/2
f 79/5/2 80/5/2 82/5/2
f 82/5/2 80/5/2 83/5/2
f 84/8/2 85/8/2 88/8/2
f 88/8/2 85/8/2 89/8/2
f 86/8/2 87/8/2 90/8/2
f 90/8/2 87/8/2 91/8/2
f 84/8/2 88/8/2 92/8/2
f 91/8/2 87/8/2 95/8/2
f 92/8/2 93/8/2 96/8/2
f 84/8/2 92/8/2 96/8/2
f 96/8/2 93/8/2 97/8/2
f 97/8/2 93/8/2 98/8/2
f 94/8/2 95/8/2 99/8/2
f 95/8/2 87/8/2 100/8/2
f 99/8/2 95/8/2 100/8/2
f 97/2/2 98/2/2 101/2/2
f 98/2/2 99/2/2 101/2/2
f 101/2/2 99/2/2 102/2/2
f 102/2/2 99/2/2 103/2/2
f 103/2/2 99/2/2 104/2/2
f 105/1/2 106/1/2 108/1/2
f 108/1/2 106/1/2 109/1/2
f 107/1/2 108/1/2 111/1/2
f 108/3/2 109/3/2 112/3/2
f 111/1/2 108/1/2 112/1/2
f 109/1/2 110/1/2 113/1/2
f 112/3/2 109/3/2 113/3/2
f 113/1/2 110/1/2 114/1/2
f 112/1/2 113/1/2 115/1/2
f 115/1/2 113/1/2 116/1/2
f 119/8/3 118/8/3 117/8/3
f 120/8/3 118/8/3 119/8/3
f 121/8/3 119/8/3 117/8/3
f 122/8/3 118/8/3 120/8/3
f 123/8/3 121/8/3 117/8/3
f 123/8/3 122/8/3 121/8/3
f 124/8/3 118/8/3 122/8/3
f 124/8/3 122/8/3 123/8/3
f 127/7/3 126/7/3 125/7/3
f 128/7/3 126/7/3 127/7/3
f 131/1/3 130/1/3 129/1/3
f 132/1/3 130/1/3 131/1/3
f 135/2/3 134/2/3 133/2/3
f 136/2/3 134/2/3 135/2/3
f 137/4/3 136/4/3 135/4/3
f 138/4/3 136/4/3 137/4/3
f 141/2/3 138/2/3 137/2/3
f 142/2/3 138/2/3 141/2/3
f 143/1/3 140/1/3 139/1/3
f 144/1/3 140/1/3 143/1/3
f 149/1/3 146/1/3 145/1/3
f 150/1/3 146/1/3 149/1/3
f 151/1/3 148/1/3 147/1/3
f 152/1/3 148/1/3 151/1/3
f 155/2/3 154/2/3 153/2/3
f 156/2/3 154/2/3 155/2/3
f 163/2/3 158/2/3 157/2/3
f 164/2/3 158/2/3 163/2/3
f 165/1/3 160/1/3 159/1/3
f 166/1/3 160/1/3 165/1/3
f 167/1/3 162/1/3 161/1/3
f 168/1/3 162/1/3 167/1/3
f 173/6/3 170/6/3 169/6/3
f 174/6/3 170/6/3 173/6/3
f 175/5/3 172/5/3 171/5/3
f 176/5/3 172/5/3 175/5/3
f 181/5/3 178/5/3 177/5/3
f 182/5/3 178/5/3 181/5/3
f 183/5/3 180/5/3 179/5/3
f 184/5/3 180/5/3 183/5/3
f 185/7/4 186/7/4 187/7/4
f 187/7/4 186/7/4 188/7/4
f 189/1/4 190/1/4 193/1/4
f 193/1/4 190/1/4 194/1/4
f 191/1/4 192/1/4 195/1/4
f 195/1/4 192/1/4 196/1/4
f 196/2/4 197/2/4 198/2/4
f 198/2/4 197/2/4 199/2/4
f 199/2/4 197/2/4 200/2/4
f 198/4/4 199/4/4 201/4/4
f 201/4/4 199/4/4 202/4/4
f 201/2/4 202/2/4 207/2/4
f 202/2/4 203/2/4 207/2/4
f 207/2/4 203/2/4 208/2/4
f 204/1/4 205/1/4 209/1/4
f 209/1/4 205/1/4 210/1/4
f 206/1/4 207/1/4 211/1/4
f 211/1/4 207/1/4 212/1/4
f 213/1/4 214/1/4 215/1/4
f 215/1/4 214/1/4 216/1/4
f 217/6/4 218/6/4 219/6/4
f 219/6/4 218/6/4 220/6/4
f 221/1/4 222/1/4 223/1/4
f 223/1/4 222/1/4 224/1/4
f 225/8/4 226/8/4 227/8/4
f 227/8/4 226/8/4 228/8/4
f 228/8/4 226/8/4 230/8/4
f 229/8/4 230/8/4 231/8/4
f 230/8/4 226/8/4 232/8/4
f 231/8/4 230/8/4 232/8/4
f 233/5/4 234/5/4 235/5/4
f 235/5/4 234/5/4 236/5/4
f 237/5/4 238/5/4 239/5/4
f 239/5/4 238/5/4 240/5/4
f 243/5/5 242/5/5 241/5/5
f 244/5/5 242/5/5 243/5/5
f 247/6/5 246/6/5 245/6/5
f 248/6/5 246/6/5 247/6/5
f 251/7/5 250/7/5 249/7/5
f 252/7/5 250/7/5 251/7/5
f 255/8/5 254/8/5 253/8/5
f 256/8/5 254/8/5 255/8/5
f 258/8/5 255/8/5 253/8/5
f 259/8/5 255/8/5 258/8/5
f 260/8/5 254/8/5 256/8/5
f 261/8/5 254/8/5 260/8/5
f 263/1/5 258/1/5 257/1/5
f 264/8/5 259/8/5 258/8/5
f 264/1/5 258/1/5 263/1/5
f 264/8/5 260/8/5 259/8/5
f 264/8/5 261/8/5 260/8/5
f 265/8/5 261/8/5 264/8/5
f 266/8/5 261/8/5 265/8/5
f 267/1/5 262/1/5 261/1/5
f 267/8/5 261/8/5 266/8/5
f 268/1/5 262/1/5 267/1/5
f 269/8/5 265/8/5 264/8/5
f 270/8/5 267/8/5 266/8/5
f 271/8/5 269/8/5 264/8/5
f 271/8/5 270/8/5 269/8/5
f 272/8/5 270/8/5 271/8/5
f 273/8/5 267/8/5 270/8/5
f 273/8/5 270/8/5 272/8/5
f 274/8/5 267/8/5 273/8/5
f 279/1/5 276/1/5 275/1/5
f 280/1/5 276/1/5 279/1/5
f 281/1/5 278/1/5 277/1/5
f 282/1/5 278/1/5 281/1/5
f 287/1/5 284/1/5 283/1/5
f 288/1/5 284/1/5 287/1/5
f 289/1/5 286/1/5 285/1/5
f 290/1/5 286/1/5 289/1/5
f 293/8/5 292/8/5 291/8/5
f 294/8/5 292/8/5 293/8/5
f 295/6/6 296/6/6 297/6/6
f 297/6/6 296/6/6 298/6/6
f 299/8/6 300/8/6 301/8/6
f 301/8/6 300/8/6 302/8/6
f 303/5/6 304/5/6 305/5/6
f 305/5/6 304/5/6 306/5/6
f 307/1/6 308/1/6 311/1/6
f 311/1/6 308/1/6 312/1/6
f 309/1/6 310/1/6 313/1/6
f 313/1/6 310/1/6 314/1/6
f 315/1/6 316/1/6 319/1/6
f 319/1/6 316/1/6 320/1/6
f 317/1/6 318/1/6 321/1/6
f 321/1/6 318/1/6 322/1/6
f 323/5/6 324/5/6 325/5/6
f 325/5/6 324/5/6 326/5/6
f 327/8/6 328/8/6 329/8/6
f 329/8/6 328/8/6 330/8/6
f 330/8/6 328/8/6 331/8/6
f 331/8/6 328/8/6 332/8/6
f 333/1/6 334/1/6 337/1/6
f 337/1/6 334/1/6 338/1/6
f 335/1/6 336/1/6 341/1/6
f 341/1/6 336/1/6 342/1/6
f 339/8/6 340/8/6 343/8/6
f 340/8/6 341/8/6 343/8/6
f 338/8/6 339/8/6 343/8/6
f 343/8/6 341/8/6 344/8/6
f 345/2/6 346/2/6 349/2/6
f 346/4/6 347/4/6 350/4/6
f 349/2/6 346/2/6 350/2/6
f 347/2/6 348/2/6 351/2/6
f 350/4/6 347/4/6 351/4/6
f 351/2/6 348/2/6 352/2/6
f 350/4/6 351/4/6 353/4/6
f 353/4/6 351/4/6 354/4/6
f 355/2/6 356/2/6 359/2/6
f 359/2/6 356/2/6 360/2/6
f 357/2/6 358/2/6 361/2/6
f 361/2/6 358/2/6 362/2/6
