# MagicaVoxel @ Ephtracy

# material
mtllib Cactus.mtl
usemtl palette

# normals
vn -1 0 0
vn 1 0 0
vn 0 0 1
vn 0 0 -1
vn 0 -1 0
vn 0 1 0

# texcoords
vt 0.119141 0.5
vt 0.181641 0.5
vt 0.197266 0.5
vt 0.232422 0.5
vt 0.240234 0.5
vt 0.244141 0.5
vt 0.310547 0.5
vt 0.611328 0.5
vt 0.955078 0.5

# verts
v -5 8 5
v -5 8 -5
v -5 10 5
v -5 10 -5
v -4 3 4
v -4 3 -4
v -4 8 4
v -4 8 -4
v -3 0 3
v -3 0 -3
v -3 3 3
v -3 3 -3
v -3 17 -0
v -3 17 -1
v -3 18 -0
v -3 18 -1
v -3 23 1
v -3 23 -0
v -3 24 1
v -3 24 -0
v -3 26 -0
v -3 26 -1
v -3 27 -0
v -3 27 -1
v -2 9 1
v -2 9 -1
v -2 17 -0
v -2 17 -1
v -2 18 -0
v -2 18 -1
v -2 23 1
v -2 23 -0
v -2 24 1
v -2 24 -0
v -2 26 -0
v -2 26 -1
v -2 27 -0
v -2 27 -1
v -2 28 1
v -2 28 -1
v -1 9 2
v -1 9 1
v -1 9 -1
v -1 9 -2
v -1 14 -2
v -1 14 -3
v -1 15 -2
v -1 15 -3
v -1 18 3
v -1 18 2
v -1 19 3
v -1 19 2
v -1 26 3
v -1 26 2
v -1 26 -2
v -1 26 -3
v -1 27 3
v -1 27 2
v -1 27 -2
v -1 27 -3
v -1 28 2
v -1 28 1
v -1 28 -1
v -1 28 -2
v -1 29 1
v -1 29 -1
v 0 15 3
v 0 15 2
v 0 16 3
v 0 16 2
v 0 20 -2
v 0 20 -3
v 0 21 -2
v 0 21 -3
v 0 22 3
v 0 22 2
v 0 23 3
v 0 23 2
v 0 24 -2
v 0 24 -3
v 0 25 -2
v 0 25 -3
v 4 9 4
v 4 9 2
v 4 9 -2
v 4 9 -4
v 4 10 4
v 4 10 -4
v -4 9 4
v -4 9 2
v -4 9 -1
v -4 9 -4
v -4 10 4
v -4 10 -4
v 0 14 -2
v 0 14 -3
v 0 15 -2
v 0 15 -3
v 0 18 3
v 0 18 2
v 0 19 3
v 0 19 2
v 0 26 3
v 0 26 2
v 0 26 -2
v 0 26 -3
v 0 27 3
v 0 27 2
v 0 27 -2
v 0 27 -3
v 1 9 2
v 1 9 1
v 1 9 -1
v 1 9 -2
v 1 15 3
v 1 15 2
v 1 16 3
v 1 16 2
v 1 20 -2
v 1 20 -3
v 1 21 -2
v 1 21 -3
v 1 22 3
v 1 22 2
v 1 23 3
v 1 23 2
v 1 24 -2
v 1 24 -3
v 1 25 -2
v 1 25 -3
v 1 28 2
v 1 28 1
v 1 28 -1
v 1 28 -2
v 1 29 1
v 1 29 -1
v 2 9 1
v 2 9 -1
v 2 16 -0
v 2 16 -1
v 2 17 -0
v 2 17 -1
v 2 21 1
v 2 21 -0
v 2 22 1
v 2 22 -0
v 2 25 1
v 2 25 -0
v 2 26 1
v 2 26 -0
v 2 28 1
v 2 28 -1
v 3 0 3
v 3 0 -3
v 3 3 3
v 3 3 -3
v 3 16 -0
v 3 16 -1
v 3 17 -0
v 3 17 -1
v 3 21 1
v 3 21 -0
v 3 22 1
v 3 22 -0
v 3 25 1
v 3 25 -0
v 3 26 1
v 3 26 -0
v 4 3 4
v 4 3 -4
v 4 8 4
v 4 8 -4
v 5 8 5
v 5 8 -5
v 5 10 5
v 5 10 -5
v -5 8 5
v -5 10 5
v 5 8 5
v 5 10 5
v -4 3 4
v -4 8 4
v 4 3 4
v 4 8 4
v -3 0 3
v -3 3 3
v -1 18 3
v -1 19 3
v -1 26 3
v -1 27 3
v 0 15 3
v 0 16 3
v 0 18 3
v 0 19 3
v 0 22 3
v 0 23 3
v 0 26 3
v 0 27 3
v 1 15 3
v 1 16 3
v 1 22 3
v 1 23 3
v 3 0 3
v 3 3 3
v -1 9 2
v -1 18 2
v -1 19 2
v -1 26 2
v -1 27 2
v -1 28 2
v 0 15 2
v 0 16 2
v 0 18 2
v 0 19 2
v 0 22 2
v 0 23 2
v 0 26 2
v 0 27 2
v 1 9 2
v 1 15 2
v 1 16 2
v 1 22 2
v 1 23 2
v 1 28 2
v -3 23 1
v -3 24 1
v -2 9 1
v -2 23 1
v -2 24 1
v -2 28 1
v -1 9 1
v -1 28 1
v -1 29 1
v 1 9 1
v 1 28 1
v 1 29 1
v 2 9 1
v 2 21 1
v 2 22 1
v 2 25 1
v 2 26 1
v 2 28 1
v 3 21 1
v 3 22 1
v 3 25 1
v 3 26 1
v -3 17 -0
v -3 18 -0
v -3 26 -0
v -3 27 -0
v -2 17 -0
v -2 18 -0
v -2 26 -0
v -2 27 -0
v 2 16 -0
v 2 17 -0
v 3 16 -0
v 3 17 -0
v -4 9 -4
v -4 10 -4
v -2 9 -4
v -1 9 -4
v 2 9 -4
v 4 9 -4
v 4 10 -4
v -4 9 4
v -4 10 4
v -3 9 4
v -2 9 4
v -1 9 4
v 1 9 4
v 2 9 4
v 3 9 4
v 4 9 4
v 4 10 4
v -3 23 -0
v -3 24 -0
v -2 23 -0
v -2 24 -0
v 2 21 -0
v 2 22 -0
v 2 25 -0
v 2 26 -0
v 3 21 -0
v 3 22 -0
v 3 25 -0
v 3 26 -0
v -3 17 -1
v -3 18 -1
v -3 26 -1
v -3 27 -1
v -2 9 -1
v -2 17 -1
v -2 18 -1
v -2 26 -1
v -2 27 -1
v -2 28 -1
v -1 9 -1
v -1 28 -1
v -1 29 -1
v 1 9 -1
v 1 28 -1
v 1 29 -1
v 2 9 -1
v 2 16 -1
v 2 17 -1
v 2 28 -1
v 3 16 -1
v 3 17 -1
v -1 9 -2
v -1 14 -2
v -1 15 -2
v -1 26 -2
v -1 27 -2
v -1 28 -2
v 0 9 -2
v 0 14 -2
v 0 15 -2
v 0 20 -2
v 0 21 -2
v 0 24 -2
v 0 25 -2
v 0 26 -2
v 0 27 -2
v 1 9 -2
v 1 20 -2
v 1 21 -2
v 1 24 -2
v 1 25 -2
v 1 28 -2
v -3 0 -3
v -3 3 -3
v -1 14 -3
v -1 15 -3
v -1 26 -3
v -1 27 -3
v 0 14 -3
v 0 15 -3
v 0 20 -3
v 0 21 -3
v 0 24 -3
v 0 25 -3
v 0 26 -3
v 0 27 -3
v 1 20 -3
v 1 21 -3
v 1 24 -3
v 1 25 -3
v 3 0 -3
v 3 3 -3
v -4 3 -4
v -4 8 -4
v 4 3 -4
v 4 8 -4
v -5 8 -5
v -5 10 -5
v 5 8 -5
v 5 10 -5
v -3 0 3
v 3 0 3
v -3 0 -3
v 3 0 -3
v -4 3 4
v 4 3 4
v -3 3 3
v 3 3 3
v -3 3 -3
v 3 3 -3
v -4 3 -4
v 4 3 -4
v -5 8 5
v 5 8 5
v -4 8 4
v 4 8 4
v -4 8 -4
v 4 8 -4
v -5 8 -5
v 5 8 -5
v -1 14 -2
v 0 14 -2
v -1 14 -3
v 0 14 -3
v 0 15 3
v 1 15 3
v 0 15 2
v 1 15 2
v 2 16 -0
v 3 16 -0
v 2 16 -1
v 3 16 -1
v -3 17 -0
v -2 17 -0
v -3 17 -1
v -2 17 -1
v -1 18 3
v 0 18 3
v -1 18 2
v 0 18 2
v 0 20 -2
v 1 20 -2
v 0 20 -3
v 1 20 -3
v 2 21 1
v 3 21 1
v 2 21 -0
v 3 21 -0
v 0 22 3
v 1 22 3
v 0 22 2
v 1 22 2
v -3 23 1
v -2 23 1
v -3 23 -0
v -2 23 -0
v 0 24 -2
v 1 24 -2
v 0 24 -3
v 1 24 -3
v 2 25 1
v 3 25 1
v 2 25 -0
v 3 25 -0
v -1 26 3
v 0 26 3
v -1 26 2
v 0 26 2
v -3 26 -0
v -2 26 -0
v -3 26 -1
v -2 26 -1
v -1 26 -2
v 0 26 -2
v -1 26 -3
v 0 26 -3
v -4 9 4
v -3 9 4
v -2 9 4
v -1 9 4
v 1 9 4
v 2 9 4
v 3 9 4
v 4 9 4
v -2 9 3
v -1 9 3
v 1 9 3
v 2 9 3
v 3 9 3
v -4 9 2
v -3 9 2
v -2 9 2
v -1 9 2
v 1 9 2
v 2 9 2
v 3 9 2
v 4 9 2
v -3 9 1
v -2 9 1
v -1 9 1
v 1 9 1
v 2 9 1
v 3 9 1
v -4 9 -1
v -3 9 -1
v -2 9 -1
v -1 9 -1
v 1 9 -1
v 2 9 -1
v 3 9 -1
v -3 9 -2
v -2 9 -2
v -1 9 -2
v 0 9 -2
v 1 9 -2
v 2 9 -2
v 3 9 -2
v 4 9 -2
v -3 9 -3
v -2 9 -3
v -1 9 -3
v 0 9 -3
v 1 9 -3
v 2 9 -3
v 3 9 -3
v -4 9 -4
v -2 9 -4
v -1 9 -4
v 2 9 -4
v 4 9 -4
v -5 10 5
v 5 10 5
v -4 10 4
v 4 10 4
v -4 10 -4
v 4 10 -4
v -5 10 -5
v 5 10 -5
v -1 15 -2
v 0 15 -2
v -1 15 -3
v 0 15 -3
v 0 16 3
v 1 16 3
v 0 16 2
v 1 16 2
v 2 17 -0
v 3 17 -0
v 2 17 -1
v 3 17 -1
v -3 18 -0
v -2 18 -0
v -3 18 -1
v -2 18 -1
v -1 19 3
v 0 19 3
v -1 19 2
v 0 19 2
v 0 21 -2
v 1 21 -2
v 0 21 -3
v 1 21 -3
v 2 22 1
v 3 22 1
v 2 22 -0
v 3 22 -0
v 0 23 3
v 1 23 3
v 0 23 2
v 1 23 2
v -3 24 1
v -2 24 1
v -3 24 -0
v -2 24 -0
v 0 25 -2
v 1 25 -2
v 0 25 -3
v 1 25 -3
v 2 26 1
v 3 26 1
v 2 26 -0
v 3 26 -0
v -1 27 3
v 0 27 3
v -1 27 2
v 0 27 2
v -3 27 -0
v -2 27 -0
v -3 27 -1
v -2 27 -1
v -1 27 -2
v 0 27 -2
v -1 27 -3
v 0 27 -3
v -1 28 2
v 1 28 2
v -2 28 1
v -1 28 1
v 1 28 1
v 2 28 1
v -2 28 -1
v -1 28 -1
v 1 28 -1
v 2 28 -1
v -1 28 -2
v 1 28 -2
v -1 29 1
v 1 29 1
v -1 29 -1
v 1 29 -1

# faces
f 3/6/1 2/6/1 1/6/1
f 4/6/1 2/6/1 3/6/1
f 7/6/1 6/6/1 5/6/1
f 8/6/1 6/6/1 7/6/1
f 11/6/1 10/6/1 9/6/1
f 12/6/1 10/6/1 11/6/1
f 15/9/1 14/9/1 13/9/1
f 16/9/1 14/9/1 15/9/1
f 19/9/1 18/9/1 17/9/1
f 20/9/1 18/9/1 19/9/1
f 23/7/1 22/7/1 21/7/1
f 24/7/1 22/7/1 23/7/1
f 27/8/1 26/8/1 25/8/1
f 28/8/1 26/8/1 27/8/1
f 29/8/1 27/8/1 25/8/1
f 31/8/1 29/8/1 25/8/1
f 31/8/1 30/8/1 29/8/1
f 32/8/1 30/8/1 31/8/1
f 34/8/1 30/8/1 32/8/1
f 35/8/1 30/8/1 34/8/1
f 35/8/1 34/8/1 33/8/1
f 36/8/1 30/8/1 35/8/1
f 37/8/1 35/8/1 33/8/1
f 39/8/1 37/8/1 33/8/1
f 39/8/1 38/8/1 37/8/1
f 40/8/1 38/8/1 39/8/1
f 45/8/1 44/8/1 43/8/1
f 47/8/1 45/8/1 43/8/1
f 47/9/1 46/9/1 45/9/1
f 48/9/1 46/9/1 47/9/1
f 50/8/1 42/8/1 41/8/1
f 51/9/1 50/9/1 49/9/1
f 52/8/1 42/8/1 50/8/1
f 52/9/1 50/9/1 51/9/1
f 54/8/1 42/8/1 52/8/1
f 55/8/1 47/8/1 43/8/1
f 57/9/1 54/9/1 53/9/1
f 58/8/1 42/8/1 54/8/1
f 58/9/1 54/9/1 57/9/1
f 59/7/1 56/7/1 55/7/1
f 59/8/1 55/8/1 43/8/1
f 60/7/1 56/7/1 59/7/1
f 61/8/1 42/8/1 58/8/1
f 62/8/1 42/8/1 61/8/1
f 63/8/1 59/8/1 43/8/1
f 64/8/1 59/8/1 63/8/1
f 65/8/1 63/8/1 62/8/1
f 66/8/1 63/8/1 65/8/1
f 69/9/1 68/9/1 67/9/1
f 70/9/1 68/9/1 69/9/1
f 73/9/1 72/9/1 71/9/1
f 74/9/1 72/9/1 73/9/1
f 77/9/1 76/9/1 75/9/1
f 78/9/1 76/9/1 77/9/1
f 81/9/1 80/9/1 79/9/1
f 82/9/1 80/9/1 81/9/1
f 87/6/1 84/6/1 83/6/1
f 87/6/1 86/6/1 85/6/1
f 87/6/1 85/6/1 84/6/1
f 88/6/1 86/6/1 87/6/1
f 89/6/2 90/6/2 93/6/2
f 91/6/2 92/6/2 93/6/2
f 90/6/2 91/6/2 93/6/2
f 93/6/2 92/6/2 94/6/2
f 95/9/2 96/9/2 97/9/2
f 97/9/2 96/9/2 98/9/2
f 99/9/2 100/9/2 101/9/2
f 101/9/2 100/9/2 102/9/2
f 103/9/2 104/9/2 107/9/2
f 107/9/2 104/9/2 108/9/2
f 105/7/2 106/7/2 109/7/2
f 109/7/2 106/7/2 110/7/2
f 111/8/2 112/8/2 116/8/2
f 115/9/2 116/9/2 117/9/2
f 116/8/2 112/8/2 118/8/2
f 117/9/2 116/9/2 118/9/2
f 113/8/2 114/8/2 119/8/2
f 113/8/2 119/8/2 121/8/2
f 119/9/2 120/9/2 121/9/2
f 121/9/2 120/9/2 122/9/2
f 118/8/2 112/8/2 124/8/2
f 123/9/2 124/9/2 125/9/2
f 124/8/2 112/8/2 126/8/2
f 125/9/2 124/9/2 126/9/2
f 113/8/2 121/8/2 127/8/2
f 113/8/2 127/8/2 129/8/2
f 127/9/2 128/9/2 129/9/2
f 129/9/2 128/9/2 130/9/2
f 126/8/2 112/8/2 131/8/2
f 131/8/2 112/8/2 132/8/2
f 113/8/2 129/8/2 133/8/2
f 133/8/2 129/8/2 134/8/2
f 132/8/2 133/8/2 135/8/2
f 135/8/2 133/8/2 136/8/2
f 137/8/2 138/8/2 139/8/2
f 139/8/2 138/8/2 140/8/2
f 137/8/2 139/8/2 141/8/2
f 137/8/2 141/8/2 143/8/2
f 141/8/2 142/8/2 143/8/2
f 143/8/2 142/8/2 144/8/2
f 144/8/2 142/8/2 146/8/2
f 145/8/2 146/8/2 147/8/2
f 146/8/2 142/8/2 148/8/2
f 147/8/2 146/8/2 148/8/2
f 148/8/2 142/8/2 150/8/2
f 149/8/2 150/8/2 151/8/2
f 150/8/2 142/8/2 152/8/2
f 151/8/2 150/8/2 152/8/2
f 153/6/2 154/6/2 155/6/2
f 155/6/2 154/6/2 156/6/2
f 157/9/2 158/9/2 159/9/2
f 159/9/2 158/9/2 160/9/2
f 161/9/2 162/9/2 163/9/2
f 163/9/2 162/9/2 164/9/2
f 165/9/2 166/9/2 167/9/2
f 167/9/2 166/9/2 168/9/2
f 169/6/2 170/6/2 171/6/2
f 171/6/2 170/6/2 172/6/2
f 173/6/2 174/6/2 175/6/2
f 175/6/2 174/6/2 176/6/2
f 179/6/3 178/6/3 177/6/3
f 180/6/3 178/6/3 179/6/3
f 183/6/3 182/6/3 181/6/3
f 184/6/3 182/6/3 183/6/3
f 193/9/3 188/9/3 187/9/3
f 194/9/3 188/9/3 193/9/3
f 197/9/3 190/9/3 189/9/3
f 198/9/3 190/9/3 197/9/3
f 199/9/3 192/9/3 191/9/3
f 200/9/3 192/9/3 199/9/3
f 201/9/3 196/9/3 195/9/3
f 202/9/3 196/9/3 201/9/3
f 203/6/3 186/6/3 185/6/3
f 204/6/3 186/6/3 203/6/3
f 211/8/3 206/8/3 205/8/3
f 212/8/3 206/8/3 211/8/3
f 213/8/3 206/8/3 212/8/3
f 214/8/3 208/8/3 207/8/3
f 215/8/3 208/8/3 214/8/3
f 216/8/3 208/8/3 215/8/3
f 217/8/3 208/8/3 216/8/3
f 218/8/3 210/8/3 209/8/3
f 219/8/3 211/8/3 205/8/3
f 220/8/3 211/8/3 219/8/3
f 221/8/3 213/8/3 212/8/3
f 221/8/3 214/8/3 213/8/3
f 221/8/3 215/8/3 214/8/3
f 222/8/3 215/8/3 221/8/3
f 223/8/3 217/8/3 216/8/3
f 223/8/3 218/8/3 217/8/3
f 224/8/3 210/8/3 218/8/3
f 224/8/3 218/8/3 223/8/3
f 228/9/3 226/9/3 225/9/3
f 229/9/3 226/9/3 228/9/3
f 231/8/3 228/8/3 227/8/3
f 231/8/3 230/8/3 229/8/3
f 231/8/3 229/8/3 228/8/3
f 232/8/3 230/8/3 231/8/3
f 235/8/3 233/8/3 232/8/3
f 236/8/3 233/8/3 235/8/3
f 237/8/3 235/8/3 234/8/3
f 238/8/3 235/8/3 237/8/3
f 239/8/3 235/8/3 238/8/3
f 240/8/3 235/8/3 239/8/3
f 241/8/3 235/8/3 240/8/3
f 242/8/3 235/8/3 241/8/3
f 243/9/3 239/9/3 238/9/3
f 244/9/3 239/9/3 243/9/3
f 245/9/3 241/9/3 240/9/3
f 246/9/3 241/9/3 245/9/3
f 251/9/3 248/9/3 247/9/3
f 252/9/3 248/9/3 251/9/3
f 253/7/3 250/7/3 249/7/3
f 254/7/3 250/7/3 253/7/3
f 257/9/3 256/9/3 255/9/3
f 258/9/3 256/9/3 257/9/3
f 261/6/3 260/6/3 259/6/3
f 262/6/3 260/6/3 261/6/3
f 263/6/3 260/6/3 262/6/3
f 264/6/3 260/6/3 263/6/3
f 265/6/3 260/6/3 264/6/3
f 266/6/4 267/6/4 268/6/4
f 268/6/4 267/6/4 269/6/4
f 269/6/4 267/6/4 270/6/4
f 270/6/4 267/6/4 271/6/4
f 271/6/4 267/6/4 272/6/4
f 272/6/4 267/6/4 273/6/4
f 273/6/4 267/6/4 274/6/4
f 274/6/4 267/6/4 275/6/4
f 276/9/4 277/9/4 278/9/4
f 278/9/4 277/9/4 279/9/4
f 280/9/4 281/9/4 284/9/4
f 284/9/4 281/9/4 285/9/4
f 282/9/4 283/9/4 286/9/4
f 286/9/4 283/9/4 287/9/4
f 288/9/4 289/9/4 293/9/4
f 293/9/4 289/9/4 294/9/4
f 290/7/4 291/7/4 295/7/4
f 295/7/4 291/7/4 296/7/4
f 293/8/4 294/8/4 298/8/4
f 296/8/4 297/8/4 298/8/4
f 295/8/4 296/8/4 298/8/4
f 294/8/4 295/8/4 298/8/4
f 292/8/4 293/8/4 298/8/4
f 298/8/4 297/8/4 299/8/4
f 299/8/4 300/8/4 302/8/4
f 302/8/4 300/8/4 303/8/4
f 301/8/4 302/8/4 304/8/4
f 304/8/4 302/8/4 305/8/4
f 305/8/4 302/8/4 306/8/4
f 306/8/4 302/8/4 307/8/4
f 305/9/4 306/9/4 308/9/4
f 308/9/4 306/9/4 309/9/4
f 310/8/4 311/8/4 316/8/4
f 316/8/4 311/8/4 317/8/4
f 312/8/4 313/8/4 318/8/4
f 318/8/4 313/8/4 319/8/4
f 319/8/4 313/8/4 320/8/4
f 320/8/4 313/8/4 321/8/4
f 321/8/4 313/8/4 322/8/4
f 322/8/4 313/8/4 323/8/4
f 314/8/4 315/8/4 324/8/4
f 316/8/4 317/8/4 325/8/4
f 317/8/4 318/8/4 325/8/4
f 318/8/4 319/8/4 325/8/4
f 325/8/4 319/8/4 326/8/4
f 320/8/4 321/8/4 327/8/4
f 327/8/4 321/8/4 328/8/4
f 322/8/4 323/8/4 329/8/4
f 323/8/4 324/8/4 329/8/4
f 324/8/4 315/8/4 330/8/4
f 329/8/4 324/8/4 330/8/4
f 333/9/4 334/9/4 337/9/4
f 337/9/4 334/9/4 338/9/4
f 335/7/4 336/7/4 343/7/4
f 343/7/4 336/7/4 344/7/4
f 339/9/4 340/9/4 345/9/4
f 345/9/4 340/9/4 346/9/4
f 341/9/4 342/9/4 347/9/4
f 347/9/4 342/9/4 348/9/4
f 331/6/4 332/6/4 349/6/4
f 349/6/4 332/6/4 350/6/4
f 351/6/4 352/6/4 353/6/4
f 353/6/4 352/6/4 354/6/4
f 355/6/4 356/6/4 357/6/4
f 357/6/4 356/6/4 358/6/4
f 361/6/5 360/6/5 359/6/5
f 362/6/5 360/6/5 361/6/5
f 365/6/5 364/6/5 363/6/5
f 366/6/5 364/6/5 365/6/5
f 367/6/5 365/6/5 363/6/5
f 368/6/5 364/6/5 366/6/5
f 369/6/5 367/6/5 363/6/5
f 369/6/5 368/6/5 367/6/5
f 370/6/5 364/6/5 368/6/5
f 370/6/5 368/6/5 369/6/5
f 373/6/5 372/6/5 371/6/5
f 374/6/5 372/6/5 373/6/5
f 375/6/5 373/6/5 371/6/5
f 376/6/5 372/6/5 374/6/5
f 377/6/5 375/6/5 371/6/5
f 377/6/5 376/6/5 375/6/5
f 378/6/5 372/6/5 376/6/5
f 378/6/5 376/6/5 377/6/5
f 381/9/5 380/9/5 379/9/5
f 382/9/5 380/9/5 381/9/5
f 385/9/5 384/9/5 383/9/5
f 386/9/5 384/9/5 385/9/5
f 389/9/5 388/9/5 387/9/5
f 390/9/5 388/9/5 389/9/5
f 393/9/5 392/9/5 391/9/5
f 394/9/5 392/9/5 393/9/5
f 397/9/5 396/9/5 395/9/5
f 398/9/5 396/9/5 397/9/5
f 401/9/5 400/9/5 399/9/5
f 402/9/5 400/9/5 401/9/5
f 405/9/5 404/9/5 403/9/5
f 406/9/5 404/9/5 405/9/5
f 409/9/5 408/9/5 407/9/5
f 410/9/5 408/9/5 409/9/5
f 413/9/5 412/9/5 411/9/5
f 414/9/5 412/9/5 413/9/5
f 417/9/5 416/9/5 415/9/5
f 418/9/5 416/9/5 417/9/5
f 421/9/5 420/9/5 419/9/5
f 422/9/5 420/9/5 421/9/5
f 425/9/5 424/9/5 423/9/5
f 426/9/5 424/9/5 425/9/5
f 429/7/5 428/7/5 427/7/5
f 430/7/5 428/7/5 429/7/5
f 433/7/5 432/7/5 431/7/5
f 434/7/5 432/7/5 433/7/5
f 436/4/6 437/4/6 443/4/6
f 437/1/6 438/1/6 443/1/6
f 438/4/6 439/4/6 444/4/6
f 443/1/6 438/1/6 444/1/6
f 439/1/6 440/1/6 445/1/6
f 444/4/6 439/4/6 445/4/6
f 440/4/6 441/4/6 446/4/6
f 445/1/6 440/1/6 446/1/6
f 441/2/6 442/2/6 447/2/6
f 446/4/6 441/4/6 447/4/6
f 435/2/6 436/2/6 448/2/6
f 436/4/6 443/4/6 449/4/6
f 448/2/6 436/2/6 449/2/6
f 443/4/6 444/4/6 449/4/6
f 449/4/6 444/4/6 450/4/6
f 444/3/6 445/3/6 451/3/6
f 450/4/6 444/4/6 451/4/6
f 445/4/6 446/4/6 452/4/6
f 451/3/6 445/3/6 452/3/6
f 446/2/6 447/2/6 453/2/6
f 452/4/6 446/4/6 453/4/6
f 447/2/6 442/2/6 454/2/6
f 453/2/6 447/2/6 454/2/6
f 454/2/6 442/2/6 455/2/6
f 449/1/6 450/1/6 456/1/6
f 448/4/6 449/4/6 456/4/6
f 450/3/6 451/3/6 457/3/6
f 456/1/6 450/1/6 457/1/6
f 457/3/6 451/3/6 458/3/6
f 452/3/6 453/3/6 459/3/6
f 453/1/6 454/1/6 460/1/6
f 459/3/6 453/3/6 460/3/6
f 454/4/6 455/4/6 461/4/6
f 460/1/6 454/1/6 461/1/6
f 448/4/6 456/4/6 462/4/6
f 456/3/6 457/3/6 463/3/6
f 462/4/6 456/4/6 463/4/6
f 463/3/6 457/3/6 464/3/6
f 460/3/6 461/3/6 467/3/6
f 461/4/6 455/4/6 468/4/6
f 467/3/6 461/3/6 468/3/6
f 462/2/6 463/2/6 469/2/6
f 463/1/6 464/1/6 469/1/6
f 464/3/6 465/3/6 470/3/6
f 469/1/6 464/1/6 470/1/6
f 470/3/6 465/3/6 471/3/6
f 466/3/6 467/3/6 473/3/6
f 467/4/6 468/4/6 474/4/6
f 473/3/6 467/3/6 474/3/6
f 468/4/6 455/4/6 475/4/6
f 474/4/6 468/4/6 475/4/6
f 475/4/6 455/4/6 476/4/6
f 462/2/6 469/2/6 477/2/6
f 469/4/6 470/4/6 477/4/6
f 470/4/6 471/4/6 477/4/6
f 477/4/6 471/4/6 478/4/6
f 471/2/6 472/2/6 479/2/6
f 478/4/6 471/4/6 479/4/6
f 472/3/6 473/3/6 480/3/6
f 479/2/6 472/2/6 480/2/6
f 473/4/6 474/4/6 481/4/6
f 480/3/6 473/3/6 481/3/6
f 474/1/6 475/1/6 482/1/6
f 481/4/6 474/4/6 482/4/6
f 475/2/6 476/2/6 483/2/6
f 482/1/6 475/1/6 483/1/6
f 477/2/6 478/2/6 484/2/6
f 462/2/6 477/2/6 484/2/6
f 478/7/6 479/7/6 485/7/6
f 484/2/6 478/2/6 485/2/6
f 479/4/6 480/4/6 486/4/6
f 485/7/6 479/7/6 486/7/6
f 481/4/6 482/4/6 486/4/6
f 480/4/6 481/4/6 486/4/6
f 482/2/6 483/2/6 487/2/6
f 486/4/6 482/4/6 487/4/6
f 483/2/6 476/2/6 488/2/6
f 487/2/6 483/2/6 488/2/6
f 489/6/6 490/6/6 491/6/6
f 491/6/6 490/6/6 492/6/6
f 489/6/6 491/6/6 493/6/6
f 492/6/6 490/6/6 494/6/6
f 489/6/6 493/6/6 495/6/6
f 493/6/6 494/6/6 495/6/6
f 494/6/6 490/6/6 496/6/6
f 495/6/6 494/6/6 496/6/6
f 497/9/6 498/9/6 499/9/6
f 499/9/6 498/9/6 500/9/6
f 501/9/6 502/9/6 503/9/6
f 503/9/6 502/9/6 504/9/6
f 505/9/6 506/9/6 507/9/6
f 507/9/6 506/9/6 508/9/6
f 509/9/6 510/9/6 511/9/6
f 511/9/6 510/9/6 512/9/6
f 513/9/6 514/9/6 515/9/6
f 515/9/6 514/9/6 516/9/6
f 517/9/6 518/9/6 519/9/6
f 519/9/6 518/9/6 520/9/6
f 521/9/6 522/9/6 523/9/6
f 523/9/6 522/9/6 524/9/6
f 525/9/6 526/9/6 527/9/6
f 527/9/6 526/9/6 528/9/6
f 529/9/6 530/9/6 531/9/6
f 531/9/6 530/9/6 532/9/6
f 533/9/6 534/9/6 535/9/6
f 535/9/6 534/9/6 536/9/6
f 537/9/6 538/9/6 539/9/6
f 539/9/6 538/9/6 540/9/6
f 541/9/6 542/9/6 543/9/6
f 543/9/6 542/9/6 544/9/6
f 545/7/6 546/7/6 547/7/6
f 547/7/6 546/7/6 548/7/6
f 549/7/6 550/7/6 551/7/6
f 551/7/6 550/7/6 552/7/6
f 553/8/6 554/8/6 556/8/6
f 556/8/6 554/8/6 557/8/6
f 555/8/6 556/8/6 559/8/6
f 559/8/6 556/8/6 560/8/6
f 557/8/6 558/8/6 561/8/6
f 561/8/6 558/8/6 562/8/6
f 560/8/6 561/8/6 563/8/6
f 563/8/6 561/8/6 564/8/6
f 565/8/6 566/8/6 567/8/6
f 567/8/6 566/8/6 568/8/6
